{
.appVersion = "3337";
.formatVersion = 3;
DisplayStrings = (
BLACKLETTER,
"/_dot Ä"
);
classes = (
{
code = "one two three four five six seven eight nine zero
";
name = defaultnumbers;
},
{
automatic = 1;
code = "A Adieresis B C D E F G H I J K L M N O Odieresis P Q R S Germandbls T U Udieresis V W X Y Z Adieresis_U a adieresis au b c d e f g h i j k l m n o odieresis p q r s germandbls t u udieresis v w x y z adieresis_u A.sc Adieresis.sc B.sc C.sc D.sc E.sc F.sc G.sc H.sc I.sc J.sc K.sc L.sc M.sc N.sc O.sc Odieresis.sc P.sc Q.sc R.sc S.sc Germandbls.sc T.sc U.sc Udieresis.sc V.sc W.sc X.sc Y.sc Z.sc R.sc.001 Adieresis_U.sc";
name = AllLetters;
},
{
automatic = 1;
code = "A Adieresis B C D E F G H I J K L M N O Odieresis P Q R S Germandbls T U Udieresis V W X Y Z Adieresis_U";
name = Uppercase;
}
);
date = "2024-12-07 12:36:14 +0000";
familyName = Braillant;
featurePrefixes = (
{
automatic = 1;
code = "languagesystem DFLT dflt;
";
name = Languagesystems;
}
);
features = (
{
automatic = 1;
code = "feature lnum;
feature onum;
feature c2sc;
feature smcp;
feature case;
";
tag = aalt;
},
{
automatic = 1;
code = "sub zero.osf by zero;
sub one.osf by one;
sub two.osf by two;
sub three.osf by three;
sub four.osf by four;
sub five.osf by five;
sub six.osf by six;
sub seven.osf by seven;
sub eight.osf by eight;
sub nine.osf by nine;
";
tag = lnum;
},
{
automatic = 1;
code = "sub zero by zero.osf;
sub one by one.osf;
sub two by two.osf;
sub three by three.osf;
sub four by four.osf;
sub five by five.osf;
sub six by six.osf;
sub seven by seven.osf;
sub eight by eight.osf;
sub nine by nine.osf;
";
tag = onum;
},
{
automatic = 1;
code = "sub A by A.sc;
sub Adieresis by Adieresis.sc;
sub B by B.sc;
sub C by C.sc;
sub D by D.sc;
sub E by E.sc;
sub F by F.sc;
sub G by G.sc;
sub H by H.sc;
sub I by I.sc;
sub J by J.sc;
sub K by K.sc;
sub L by L.sc;
sub M by M.sc;
sub N by N.sc;
sub O by O.sc;
sub Odieresis by Odieresis.sc;
sub P by P.sc;
sub Q by Q.sc;
sub R by R.sc;

glyphs = (
{
glyphname = A;
lastChange = "2024-12-18 17:53:51 +0000";
layers = (
{
anchors = (
{
name = top;
pos = (280,620);
}
);
background = {
shapes = (
{
pos = (40,-460);
ref = _dot;
},
{
pos = (40,20);
ref = _dot;
},
{
pos = (40,-220);
ref = _dot;
},
{
pos = (-200,-460);
ref = _dot;
},
{
pos = (-200,20);
ref = _dot;
},
{
pos = (-200,-220);
ref = _dot;
}
);
};
hints = (
{
name = _corner.leftSerif;
origin = (6,1);
type = Corner;
},
{
name = _corner.rightSerif;
origin = (6,2);
type = Corner;
},
{
name = _corner.leftSerif;
origin = (0,3);
type = Corner;
},
{
name = _corner.rightSerif;
origin = (0,0);
type = Corner;
},
{
name = "_corner.leftSerif-TOP";
origin = (5,2);
type = Corner;
}
);
layerId = m01;
shapes = (
{
closed = 1;
nodes = (
(460,20,l),
(460,740,l),
(380,740,l),
(380,20,l)
);
},
{
closed = 1;
nodes = (
(200,600,l),
(200,740,l),
(120,740,l),
(120,600,l)
);
},
{
closed = 0;
nodes = (
(420,20,l)
);
},
{
closed = 1;
nodes = (
(440,500,l),
(460,580,l),
(220,580,l),
(220,500,l)
);
},
{
pos = (-200,20);
ref = _dot;
},
{
closed = 1;
nodes = (
(460,740,l),
(380,820,l),
(120,820,l),
(120,740,l)
);
},
{
closed = 1;
nodes = (
(120,480,l),
(120,20,l),
(200,20,l),
(200,480,l)
);
}
);
width = 560;
}
);
unicode = 65;
},
{
glyphname = Adieresis;
lastChange = "2025-01-10 15:54:31 +0000";
layers = (
{
background = {
shapes = (
{
pos = (40,-460);
ref = _dot;
},
{
pos = (-200,-460);
ref = _dot;
},
{
pos = (40,-220);
ref = _dot;
},
{
pos = (-200,-460);
ref = _dot;
},
{
pos = (-200,20);
ref = _dot;
},
{
pos = (-200,-220);
ref = _dot;
},
{
pos = (40,20);
ref = _dot;
},
{
pos = (40,20);
ref = _dot;
},
{
pos = (40,-220);
ref = _dot;
}
);
};
hints = (
{
name = "_corner.leftSerif-TOP";
origin = (4,2);
type = Corner;
},
{
name = _corner.leftSerif;
origin = (8,3);
type = Corner;
},
{
name = _corner.rightSerif;
origin = (8,0);
type = Corner;
}
);
layerId = m01;
shapes = (
{
pos = (20,260);
ref = dieresis;
},
{
closed = 1;
nodes = (
(440,600,l),
(440,740,l),
(360,740,l),
(360,600,l)
);
},
{
closed = 1;
nodes = (
(200,120,l),
(200,760,l),
(120,760,l),
(120,120,l)
);
},
{
closed = 1;
nodes = (
(340,500,l),
(340,580,l),
(180,580,l),
(180,500,l)
);
},
{
closed = 1;
nodes = (
(440,740,l),
(360,820,l),
(120,820,l),
(120,740,l)
);
},
{
pos = (-200,-460);
ref = _dot;
},
{
pos = (40,20);
ref = _dot;
},
{
pos = (40,-220);
ref = _dot;
},
{
closed = 1;
nodes = (
(440,20,l),
(440,240,l),
(360,240,l),
(360,20,l)
);
},
{
pos = (-40,-180);
ref = "_corner.Serif.left_wBraille-BOTTOM";
},
{
pos = (60,-180);
ref = "_corner.Serif.right_wBraille-BOTTOM";
},
{
closed = 1;
nodes = (
(360,480,l),
(360,360,l),
(440,360,l),
(440,480,l)
);
}
);
width = 560;
}
);
unicode = 196;
},
{
glyphname = B;
lastChange = "2024-12-18 08:42:43 +0000";
layers = (
{
background = {
shapes = (
{
pos = (40,-460);
ref = _dot;
},
{
pos = (40,20);
ref = _dot;
},
{
pos = (40,-220);
ref = _dot;
},
{
pos = (-200,-460);
ref = _dot;
},
{
pos = (-200,20);
ref = _dot;
},
{
pos = (-200,-220);
ref = _dot;
}
);
};
hints = (
{
name = _corner.leftSerif;
origin = (5,3);
type = Corner;
},
{
name = "_corner.leftSerif-TOP";
origin = (1,2);
type = Corner;
}
);
layerId = m01;
shapes = (
{
closed = 1;
nodes = (
(460,580,l),
(460,740,l),
(380,740,l),
(380,620,l),
(380,540,l),
(400,540,l)
);
},
{
closed = 1;
nodes = (
(200,600,l),
(200,820,l),
(120,820,l),
(120,600,l)
);
},
{
closed = 0;
nodes = (
(420,80,l)
);
},
{
closed = 1;
nodes = (
(380,500,l),
(380,580,l),
(220,580,l),
(220,500,l)
);
},
{
closed = 1;
nodes = (
(460,740,l),
(380,820,l),
(200,820,l),
(200,740,l)
);
},
{
closed = 1;
nodes = (
(200,20,l),
(200,480,l),
(120,480,l),
(120,20,l)
);
},
{
closed = 1;
nodes = (
(460,100,l),
(460,500,l),
(400,540,l),
(380,540,l),
(380,460,l),
(380,100,l)
);
},
{
closed = 1;
nodes = (
(380,20,l),
(460,100,l),
(120,100,l),
(120,20,l)
);
},
{
pos = (-200,-220);
ref = _dot;
},
{
pos = (-200,20);
ref = _dot;
}
);
width = 560;
}
);
unicode = 66;
},
{
glyphname = C;
lastChange = "2024-12-18 08:44:31 +0000";
layers = (
{
background = {
shapes = (
{
pos = (40,-460);
ref = _dot;
},
{
pos = (40,20);
ref = _dot;
},
{
pos = (40,-220);
ref = _dot;
},
{
pos = (-200,-460);
ref = _dot;
},
{
pos = (-200,20);
ref = _dot;
},
{
pos = (-200,-220);
ref = _dot;
}
);
};
layerId = m01;
shapes = (
{
closed = 1;
nodes = (
(200,600,l),
(200,820,l),
(120,740,l),
(120,600,l)
);
},
{
closed = 1;
nodes = (
(440,20,l),
(440,100,l),
(120,100,l),
(180,20,l)
);
},
{
closed = 1;
nodes = (
(440,100,l),
(440,160,l),
(360,160,l),
(360,120,l),
(360,80,l)
);
},
{
alignment = -1;
pos = (-200,20);
ref = _dot;
},
{
closed = 1;
nodes = (
(440,740,l),
(440,820,l),
(200,820,l),
(200,740,l)
);
},
{
alignment = -1;
pos = (40,20);
ref = _dot;
},
{
closed = 1;
nodes = (
(120,480,l),
(120,100,l),
(200,60,l),
(200,480,l)
);
},
{
closed = 1;
nodes = (
(440,600,l),
(440,740,l),
(360,740,l),
(360,600,l)
);
}
);
width = 560;
}
);
unicode = 67;
},
{
glyphname = D;
lastChange = "2024-12-18 08:46:02 +0000";
layers = (
{
background = {
shapes = (
{
pos = (40,-460);
ref = _dot;
},
{
pos = (40,20);
ref = _dot;
},
{
pos = (40,-220);
ref = _dot;
},
{
pos = (-200,-460);
ref = _dot;
},
{
pos = (-200,20);
ref = _dot;
},
{
pos = (-200,-220);
ref = _dot;
}
);
};
hints = (
{
name = _corner.leftSerif;
origin = (0,3);
type = Corner;
},
{
name = "_corner.leftSerif-TOP";
origin = (1,2);
type = Corner;
}
);
layerId = m01;
shapes = (
{
closed = 1;
nodes = (
(360,20,l),
(360,100,l),
(120,100,l),
(120,20,l)
);
},
{
closed = 1;
nodes = (
(200,600,l),
(200,820,l),
(120,820,l),
(120,600,l)
);
},
{
alignment = -1;
pos = (40,-220);
ref = _dot;
},
{
alignment = -1;
pos = (-200,20);
ref = _dot;
},
{
closed = 1;
nodes = (
(360,740,l),
(360,820,l),
(200,820,l),
(200,740,l)
);
},
{
closed = 1;
nodes = (
(440,360,l),
(440,480,l),
(360,480,l),
(360,360,l)
);
},
{
alignment = -1;
pos = (40,20);
ref = _dot;
},
{
closed = 1;
nodes = (
(440,240,l),
(440,100,l),
(360,20,l),
(360,240,l)
);
},
{
closed = 1;
nodes = (
(360,820,l),
(440,740,l),
(440,600,l),
(360,600,l)
);
},
{
closed = 1;
nodes = (
(120,480,l),
(120,60,l),
(200,60,l),
(200,480,l)
);
}
);
width = 560;
},
{
associatedMasterId = m01;
background = {
shapes = (
{
pos = (40,-460);
ref = _dot;
},
{
pos = (40,20);
ref = _dot;
},
{
pos = (40,-220);
ref = _dot;
},
{
pos = (-200,-460);
ref = _dot;
},
{
pos = (-200,20);
ref = _dot;
},
{
pos = (-200,-220);
ref = _dot;
}
);
};
layerId = "8FE9AD80-5C08-4B1A-BF12-2B91FA4A190F";
name = "17. Dez. 24, 14:47";
shapes = (
{
closed = 1;
nodes = (
(320,20,l),
(440,220,l),
(440,240,l),
(360,240,l),
(240,20,l)
);
},
{
closed = 1;
nodes = (
(300,20,l),
(300,100,l),
(120,100,l),
(120,20,l)
);
},
{
closed = 1;
nodes = (
(200,60,l),
(200,480,l),
(120,480,l),
(120,60,l)
);
},
{
alignment = -1;
pos = (40,-220);
ref = _dot;
},
{
alignment = -1;
pos = (-200,20);
ref = _dot;
},
{
closed = 1;
nodes = (
(340,500,l),
(340,580,l),
(220,580,l),
(220,500,l)
);
},
{
closed = 1;
nodes = (
(440,360,l),
(440,480,l),
(360,480,l),
(360,360,l)
);
},
{
alignment = -1;
pos = (40,20);
ref = _dot;
}
);
width = 560;
}
);
unicode = 68;
},
{
glyphname = E;
lastChange = "2024-12-18 08:49:33 +0000";
layers = (
{
background = {
shapes = (
{
pos = (40,-460);
ref = _dot;
},
{
pos = (40,20);
ref = _dot;
},
{
pos = (40,-220);
ref = _dot;
},
{
pos = (-200,-460);
ref = _dot;
},
{
pos = (-200,20);
ref = _dot;
},
{
pos = (-200,-220);
ref = _dot;
}
);
};
hints = (
{
name = _corner.leftSerif;
origin = (6,1);
type = Corner;
},
{
name = _corner.leftSerif;
origin = (2,1);
type = Corner;
},
{
name = "_corner.leftSerif-TOP";
origin = (3,2);
type = Corner;
}
);
layerId = m01;
shapes = (
{
alignment = -1;
pos = (40,-220);
ref = _dot;
},
{
alignment = -1;
pos = (-200,20);
ref = _dot;
},
{
closed = 1;
nodes = (
(200,740,l),
(440,740,l),
(440,820,l),
(200,820,l)
);
},
{
closed = 1;
nodes = (
(200,600,l),
(200,820,l),
(120,820,l),
(120,600,l)
);
},
{
closed = 1;
nodes = (
(440,20,l),
(440,100,l),
(160,100,l),
(160,20,l)
);
},
{
closed = 1;
nodes = (
(360,500,l),
(360,580,l),
(220,580,l),
(220,500,l)
);
},
{
closed = 1;
nodes = (
(120,480,l),
(120,20,l),
(200,20,l),
(200,480,l)
);
},
{
closed = 1;
nodes = (
(440,80,l),
(440,240,l),
(360,240,l),
(360,80,l)
);
}
);
width = 560;
}
);
unicode = 69;
},
{
glyphname = F;
lastChange = "2024-12-18 08:50:44 +0000";
layers = (
{
background = {
shapes = (
{
pos = (40,-460);
ref = _dot;
},
{
pos = (40,20);
ref = _dot;
},
{
pos = (40,-220);
ref = _dot;
},
{
pos = (-200,-460);
ref = _dot;
},
{
pos = (-200,20);
ref = _dot;
},
{
pos = (-200,-220);
ref = _dot;
}
);
};
hints = (
{
name = _corner.leftSerif;
origin = (3,3);
type = Corner;
},
{
name = _corner.rightSerif;
origin = (3,0);
type = Corner;
},
{
name = "_corner.leftSerif-TOP";
origin = (7,2);
type = Corner;
},
{
name = _corner.leftSerif;
origin = (0,1);
type = Corner;
}
);
layerId = m01;
shapes = (
{
closed = 1;
nodes = (
(180,740,l),
(440,740,l),
(440,820,l),
(180,820,l)
);
},
{
closed = 1;
nodes = (
(200,480,l),
(200,360,l),
(120,360,l),
(120,480,l)
);
},
{
closed = 1;
nodes = (
(340,500,l),
(340,580,l),
(220,580,l),
(220,500,l)
);
},
{
closed = 1;
nodes = (
(200,20,l),
(200,240,l),
(120,240,l),
(120,20,l)
);
},
{
pos = (40,20);
ref = _dot;
},
{
pos = (-200,-220);
ref = _dot;
},
{
pos = (-200,20);
ref = _dot;
},
{
closed = 1;
nodes = (
(200,600,l),
(200,820,l),
(120,820,l),
(120,600,l)
);
}
);
width = 560;
}
);
unicode = 70;
},
{
glyphname = G;
lastChange = "2024-12-18 08:52:29 +0000";
layers = (
{
background = {
shapes = (
{
pos = (40,-460);
ref = _dot;
},
{
pos = (40,20);
ref = _dot;
},
{
pos = (40,-220);
ref = _dot;
},
{
pos = (-200,-460);
ref = _dot;
},
{
pos = (-200,20);
ref = _dot;
},
{
pos = (-200,-220);
ref = _dot;
}
);
};
hints = (
{
name = _corner.leftSerif;
origin = (4,1);
type = Corner;
}
);
layerId = m01;
shapes = (
{
alignment = -1;
pos = (40,-220);
ref = _dot;
},
{
alignment = -1;
pos = (-200,20);
ref = _dot;
},
{
alignment = -1;
pos = (40,20);
ref = _dot;
},
{
alignment = -1;
pos = (-200,-220);
ref = _dot;
},
{
closed = 1;
nodes = (
(200,740,l),
(440,740,l),
(440,820,l),
(200,820,l)
);
},
{
closed = 1;
nodes = (
(120,360,l),
(200,360,l),
(200,480,l),
(120,480,l)
);
},
{
closed = 1;
nodes = (
(120,100,l),
(180,20,l),
(200,20,l),
(200,240,l),
(120,240,l)
);
},
{
closed = 1;
nodes = (
(180,20,l),
(380,20,l),
(400,100,l),
(180,100,l)
);
},
{
closed = 1;
nodes = (
(360,20,l),
(380,20,l),
(440,100,l),
(440,240,l),
(360,240,l)
);
},
{
closed = 1;
nodes = (
(280,500,l),
(340,500,l),
(340,580,l),
(280,580,l)
);
},
{
closed = 1;
nodes = (
(120,600,l),
(200,600,l),
(200,820,l),
(120,740,l)
);
},
{
closed = 1;
nodes = (
(440,480,l),
(440,360,l),
(360,360,l),
(360,480,l)
);
}
);
width = 560;
}
);
unicode = 71;
},
{
glyphname = H;
lastChange = "2024-12-18 08:53:20 +0000";
layers = (
{
background = {
shapes = (
{
pos = (40,-460);
ref = _dot;
},
{
pos = (40,20);
ref = _dot;
},
{
pos = (40,-220);
ref = _dot;
},
{
pos = (-200,-460);
ref = _dot;
},
{
pos = (-200,20);
ref = _dot;
},
{
pos = (-200,-220);
ref = _dot;
}
);
};
hints = (
{
name = _corner.leftSerif;
origin = (4,0);
type = Corner;
},
{
name = _corner.leftSerif;
origin = (5,0);
type = Corner;
},
{
name = _corner.rightSerif;
origin = (4,1);
type = Corner;
},
{
name = _corner.rightSerif;
origin = (5,1);
type = Corner;
},
{
name = "_corner.leftSerif-TOP";
origin = (6,2);
type = Corner;
},
{
name = "_corner.rightSerif-TOP";
origin = (6,1);
type = Corner;
},
{
name = "_corner.rightSerif-TOP";
origin = (8,1);
type = Corner;
},
{
name = "_corner.leftSerif-TOP";
origin = (8,2);
type = Corner;
}
);
layerId = m01;
shapes = (
{
closed = 1;
nodes = (
(120,360,l),
(200,360,l),
(200,480,l),
(120,480,l)
);
},
{
pos = (40,-220);
ref = _dot;
},
{
pos = (-200,20);
ref = _dot;
},
{
pos = (-200,-220);
ref = _dot;
},
{
closed = 1;
nodes = (
(120,20,l),
(200,20,l),
(200,240,l),
(120,240,l)
);
},
{
closed = 1;
nodes = (
(360,20,l),
(440,20,l),
(440,240,l),
(360,240,l)
);
},
{
closed = 1;
nodes = (
(440,360,l),
(440,820,l),
(360,820,l),
(360,360,l)
);
},
{
closed = 1;
nodes = (
(220,500,l),
(380,500,l),
(380,580,l),
(220,580,l)
);
},
{
closed = 1;
nodes = (
(200,600,l),
(200,820,l),
(120,820,l),
(120,600,l)
);
}
);
width = 560;
}
);
unicode = 72;
},
{
glyphname = I;
lastChange = "2024-12-18 08:53:44 +0000";
layers = (
{
background = {
shapes = (
{
pos = (40,-460);
ref = _dot;
},
{
pos = (40,20);
ref = _dot;
},
{
pos = (40,-220);
ref = _dot;
},
{
pos = (-200,-460);
ref = _dot;
},
{
pos = (-200,20);
ref = _dot;
},
{
pos = (-200,-220);
ref = _dot;
}
);
};
hints = (
{
name = _corner.leftSerif;
origin = (2,3);
type = Corner;
},
{
name = _corner.rightSerif;
origin = (2,0);
type = Corner;
},
{
name = "_corner.leftSerif-TOP";
origin = (2,2);
type = Corner;
},
{
name = "_corner.rightSerif-TOP";
origin = (2,1);
type = Corner;
}
);
layerId = m01;
shapes = (
{
alignment = -1;
pos = (40,20);
ref = _dot;
},
{
alignment = -1;
pos = (-200,-220);
ref = _dot;
},
{
closed = 1;
nodes = (
(320,20,l),
(320,820,l),
(240,820,l),
(240,20,l)
);
}
);
width = 560;
}
);
unicode = 73;
},
{
glyphname = J;
lastChange = "2024-12-18 08:54:34 +0000";
layers = (
{
background = {
shapes = (
{
pos = (40,-460);
ref = _dot;
},
{
pos = (40,20);
ref = _dot;
},
{
pos = (40,-220);
ref = _dot;
},
{
pos = (-200,-460);
ref = _dot;
},
{
pos = (-200,20);
ref = _dot;
},
{
pos = (-200,-220);
ref = _dot;
}
);
};
hints = (
{
name = "_corner.leftSerif-TOP";
origin = (7,3);
type = Corner;
}
);
layerId = m01;
shapes = (
{
closed = 1;
nodes = (
(400,20,l),
(440,100,l),
(120,100,l),
(200,20,l)
);
},
{
closed = 1;
nodes = (
(200,60,l),
(200,240,l),
(120,240,l),
(120,100,l)
);
},
{
alignment = -1;
pos = (-200,-220);
ref = _dot;
},
{
closed = 1;
nodes = (
(440,100,l),
(440,240,l),
(360,240,l),
(360,60,l)
);
},
{
alignment = -1;
pos = (40,-220);
ref = _dot;
},
{
closed = 1;
nodes = (
(440,600,l),
(440,820,l),
(360,820,l),
(360,600,l)
);
},
{
alignment = -1;
pos = (40,20);
ref = _dot;
},
{
closed = 1;
nodes = (
(380,740,l),
(380,820,l),
(140,820,l),
(140,740,l)
);
},
{
closed = 1;
nodes = (
(360,480,l),
(360,360,l),
(440,360,l),
(440,480,l)
);
}
);
width = 560;
}
);
unicode = 74;
},
{
glyphname = K;
lastChange = "2024-12-24 12:11:13 +0000";
layers = (
{
associatedMasterId = m01;
background = {
shapes = (
{
pos = (80,-460);
ref = _dot;
},
{
pos = (80,20);
ref = _dot;
},
{
pos = (80,-220);
ref = _dot;
},
{
pos = (-160,-460);
ref = _dot;
},
{
pos = (-160,20);
ref = _dot;
},
{
pos = (-160,-220);
ref = _dot;
}
);
};
layerId = "4F36E665-CA84-4BBF-9D30-19AB6A6A668D";
name = "8. Dez. 24, 12:10";
shapes = (
{
alignment = -1;
pos = (-160,-460);
ref = _dot;
},
{
alignment = -1;
pos = (-160,20);
ref = _dot;
},
{
closed = 1;
nodes = (
(320,300,l),
(480,580,l),
(400,580,l),
(240,300,l)
);
},
{
closed = 1;
nodes = (
(240,140,l),
(240,460,l),
(160,460,l),
(160,140,l)
);
},
{
closed = 1;
nodes = (
(480,20,l),
(320,300,l),
(240,300,l),
(400,20,l)
);
},
{
closed = 1;
nodes = (
(220,260,l),
(220,340,l),
(200,340,l),
(200,260,l)
);
}
);
width = 600;
},
{
associatedMasterId = m01;
background = {
shapes = (
{
pos = (40,-460);
ref = _dot;
},
{
pos = (40,20);
ref = _dot;
},
{
pos = (40,-220);
ref = _dot;
},
{
pos = (-200,-460);
ref = _dot;
},
{
pos = (-200,20);
ref = _dot;
},
{
pos = (-200,-220);
ref = _dot;
}
);
};
hints = (
{
name = _corner.rightSerif;
origin = (2,5);
type = Corner;
},
{
name = "_corner.rightSerif-TOP";
origin = (6,1);
type = Corner;
},
{
name = "_corner.leftSerif-TOP";
origin = (6,2);
type = Corner;
},
{
name = "_corner.rightSerif-TOP";
origin = (2,0);
type = Corner;
}
);
layerId = "44D73069-8C0F-405D-8378-50077E066762";
name = "18. Dez. 24, 10:00";
shapes = (
{
alignment = -1;
pos = (-200,-460);
ref = _dot;
},
{
alignment = -1;
pos = (-200,20);
ref = _dot;
},
{
closed = 1;
nodes = (
(440,820,l),
(360,820,l),
(220,580,l),
(220,500,l),
(360,20,l),
(440,20,l),
(300,520,l),
(300,560,l)
);
},
{
closed = 0;
nodes = (
(400,80,l)
);
},
{
closed = 1;
nodes = (
(200,120,l),
(200,480,l),
(120,480,l),
(120,120,l)
);
},
{
pos = (-60,-180);
ref = "_corner.Serif.left_wBraille-BOTTOM";
},
{
closed = 1;
nodes = (
(200,600,l),
(200,820,l),
(120,820,l),
(120,600,l)
);
}
);
width = 560;
},
{
background = {
shapes = (
{
pos = (40,-460);
ref = _dot;
},
{
pos = (40,20);
ref = _dot;
},
{
pos = (40,-220);
ref = _dot;
},
{
pos = (-200,-460);
ref = _dot;
},
{
pos = (-200,20);
ref = _dot;
},
{
pos = (-200,-220);
ref = _dot;
}
);
};
hints = (
{
name = _corner.rightSerif;
origin = (6,0);
type = Corner;
},
{
name = "_corner.rightSerif-TOP";
origin = (2,1);
type = Corner;
},
{
name = "_corner.leftSerif-TOP";
origin = (8,2);
type = Corner;
}
);
layerId = m01;
name = Regular;
shapes = (
{
alignment = -1;
pos = (-200,-460);
ref = _dot;
},
{
alignment = -1;
pos = (-200,20);
ref = _dot;
},
{
closed = 1;
nodes = (
(440,580,l),
(440,820,l),
(360,820,l),
(360,620,l),
(280,540,l),
(380,540,l)
);
},
{
closed = 0;
nodes = (
(400,80,l)
);
},
{
closed = 1;
nodes = (
(380,500,l),
(380,580,l),
(220,580,l),
(220,500,l)
);
},
{
closed = 1;
nodes = (
(200,120,l),
(200,480,l),
(120,480,l),
(120,120,l)
);
},
{
closed = 1;
nodes = (
(440,20,l),
(440,480,l),
(380,540,l),
(280,520,l),
(360,440,l),
(360,20,l)
);
},
{
pos = (-40,-180);
ref = "_corner.Serif.left_wBraille-BOTTOM";
},
{
closed = 1;
nodes = (
(200,600,l),
(200,820,l),
(120,820,l),
(120,600,l)
);
}
);
width = 560;
}
);
unicode = 75;
},
{
glyphname = L;
lastChange = "2024-12-24 12:11:02 +0000";
layers = (
{
background = {
shapes = (
{
pos = (40,-460);
ref = _dot;
},
{
pos = (40,20);
ref = _dot;
},
{
pos = (40,-220);
ref = _dot;
},
{
pos = (-200,-460);
ref = _dot;
},
{
pos = (-200,20);
ref = _dot;
},
{
pos = (-200,-220);
ref = _dot;
}
);
};
hints = (
{
name = _corner.rightSerif;
origin = (5,1);
type = Corner;
},
{
name = "_corner.leftSerif-TOP";
origin = (7,3);
type = Corner;
}
);
layerId = m01;
shapes = (
{
alignment = -1;
pos = (-200,-460);
ref = _dot;
},
{
alignment = -1;
pos = (-200,20);
ref = _dot;
},
{
alignment = -1;
pos = (-200,-220);
ref = _dot;
},
{
closed = 1;
nodes = (
(200,480,l),
(200,360,l),
(120,360,l),
(120,480,l)
);
},
{
closed = 1;
nodes = (
(200,240,l),
(200,120,l),
(120,120,l),
(120,240,l)
);
},
{
closed = 1;
nodes = (
(460,20,l),
(460,100,l),
(220,100,l),
(220,20,l)
);
},
{
pos = (-40,-180);
ref = "_corner.Serif.left_wBraille-BOTTOM";
},
{
closed = 1;
nodes = (
(120,600,l),
(200,600,l),
(200,820,l),
(120,820,l)
);
}
);
width = 560;
}
);
unicode = 76;
},
{
glyphname = M;
lastChange = "2024-12-24 12:11:27 +0000";
layers = (
{
background = {
shapes = (
{
pos = (40,-460);
ref = _dot;
},
{
pos = (40,20);
ref = _dot;
},
{
pos = (40,-220);
ref = _dot;
},
{
pos = (-200,-460);
ref = _dot;
},
{
pos = (-200,20);
ref = _dot;
},
{
pos = (-200,-220);
ref = _dot;
}
);
};
hints = (
{
name = _corner.leftSerif;
origin = (4,3);
type = Corner;
},
{
name = _corner.rightSerif;
origin = (4,0);
type = Corner;
},
{
name = "_corner.leftSerif-TOP";
origin = (7,3);
type = Corner;
},
{
name = "_corner.rightSerif-TOP";
origin = (8,2);
type = Corner;
}
);
layerId = m01;
shapes = (
{
alignment = -1;
pos = (-200,-460);
ref = _dot;
},
{
alignment = -1;
pos = (-200,20);
ref = _dot;
},
{
alignment = -1;
pos = (40,20);
ref = _dot;
},
{
closed = 1;
nodes = (
(200,480,l),
(200,120,l),
(120,120,l),
(120,480,l)
);
},
{
closed = 1;
nodes = (
(440,20,l),
(440,480,l),
(360,480,l),
(360,20,l)
);
},
{
closed = 1;
nodes = (
(280,760,l),
(280,660,l),
(200,720,l),
(200,820,l)
);
},
{
closed = 1;
nodes = (
(360,720,l),
(280,660,l),
(280,760,l),
(360,820,l)
);
},
{
closed = 1;
nodes = (
(120,600,l),
(200,600,l),
(200,820,l),
(120,820,l)
);
},
{
closed = 1;
nodes = (
(360,600,l),
(440,600,l),
(440,820,l),
(360,820,l)
);
},
{
pos = (-40,-180);
ref = "_corner.Serif.left_wBraille-BOTTOM";
},
{
pos = (60,-180);
ref = "_corner.Serif.right_wBraille-BOTTOM";
}
);
width = 560;
},
{
associatedMasterId = m01;
background = {
shapes = (
{
pos = (80,-460);
ref = _dot;
},
{
pos = (80,20);
ref = _dot;
},
{
pos = (80,-220);
ref = _dot;
},
{
pos = (-160,-460);
ref = _dot;
},
{
pos = (-160,20);
ref = _dot;
},
{
pos = (-160,-220);
ref = _dot;
}
);
};
layerId = "86DB598B-9AD7-4577-9587-9881C681CB1F";
name = "8. Dez. 24, 12:18";
shapes = (
{
alignment = -1;
pos = (-160,-460);
ref = _dot;
},
{
alignment = -1;
pos = (-160,20);
ref = _dot;
},
{
alignment = -1;
pos = (80,20);
ref = _dot;
},
{
closed = 1;
nodes = (
(240,460,l),
(240,140,l),
(160,140,l),
(160,460,l)
);
},
{
closed = 1;
nodes = (
(480,460,l),
(480,20,l),
(400,20,l),
(400,460,l)
);
},
{
closed = 1;
nodes = (
(360,580,l),
(360,500,l),
(280,500,l),
(280,580,l)
);
}
);
width = 600;
}
);
unicode = 77;
},
{
glyphname = N;
lastChange = "2024-12-18 09:54:40 +0000";
layers = (
{
background = {
shapes = (
{
pos = (40,-460);
ref = _dot;
},
{
pos = (40,20);
ref = _dot;
},
{
pos = (40,-220);
ref = _dot;
},
{
pos = (-200,-460);
ref = _dot;
},
{
pos = (-200,20);
ref = _dot;
},
{
pos = (-200,-220);
ref = _dot;
}
);
};
hints = (
{
name = "_corner.leftSerif-TOP";
origin = (8,3);
type = Corner;
}
);
layerId = m01;
shapes = (
{
alignment = -1;
pos = (-200,-460);
ref = _dot;
},
{
alignment = -1;
pos = (-200,20);
ref = _dot;
},
{
alignment = -1;
pos = (40,20);
ref = _dot;
},
{
alignment = -1;
pos = (40,-220);
ref = _dot;
},
{
closed = 1;
nodes = (
(200,480,l),
(200,120,l),
(120,120,l),
(120,480,l)
);
},
{
closed = 1;
nodes = (
(440,480,l),
(440,360,l),
(360,360,l),
(360,480,l)
);
},
{
closed = 1;
nodes = (
(440,240,l),
(440,20,l),
(360,20,l),
(360,240,l)
);
},
{
closed = 1;
nodes = (
(240,820,l),
(360,160,l),
(360,20,l),
(320,20,l),
(200,640,l),
(200,820,l)
);
},
{
closed = 1;
nodes = (
(120,600,l),
(200,600,l),
(200,820,l),
(120,820,l)
);
},
{
closed = 1;
nodes = (
(440,820,l),
(440,600,l),
(360,600,l),
(360,820,l)
);
}
);
width = 560;
}
);
unicode = 78;
},
{
glyphname = O;
lastChange = "2024-12-18 09:56:02 +0000";
layers = (
{
background = {
shapes = (
{
pos = (40,-460);
ref = _dot;
},
{
pos = (40,20);
ref = _dot;
},
{
pos = (40,-220);
ref = _dot;
},
{
pos = (-200,-460);
ref = _dot;
},
{
pos = (-200,20);
ref = _dot;
},
{
pos = (-200,-220);
ref = _dot;
}
);
};
layerId = m01;
shapes = (
{
alignment = -1;
pos = (40,-220);
ref = _dot;
},
{
alignment = -1;
pos = (-200,20);
ref = _dot;
},
{
alignment = -1;
pos = (-200,-460);
ref = _dot;
},
{
closed = 1;
nodes = (
(120,120,l),
(200,120,l),
(200,480,l),
(120,480,l)
);
},
{
closed = 1;
nodes = (
(220,20,l),
(360,20,l),
(360,100,l),
(220,100,l)
);
},
{
closed = 1;
nodes = (
(360,20,l),
(440,100,l),
(440,240,l),
(360,240,l)
);
},
{
closed = 1;
nodes = (
(360,360,l),
(440,360,l),
(440,740,l),
(360,820,l)
);
},
{
closed = 1;
nodes = (
(200,740,l),
(360,740,l),
(360,820,l),
(200,820,l)
);
},
{
closed = 1;
nodes = (
(120,600,l),
(200,600,l),
(200,820,l),
(120,740,l)
);
}
);
width = 560;
}
);
unicode = 79;
},
{
glyphname = Odieresis;
lastChange = "2024-12-18 09:57:27 +0000";
layers = (
{
background = {
shapes = (
{
pos = (40,-460);
ref = _dot;
},
{
pos = (-200,-460);
ref = _dot;
},
{
pos = (-200,20);
ref = _dot;
},
{
pos = (-200,-220);
ref = _dot;
},
{
pos = (40,20);
ref = _dot;
},
{
pos = (40,-220);
ref = _dot;
}
);
};
layerId = m01;
shapes = (
{
closed = 1;
nodes = (
(440,600,l),
(440,740,l),
(360,740,l),
(360,600,l)
);
},
{
closed = 1;
nodes = (
(200,60,l),
(200,240,l),
(120,240,l),
(120,60,l),
(160,20,l)
);
},
{
closed = 1;
nodes = (
(340,20,l),
(340,100,l),
(160,100,l),
(160,20,l)
);
},
{
alignment = -1;
pos = (40,-460);
ref = _dot;
},
{
alignment = -1;
pos = (-200,-220);
ref = _dot;
},
{
closed = 1;
nodes = (
(200,360,l),
(200,780,l),
(160,820,l),
(120,760,l),
(120,360,l)
);
},
{
closed = 1;
nodes = (
(440,740,l),
(400,820,l),
(160,820,l),
(160,740,l)
);
},
{
alignment = -1;
pos = (40,20);
ref = _dot;
},
{
pos = (20,260);
ref = dieresis;
},
{
closed = 1;
nodes = (
(360,480,l),
(360,120,l),
(440,120,l),
(440,480,l)
);
}
);
width = 560;
}
);
unicode = 214;
},
{
glyphname = P;
lastChange = "2024-12-18 09:58:59 +0000";
layers = (
{
background = {
shapes = (
{
pos = (40,-460);
ref = _dot;
},
{
pos = (40,20);
ref = _dot;
},
{
pos = (40,-220);
ref = _dot;
},
{
pos = (-200,-460);
ref = _dot;
},
{
pos = (-200,20);
ref = _dot;
},
{
pos = (-200,-220);
ref = _dot;
}
);
};
hints = (
{
name = "_corner.leftSerif-TOP";
origin = (0,3);
type = Corner;
}
);
layerId = m01;
shapes = (
{
closed = 1;
nodes = (
(120,600,l),
(200,600,l),
(200,820,l),
(120,820,l)
);
},
{
closed = 1;
nodes = (
(220,260,l),
(380,260,l),
(440,340,l),
(220,340,l)
);
},
{
closed = 1;
nodes = (
(360,340,l),
(440,340,l),
(440,480,l),
(360,480,l)
);
},
{
closed = 1;
nodes = (
(200,740,l),
(360,740,l),
(360,820,l),
(200,820,l)
);
},
{
closed = 1;
nodes = (
(200,360,l),
(200,480,l),
(120,480,l),
(120,360,l)
);
},
{
pos = (-200,-460);
ref = _dot;
},
{
pos = (40,20);
ref = _dot;
},
{
pos = (-200,-220);
ref = _dot;
},
{
pos = (-200,20);
ref = _dot;
},
{
pos = (-60,-180);
ref = "_corner.Serif.left_wBraille-BOTTOM";
},
{
pos = (80,-180);
ref = "_corner.Serif.right_wBraille-BOTTOM";
},
{
closed = 1;
nodes = (
(360,820,l),
(360,600,l),
(440,600,l),
(440,740,l)
);
},
{
closed = 1;
nodes = (
(120,240,l),
(120,120,l),
(200,120,l),
(200,240,l)
);
}
);
width = 560;
}
);
unicode = 80;
},
{
glyphname = Q;
lastChange = "2024-12-18 09:59:50 +0000";
layers = (
{
background = {
shapes = (
{
pos = (40,-460);
ref = _dot;
},
{
pos = (40,20);
ref = _dot;
},
{
pos = (40,-220);
ref = _dot;
},
{
pos = (-200,-460);
ref = _dot;
},
{
pos = (-200,20);
ref = _dot;
},
{
pos = (-200,-220);
ref = _dot;
}
);
};
layerId = m01;
shapes = (
{
closed = 1;
nodes = (
(120,600,l),
(200,600,l),
(200,820,l),
(120,740,l)
);
},
{
closed = 1;
nodes = (
(220,20,l),
(380,20,l),
(400,100,l),
(220,100,l)
);
},
{
closed = 1;
nodes = (
(360,20,l),
(380,20,l),
(440,100,l),
(440,240,l),
(360,240,l)
);
},
{
closed = 1;
nodes = (
(360,600,l),
(440,600,l),
(440,740,l),
(360,820,l)
);
},
{
closed = 1;
nodes = (
(200,740,l),
(360,740,l),
(360,820,l),
(200,820,l)
);
},
{
closed = 1;
nodes = (
(120,120,l),
(200,120,l),
(200,240,l),
(120,240,l)
);
},
{
pos = (-200,-460);
ref = _dot;
},
{
pos = (-200,20);
ref = _dot;
},
{
pos = (40,20);
ref = _dot;
},
{
pos = (-200,-220);
ref = _dot;
},
{
pos = (40,-220);
ref = _dot;
},
{
closed = 1;
nodes = (
(240,-40,l),
(320,-40,l),
(320,200,l),
(240,200,l)
);
},
{
closed = 1;
nodes = (
(120,360,l),
(200,360,l),
(200,480,l),
(120,480,l)
);
},
{
closed = 1;
nodes = (
(360,360,l),
(440,360,l),
(440,480,l),
(360,480,l)
);
}
);
width = 560;
}
);
unicode = 81;
},
{
glyphname = R;
lastChange = "2024-12-24 12:11:40 +0000";
layers = (
{
background = {
shapes = (
{
pos = (40,-460);
ref = _dot;
},
{
pos = (40,20);
ref = _dot;
},
{
pos = (40,-220);
ref = _dot;
},
{
pos = (-200,-460);
ref = _dot;
},
{
pos = (-200,20);
ref = _dot;
},
{
pos = (-200,-220);
ref = _dot;
}
);
};
hints = (
{
name = _corner.rightSerif;
origin = (6,0);
type = Corner;
},
{
name = "_corner.leftSerif-TOP";
origin = (8,2);
type = Corner;
}
);
layerId = m01;
shapes = (
{
alignment = -1;
pos = (40,-220);
ref = _dot;
},
{
alignment = -1;
pos = (-200,20);
ref = _dot;
},
{
alignment = -1;
pos = (-200,-220);
ref = _dot;
},
{
alignment = -1;
pos = (-200,-460);
ref = _dot;
},
{
closed = 1;
nodes = (
(440,400,l),
(440,740,l),
(360,740,l),
(360,700,l),
(360,360,l),
(380,360,l)
);
},
{
closed = 1;
nodes = (
(440,740,l),
(360,820,l),
(200,820,l),
(200,740,l)
);
},
{
closed = 1;
nodes = (
(440,20,l),
(400,200,l),
(340,240,l),
(280,240,l),
(360,20,l)
);
},
{
closed = 1;
nodes = (
(340,260,l),
(340,340,l),
(220,340,l),
(220,260,l)
);
},
{
closed = 1;
nodes = (
(200,600,l),
(200,820,l),
(120,820,l),
(120,600,l)
);
},
{
closed = 1;
nodes = (
(200,120,l),
(200,240,l),
(120,240,l),
(120,120,l)
);
},
{
pos = (-40,-180);
ref = "_corner.Serif.left_wBraille-BOTTOM";
},
{
pos = (60,-180);
ref = "_corner.Serif.right_wBraille-BOTTOM";
},
{
closed = 1;
nodes = (
(120,480,l),
(120,360,l),
(200,360,l),
(200,480,l)
);
}
);
width = 560;
}
);
unicode = 82;
},
{
glyphname = S;
lastChange = "2024-12-18 10:04:44 +0000";
layers = (
{
associatedMasterId = m01;
background = {
shapes = (
{
pos = (40,-460);
ref = _dot;
},
{
pos = (40,20);
ref = _dot;
},
{
pos = (40,-220);
ref = _dot;
},
{
pos = (-200,-460);
ref = _dot;
},
{
pos = (-200,20);
ref = _dot;
},
{
pos = (-200,-220);
ref = _dot;
}
);
};
layerId = "470DE3D6-CD47-4EFB-A2AD-219FBEAF42F3";
name = "18. Dez. 24, 11:04";
shapes = (
{
alignment = -1;
pos = (-200,-460);
ref = _dot;
},
{
alignment = -1;
pos = (-200,-220);
ref = _dot;
},
{
alignment = -1;
pos = (40,20);
ref = _dot;
},
{
closed = 1;
nodes = (
(200,360,l),
(200,660,l),
(200,700,l),
(120,700,l),
(120,360,l)
);
},
{
closed = 1;
nodes = (
(360,780,l),
(200,780,l),
(120,700,l),
(360,700,l)
);
},
{
closed = 1;
nodes = (
(360,260,l),
(360,340,l),
(220,340,l),
(220,260,l)
);
},
{
closed = 1;
nodes = (
(440,100,l),
(440,260,l),
(360,340,l),
(360,100,l)
);
},
{
closed = 1;
nodes = (
(360,20,l),
(440,100,l),
(220,100,l),
(220,20,l)
);
},
{
closed = 1;
nodes = (
(440,700,l),
(440,600,l),
(380,600,l),
(360,620,l),
(360,780,l)
);
}
);
width = 560;
},
{
background = {
shapes = (
{
pos = (40,-460);
ref = _dot;
},
{
pos = (40,20);
ref = _dot;
},
{
pos = (40,-220);
ref = _dot;
},
{
pos = (-200,-460);
ref = _dot;
},
{
pos = (-200,20);
ref = _dot;
},
{
pos = (-200,-220);
ref = _dot;
}
);
};
layerId = m01;
name = Regular;
shapes = (
{
alignment = -1;
pos = (-200,-460);
ref = _dot;
},
{
alignment = -1;
pos = (-200,-220);
ref = _dot;
},
{
alignment = -1;
pos = (40,20);
ref = _dot;
},
{
closed = 1;
nodes = (
(200,580,l),
(200,700,l),
(200,740,l),
(120,740,l),
(120,580,l)
);
},
{
closed = 1;
nodes = (
(360,820,l),
(200,820,l),
(120,740,l),
(360,740,l)
);
},
{
closed = 1;
nodes = (
(340,500,l),
(340,580,l),
(120,580,l),
(200,500,l)
);
},
{
closed = 1;
nodes = (
(440,100,l),
(440,480,l),
(360,480,l),
(360,460,l),
(360,100,l)
);
},
{
closed = 1;
nodes = (
(360,20,l),
(440,100,l),
(220,100,l),
(220,20,l)
);
},
{
closed = 1;
nodes = (
(440,740,l),
(440,640,l),
(380,640,l),
(360,660,l),
(360,820,l)
);
},
{
closed = 1;
nodes = (
(200,240,l),
(200,120,l),
(120,120,l),
(120,240,l)
);
}
);
width = 560;
}
);
unicode = 83;
},
{
glyphname = Germandbls;
lastChange = "2024-12-24 09:59:46 +0000";
layers = (
{
background = {
shapes = (
{
pos = (40,-460);
ref = _dot;
},
{
pos = (40,20);
ref = _dot;
},
{
pos = (40,-220);
ref = _dot;
},
{
pos = (-200,-460);
ref = _dot;
},
{
pos = (-200,20);
ref = _dot;
},
{
pos = (-200,-220);
ref = _dot;
}
);
};
hints = (
{
name = "_corner.leftSerif-TOP";
origin = (4,2);
type = Corner;
}
);
layerId = m01;
shapes = (
{
alignment = -1;
pos = (-200,-460);
ref = _dot;
},
{
alignment = -1;
pos = (40,-460);
ref = _dot;
},
{
alignment = -1;
pos = (40,20);
ref = _dot;
},
{
alignment = -1;
pos = (-200,-220);
ref = _dot;
},
{
closed = 1;
nodes = (
(200,360,l),
(200,820,l),
(120,740,l),
(120,360,l)
);
},
{
closed = 1;
nodes = (
(360,740,l),
(360,820,l),
(200,820,l),
(180,740,l)
);
},
{
closed = 1;
nodes = (
(200,240,l),
(200,120,l),
(120,120,l),
(120,240,l)
);
},
{
closed = 1;
nodes = (
(440,740,l),
(440,680,l),
(360,600,l),
(360,820,l)
);
},
{
closed = 1;
nodes = (
(260,560,l),
(320,500,l),
(340,500,l),
(340,580,l),
(260,580,l)
);
},
{
closed = 1;
nodes = (
(440,420,l),
(440,120,l),
(360,120,l),
(360,480,l)
);
},
{
closed = 1;
nodes = (
(340,40,l),
(340,20,l),
(280,100,l),
(340,100,l)
);
}
);
width = 600;
}
);
unicode = 7838;
},
{
glyphname = T;
lastChange = "2024-12-18 10:05:22 +0000";
layers = (
{
background = {
shapes = (
{
pos = (40,-460);
ref = _dot;
},
{
pos = (40,20);
ref = _dot;
},
{
pos = (40,-220);
ref = _dot;
},
{
pos = (-200,-460);
ref = _dot;
},
{
pos = (-200,20);
ref = _dot;
},
{
pos = (-200,-220);
ref = _dot;
}
);
};
hints = (
{
name = "_corner.leftSerif-TOP";
origin = (5,3);
type = Corner;
},
{
name = _corner.leftSerif;
origin = (5,0);
type = Corner;
}
);
layerId = m01;
shapes = (
{
alignment = -1;
pos = (40,20);
ref = _dot;
},
{
alignment = -1;
pos = (-200,-460);
ref = _dot;
},
{
alignment = -1;
pos = (-200,-220);
ref = _dot;
},
{
alignment = -1;
pos = (40,-220);
ref = _dot;
},
{
closed = 1;
nodes = (
(320,20,l),
(320,820,l),
(240,820,l),
(240,20,l)
);
},
{
closed = 1;
nodes = (
(460,740,l),
(460,820,l),
(100,820,l),
(100,740,l)
);
}
);
width = 560;
}
);
unicode = 84;
},
{
glyphname = U;
lastChange = "2024-12-18 10:06:52 +0000";
layers = (
{
background = {
shapes = (
{
pos = (40,-460);
ref = _dot;
},
{
pos = (40,20);
ref = _dot;
},
{
pos = (40,-220);
ref = _dot;
},
{
pos = (-200,-460);
ref = _dot;
},
{
pos = (-200,20);
ref = _dot;
},
{
pos = (-200,-220);
ref = _dot;
}
);
};
hints = (
{
name = "_corner.rightSerif-TOP";
origin = (4,2);
type = Corner;
},
{
name = "_corner.leftSerif-TOP";
origin = (6,1);
type = Corner;
}
);
layerId = m01;
shapes = (
{
alignment = -1;
pos = (40,-460);
ref = _dot;
},
{
alignment = -1;
pos = (-200,20);
ref = _dot;
},
{
alignment = -1;
pos = (-200,-460);
ref = _dot;
},
{
closed = 1;
nodes = (
(200,480,l),
(200,120,l),
(157,120,l),
(120,140,l),
(120,480,l)
);
},
{
closed = 1;
nodes = (
(399,120,l),
(440,140,l),
(440,820,l),
(360,820,l),
(360,120,l)
);
},
{
closed = 1;
nodes = (
(220,20,l),
(340,20,l),
(340,100,l),
(220,100,l)
);
},
{
closed = 1;
nodes = (
(200,820,l),
(120,820,l),
(120,600,l),
(200,600,l)
);
}
);
width = 560;
}
);
unicode = 85;
},
{
glyphname = Udieresis;
lastChange = "2024-12-18 10:07:56 +0000";
layers = (
{
background = {
shapes = (
{
pos = (40,-460);
ref = _dot;
},
{
pos = (40,20);
ref = _dot;
},
{
pos = (40,-220);
ref = _dot;
},
{
pos = (-200,-460);
ref = _dot;
},
{
pos = (-200,20);
ref = _dot;
},
{
pos = (-200,-220);
ref = _dot;
}
);
};
hints = (
{
name = "_corner.rightSerif-TOP";
origin = (0,1);
type = Corner;
},
{
name = "_corner.leftSerif-TOP";
origin = (10,2);
type = Corner;
}
);
layerId = m01;
shapes = (
{
closed = 1;
nodes = (
(440,360,l),
(440,820,l),
(360,820,l),
(360,360,l)
);
},
{
closed = 1;
nodes = (
(340,20,l),
(340,100,l),
(120,100,l),
(160,20,l)
);
},
{
closed = 1;
nodes = (
(200,240,l),
(120,240,l),
(120,100,l),
(200,60,l)
);
},
{
alignment = -1;
pos = (40,-460);
ref = _dot;
},
{
alignment = -1;
pos = (-200,-220);
ref = _dot;
},
{
closed = 1;
nodes = (
(200,360,l),
(200,480,l),
(120,480,l),
(120,360,l)
);
},
{
closed = 1;
nodes = (
(440,120,l),
(440,240,l),
(360,240,l),
(360,120,l)
);
},
{
alignment = -1;
pos = (-200,20);
ref = _dot;
},
{
alignment = -1;
pos = (40,-220);
ref = _dot;
},
{
pos = (20,260);
ref = dieresis;
},
{
closed = 1;
nodes = (
(200,600,l),
(200,820,l),
(120,820,l),
(120,600,l)
);
}
);
width = 560;
}
);
unicode = 220;
},
{
glyphname = V;
lastChange = "2024-12-18 10:08:17 +0000";
layers = (
{
background = {
shapes = (
{
pos = (40,-460);
ref = _dot;
},
{
pos = (40,20);
ref = _dot;
},
{
pos = (40,-220);
ref = _dot;
},
{
pos = (-200,-460);
ref = _dot;
},
{
pos = (-200,20);
ref = _dot;
},
{
pos = (-200,-220);
ref = _dot;
}
);
};
layerId = m01;
shapes = (
{
closed = 1;
nodes = (
(380,120,l),
(440,220,l),
(440,820,l),
(360,820,l),
(360,120,l)
);
},
{
alignment = -1;
pos = (-200,-460);
ref = _dot;
},
{
closed = 1;
nodes = (
(200,120,l),
(200,240,l),
(120,240,l),
(120,220,l),
(180,120,l)
);
},
{
closed = 1;
nodes = (
(340,40,l),
(340,160,l),
(280,80,l),
(220,160,l),
(220,40,l),
(280,-40,l)
);
},
{
closed = 1;
nodes = (
(220,120,l),
(220,160,l),
(180,220,l),
(180,120,l)
);
},
{
alignment = -1;
pos = (40,-460);
ref = _dot;
},
{
alignment = -1;
pos = (-200,-220);
ref = _dot;
},
{
closed = 1;
nodes = (
(380,120,l),
(380,220,l),
(340,160,l),
(340,120,l)
);
},
{
closed = 1;
nodes = (
(200,360,l),
(200,480,l),
(120,480,l),
(120,360,l)
);
},
{
alignment = -1;
pos = (-200,20);
ref = _dot;
},
{
closed = 1;
nodes = (
(200,600,l),
(200,820,l),
(120,820,l),
(120,600,l)
);
}
);
width = 560;
}
);
unicode = 86;
},
{
glyphname = W;
lastChange = "2024-12-18 10:08:55 +0000";
layers = (
{
background = {
shapes = (
{
pos = (40,-460);
ref = _dot;
},
{
pos = (40,20);
ref = _dot;
},
{
pos = (40,-220);
ref = _dot;
},
{
pos = (-200,-460);
ref = _dot;
},
{
pos = (-200,20);
ref = _dot;
},
{
pos = (-200,-220);
ref = _dot;
}
);
};
layerId = m01;
shapes = (
{
closed = 1;
nodes = (
(240,20,l),
(280,80,l),
(320,20,l),
(320,120,l),
(280,240,l),
(240,120,l),
(200,200,l),
(200,240,l),
(120,240,l),
(120,180,l),
(220,20,l)
);
},
{
alignment = -1;
pos = (40,-460);
ref = _dot;
},
{
alignment = -1;
pos = (-200,-220);
ref = _dot;
},
{
closed = 1;
nodes = (
(380,140,l),
(440,180,l),
(440,240,l),
(360,240,l),
(360,140,l)
);
},
{
closed = 1;
nodes = (
(200,360,l),
(200,820,l),
(120,820,l),
(120,360,l)
);
},
{
alignment = -1;
pos = (40,-220);
ref = _dot;
},
{
closed = 1;
nodes = (
(440,360,l),
(440,480,l),
(360,480,l),
(360,360,l)
);
},
{
alignment = -1;
pos = (40,20);
ref = _dot;
},
{
closed = 1;
nodes = (
(440,600,l),
(440,820,l),
(360,820,l),
(360,600,l)
);
}
);
width = 560;
}
);
unicode = 87;
},
{
glyphname = X;
lastChange = "2024-12-24 12:01:10 +0000";
layers = (
{
background = {
shapes = (
{
pos = (40,-460);
ref = _dot;
},
{
pos = (40,20);
ref = _dot;
},
{
pos = (40,-220);
ref = _dot;
},
{
pos = (-200,-460);
ref = _dot;
},
{
pos = (-200,20);
ref = _dot;
},
{
pos = (-200,-220);
ref = _dot;
}
);
};
hints = (
{
name = "_corner.leftSerif-TOP";
origin = (8,2);
type = Corner;
},
{
name = "_corner.rightSerif-TOP";
origin = (9,1);
type = Corner;
}
);
layerId = m01;
shapes = (
{
alignment = -1;
pos = (40,-460);
ref = _dot;
},
{
alignment = -1;
pos = (-200,20);
ref = _dot;
},
{
alignment = -1;
pos = (40,20);
ref = _dot;
},
{
alignment = -1;
pos = (-200,-460);
ref = _dot;
},
{
closed = 1;
nodes = (
(220,480,l),
(160,480,l),
(360,260,l),
(440,300,l),
(220,540,l)
);
},
{
closed = 1;
nodes = (
(440,120,l),
(440,300,l),
(360,260,l),
(360,120,l)
);
},
{
closed = 1;
nodes = (
(120,300,l),
(200,260,l),
(400,480,l),
(340,480,l),
(340,540,l)
);
},
{
closed = 1;
nodes = (
(200,260,l),
(120,300,l),
(120,120,l),
(200,120,l)
);
},
{
closed = 1;
nodes = (
(200,600,l),
(200,820,l),
(120,820,l),
(120,600,l)
);
},
{
closed = 1;
nodes = (
(440,600,l),
(440,820,l),
(360,820,l),
(360,600,l)
);
},
{
pos = (-60,-180);
ref = "_corner.Serif.left_wBraille-BOTTOM";
},
{
pos = (300,-180);
ref = "_corner.Serif.right_wBraille-BOTTOM";
}
);
width = 560;
},
{
associatedMasterId = m01;
background = {
shapes = (
{
pos = (40,-460);
ref = _dot;
},
{
pos = (40,20);
ref = _dot;
},
{
pos = (40,-220);
ref = _dot;
},
{
pos = (-200,-460);
ref = _dot;
},
{
pos = (-200,20);
ref = _dot;
},
{
pos = (-200,-220);
ref = _dot;
}
);
};
layerId = "CADF5E69-0533-4E88-82AD-9D3FFCB05F01";
name = "18. Dez. 24, 11:09";
shapes = (
{
alignment = -1;
pos = (40,-460);
ref = _dot;
},
{
alignment = -1;
pos = (-200,20);
ref = _dot;
},
{
alignment = -1;
pos = (40,20);
ref = _dot;
},
{
alignment = -1;
pos = (-200,-460);
ref = _dot;
},
{
closed = 1;
nodes = (
(240,80,l),
(220,80,l),
(220,120,l),
(160,120,l),
(320,520,l),
(340,520,l),
(340,480,l),
(400,480,l)
);
},
{
closed = 1;
nodes = (
(220,480,l),
(220,520,l),
(240,520,l),
(400,120,l),
(340,120,l),
(340,80,l),
(320,80,l),
(160,480,l)
);
}
);
width = 560;
},
{
associatedMasterId = m01;
background = {
shapes = (
{
pos = (40,-460);
ref = _dot;
},
{
pos = (40,20);
ref = _dot;
},
{
pos = (40,-220);
ref = _dot;
},
{
pos = (-200,-460);
ref = _dot;
},
{
pos = (-200,20);
ref = _dot;
},
{
pos = (-200,-220);
ref = _dot;
}
);
};
layerId = "8BB17892-8391-422E-B65D-23BF00E5C6C9";
name = "24. Dez. 24, 11:30";
shapes = (
{
alignment = -1;
pos = (40,-460);
ref = _dot;
},
{
alignment = -1;
pos = (-200,20);
ref = _dot;
},
{
alignment = -1;
pos = (40,20);
ref = _dot;
},
{
alignment = -1;
pos = (-200,-460);
ref = _dot;
},
{
closed = 1;
nodes = (
(240,80,l),
(220,80,l),
(220,120,l),
(160,120,l),
(320,520,l),
(340,520,l),
(340,480,l),
(400,480,l)
);
},
{
closed = 1;
nodes = (
(220,480,l),
(220,520,l),
(240,520,l),
(400,120,l),
(340,120,l),
(340,80,l),
(320,80,l),
(160,480,l)
);
},
{
closed = 1;
nodes = (
(200,600,l),
(200,820,l),
(120,820,l),
(120,600,l)
);
},
{
closed = 1;
nodes = (
(440,600,l),
(440,820,l),
(360,820,l),
(360,600,l)
);
}
);
width = 560;
},
{
associatedMasterId = m01;
background = {
shapes = (
{
pos = (40,-460);
ref = _dot;
},
{
pos = (40,20);
ref = _dot;
},
{
pos = (40,-220);
ref = _dot;
},
{
pos = (-200,-460);
ref = _dot;
},
{
pos = (-200,20);
ref = _dot;
},
{
pos = (-200,-220);
ref = _dot;
}
);
};
layerId = "8C52BD57-57FA-4E18-8631-444027CB28FF";
name = "24. Dez. 24, 11:31";
shapes = (
{
alignment = -1;
pos = (40,-460);
ref = _dot;
},
{
alignment = -1;
pos = (-200,20);
ref = _dot;
},
{
alignment = -1;
pos = (40,20);
ref = _dot;
},
{
alignment = -1;
pos = (-200,-460);
ref = _dot;
},
{
closed = 1;
nodes = (
(240,80,l),
(220,80,l),
(220,120,l),
(160,120,l),
(380,820,l),
(400,820,l),
(460,820,l),
(460,780,l)
);
},
{
closed = 1;
nodes = (
(120,820,l),
(180,820,l),
(200,820,l),
(400,120,l),
(340,120,l),
(340,80,l),
(320,80,l),
(120,780,l)
);
}
);
width = 560;
},
{
associatedMasterId = m01;
background = {
shapes = (
{
pos = (40,-460);
ref = _dot;
},
{
pos = (40,20);
ref = _dot;
},
{
pos = (40,-220);
ref = _dot;
},
{
pos = (-200,-460);
ref = _dot;
},
{
pos = (-200,20);
ref = _dot;
},
{
pos = (-200,-220);
ref = _dot;
}
);
};
layerId = "A2D810BF-07B8-4313-962D-99809FE5E832";
name = "24. Dez. 24, 12:55";
shapes = (
{
alignment = -1;
pos = (40,-460);
ref = _dot;
},
{
alignment = -1;
pos = (-200,20);
ref = _dot;
},
{
alignment = -1;
pos = (40,20);
ref = _dot;
},
{
alignment = -1;
pos = (-200,-460);
ref = _dot;
},
{
closed = 1;
nodes = (
(400,600,l),
(340,600,l),
(340,480,l),
(240,80,l),
(220,80,l),
(220,120,l),
(160,120,l),
(360,820,l),
(380,820,l),
(440,820,l),
(440,780,l)
);
},
{
closed = 1;
nodes = (
(120,820,l),
(180,820,l),
(200,820,l),
(400,120,l),
(340,120,l),
(340,80,l),
(320,80,l),
(220,480,l),
(220,600,l),
(172,599,l),
(120,800,l)
);
}
);
width = 560;
}
);
unicode = 88;
},
{
glyphname = Y;
lastChange = "2024-12-18 10:18:36 +0000";
layers = (
{
background = {
shapes = (
{
pos = (-200,-220);
ref = _dot;
}
);
};
hints = (
{
name = "_corner.leftSerif-TOP";
origin = (10,3);
type = Corner;
},
{
name = "_corner.leftSerif-TOP";
origin = (11,3);
type = Corner;
}
);
layerId = m01;
shapes = (
{
alignment = -1;
pos = (-200,-460);
ref = _dot;
},
{
alignment = -1;
pos = (40,-460);
ref = _dot;
},
{
alignment = -1;
pos = (-200,20);
ref = _dot;
},
{
alignment = -1;
pos = (40,-220);
ref = _dot;
},
{
alignment = -1;
pos = (40,20);
ref = _dot;
},
{
closed = 1;
nodes = (
(340,100,l),
(340,20,l),
(220,20,l),
(220,100,l)
);
},
{
closed = 1;
nodes = (
(440,240,l),
(440,120,l),
(360,120,l),
(360,240,l)
);
},
{
closed = 1;
nodes = (
(440,480,l),
(440,360,l),
(360,360,l),
(360,480,l)
);
},
{
closed = 1;
nodes = (
(200,480,l),
(200,340,l),
(120,340,l),
(120,480,l)
);
},
{
closed = 1;
nodes = (
(340,340,l),
(340,260,l),
(200,260,l),
(120,340,l)
);
},
{
closed = 1;
nodes = (
(120,600,l),
(200,600,l),
(200,820,l),
(120,820,l)
);
},
{
closed = 1;
nodes = (
(360,600,l),
(440,600,l),
(440,820,l),
(360,820,l)
);
}
);
width = 560;
},
{
associatedMasterId = m01;
background = {
shapes = (
{
pos = (60,-460);
ref = _dot;
},
{
pos = (60,20);
ref = _dot;
},
{
pos = (60,-220);
ref = _dot;
},
{
pos = (-180,-460);
ref = _dot;
},
{
pos = (-180,20);
ref = _dot;
},
{
pos = (-180,-220);
ref = _dot;
}
);
};
layerId = "03EABA37-CCF9-4A5F-92DA-7CD52AD2B5A1";
name = "8. Dez. 24, 13:36";
shapes = (
{
closed = 1;
nodes = (
(340,260,l),
(340,340,l),
(140,340,l),
(200,260,l)
);
},
{
alignment = -1;
pos = (-160,-460);
ref = _dot;
},
{
closed = 1;
nodes = (
(340,20,l),
(340,100,l),
(260,100,l),
(260,20,l)
);
},
{
alignment = -1;
pos = (80,-460);
ref = _dot;
},
{
closed = 1;
nodes = (
(220,460,l),
(140,460,l),
(140,340,l),
(220,300,l)
);
},
{
closed = 1;
nodes = (
(460,140,l),
(460,220,l),
(380,220,l),
(380,140,l)
);
},
{
alignment = -1;
pos = (-160,20);
ref = _dot;
},
{
alignment = -1;
pos = (80,-220);
ref = _dot;
},
{
closed = 1;
nodes = (
(460,380,l),
(460,460,l),
(380,460,l),
(380,380,l)
);
},
{
alignment = -1;
pos = (80,20);
ref = _dot;
}
);
width = 600;
},
{
associatedMasterId = m01;
background = {
shapes = (
{
pos = (-200,-220);
ref = _dot;
}
);
};
layerId = "A75C3772-AB17-45F1-922D-F8AFB2A607F3";
name = "18. Dez. 24, 11:15";
shapes = (
{
closed = 1;
nodes = (
(320,300,l),
(220,500,l),
(200,480,l),
(160,480,l),
(160,460,l),
(240,300,l)
);
},
{
alignment = -1;
pos = (-200,-460);
ref = _dot;
},
{
closed = 1;
nodes = (
(320,20,l),
(320,300,l),
(240,300,l),
(240,20,l)
);
},
{
alignment = -1;
pos = (40,-460);
ref = _dot;
},
{
alignment = -1;
pos = (-200,20);
ref = _dot;
},
{
alignment = -1;
pos = (40,-220);
ref = _dot;
},
{
alignment = -1;
pos = (40,20);
ref = _dot;
},
{
closed = 1;
nodes = (
(400,460,l),
(400,480,l),
(360,480,l),
(340,500,l),
(240,300,l),
(320,300,l)
);
}
);
width = 560;
}
);
unicode = 89;
},
{
glyphname = Z;
lastChange = "2024-12-18 10:14:52 +0000";
layers = (
{
background = {
shapes = (
{
pos = (40,-460);
ref = _dot;
},
{
pos = (40,20);
ref = _dot;
},
{
pos = (40,-220);
ref = _dot;
},
{
pos = (-200,-460);
ref = _dot;
},
{
pos = (-200,20);
ref = _dot;
},
{
pos = (-200,-220);
ref = _dot;
}
);
};
layerId = m01;
shapes = (
{
closed = 1;
nodes = (
(200,120,l),
(240,160,l),
(440,720,l),
(440,820,l),
(360,820,l),
(360,740,l),
(120,120,l)
);
},
{
alignment = -1;
pos = (-200,-460);
ref = _dot;
},
{
closed = 1;
nodes = (
(340,20,l),
(340,100,l),
(220,100,l),
(220,20,l)
);
},
{
alignment = -1;
pos = (40,-460);
ref = _dot;
},
{
closed = 1;
nodes = (
(440,120,l),
(440,240,l),
(360,240,l),
(360,120,l)
);
},
{
alignment = -1;
pos = (-200,20);
ref = _dot;
},
{
alignment = -1;
pos = (40,-220);
ref = _dot;
},
{
closed = 1;
nodes = (
(400,740,l),
(400,820,l),
(180,820,l),
(180,740,l)
);
},
{
closed = 1;
nodes = (
(120,600,l),
(200,600,l),
(200,820,l),
(120,820,l)
);
}
);
width = 560;
}
);
unicode = 90;
},
{
glyphname = Adieresis_U;
lastChange = "2024-12-18 10:21:30 +0000";
layers = (
{
background = {
shapes = (
{
pos = (40,-460);
ref = _dot;
},
{
pos = (40,20);
ref = _dot;
},
{
pos = (40,-220);
ref = _dot;
},
{
pos = (-200,-460);
ref = _dot;
},
{
pos = (-200,20);
ref = _dot;
},
{
pos = (-200,-220);
ref = _dot;
},
{
pos = (40,-460);
ref = _dot;
},
{
pos = (40,20);
ref = _dot;
},
{
pos = (40,-220);
ref = _dot;
},
{
pos = (-200,-460);
ref = _dot;
},
{
pos = (-200,20);
ref = _dot;
},
{
pos = (-200,-220);
ref = _dot;
}
);
};
hints = (
{
name = "_corner.leftSerif-TOP";
origin = (4,2);
type = Corner;
}
);
layerId = m01;
shapes = (
{
alignment = -1;
pos = (-200,-460);
ref = _dot;
},
{
alignment = -1;
pos = (40,20);
ref = _dot;
},
{
closed = 1;
nodes = (
(200,120,l),
(200,740,l),
(120,740,l),
(120,120,l)
);
},
{
closed = 1;
nodes = (
(240,500,l),
(240,580,l),
(180,580,l),
(180,500,l)
);
},
{
closed = 1;
nodes = (
(240,740,l),
(240,820,l),
(120,820,l),
(120,740,l)
);
},
{
closed = 1;
nodes = (
(320,820,l),
(320,20,l),
(240,20,l),
(240,820,l)
);
},
{
closed = 1;
nodes = (
(440,480,l),
(440,100,l),
(360,20,l),
(360,480,l)
);
},
{
closed = 1;
nodes = (
(360,100,l),
(360,20,l),
(300,20,l),
(300,100,l)
);
},
{
closed = 1;
nodes = (
(200,960,l),
(200,880,l),
(120,880,l),
(120,960,l)
);
},
{
closed = 1;
nodes = (
(320,960,l),
(320,880,l),
(240,880,l),
(240,960,l)
);
},
{
closed = 1;
nodes = (
(440,820,l),
(440,600,l),
(360,600,l),
(360,820,l)
);
}
);
width = 560;
}
);
},
{
glyphname = a;
lastChange = "2024-12-25 11:25:34 +0000";
layers = (
{
background = {
shapes = (
{
pos = (40,-460);
ref = _dot;
},
{
pos = (-200,-460);
ref = _dot;
},
{
pos = (-200,20);
ref = _dot;
},
{
pos = (-200,-220);
ref = _dot;
},
{
pos = (40,20);
ref = _dot;
},
{
pos = (40,-220);
ref = _dot;
}
);
};
hints = (
{
name = _corner.rightSerif;
origin = (0,0);
type = Corner;
}
);
layerId = m01;
shapes = (
{
closed = 1;
nodes = (
(440,20,l),
(440,500,l),
(360,500,l),
(360,20,l)
);
},
{
closed = 1;
nodes = (
(320,20,l),
(360,60,l),
(360,100,l),
(200,100,l),
(200,20,l)
);
},
{
closed = 1;
nodes = (
(200,380,l),
(120,340,l),
(120,100,l),
(200,20,l)
);
},
{
closed = 1;
nodes = (
(360,340,l),
(360,400,l),
(320,420,l),
(180,420,l),
(120,340,l)
);
},
{
alignment = -1;
pos = (-200,20);
ref = _dot;
},
{
closed = 1;
nodes = (
(440,500,l),
(440,520,l),
(380,580,l),
(220,580,l),
(220,500,l)
);
}
);
width = 560;
}
);
unicode = 97;
},
{
glyphname = adieresis;
lastChange = "2024-12-17 13:43:13 +0000";
layers = (
{
background = {
shapes = (
{
pos = (40,-460);
ref = _dot;
},
{
pos = (-200,-460);
ref = _dot;
},
{
pos = (-200,20);
ref = _dot;
},
{
pos = (-200,-220);
ref = _dot;
},
{
pos = (40,20);
ref = _dot;
},
{
pos = (40,-220);
ref = _dot;
}
);
};
hints = (
{
name = _corner.rightSerif;
origin = (4,0);
type = Corner;
}
);
layerId = m01;
shapes = (
{
closed = 1;
nodes = (
(200,460,l),
(200,500,l),
(340,500,l),
(340,580,l),
(200,580,l),
(120,500,l),
(120,460,l)
);
},
{
alignment = -1;
pos = (-200,-460);
ref = _dot;
},
{
closed = 1;
nodes = (
(320,20,l),
(360,60,l),
(360,100,l),
(220,100,l),
(220,20,l)
);
},
{
closed = 1;
nodes = (
(200,120,l),
(200,380,l),
(120,340,l),
(120,120,l)
);
},
{
closed = 1;
nodes = (
(440,20,l),
(440,240,l),
(360,240,l),
(360,20,l)
);
},
{
closed = 1;
nodes = (
(360,340,l),
(360,400,l),
(320,420,l),
(180,420,l),
(120,340,l)
);
},
{
alignment = -1;
pos = (40,-220);
ref = _dot;
},
{
closed = 1;
nodes = (
(440,360,l),
(440,480,l),
(360,480,l),
(360,360,l)
);
},
{
alignment = -1;
pos = (40,20);
ref = _dot;
},
{
pos = (20,0);
ref = dieresis;
}
);
width = 560;
}
);
unicode = 228;
},
{
glyphname = au;
lastChange = "2024-12-17 17:33:40 +0000";
layers = (
{
background = {
shapes = (
{
pos = (40,-460);
ref = _dot;
},
{
pos = (40,20);
ref = _dot;
},
{
pos = (40,-220);
ref = _dot;
},
{
pos = (-200,-460);
ref = _dot;
},
{
pos = (-200,20);
ref = _dot;
},
{
pos = (-200,-220);
ref = _dot;
},
{
pos = (40,-460);
ref = _dot;
},
{
pos = (40,20);
ref = _dot;
},
{
pos = (40,-220);
ref = _dot;
},
{
pos = (-200,-460);
ref = _dot;
},
{
pos = (-200,20);
ref = _dot;
},
{
pos = (-200,-220);
ref = _dot;
}
);
};
hints = (
{
name = "_corner.rightSerif-TOP";
origin = (0,1);
type = Corner;
}
);
layerId = m01;
shapes = (
{
closed = 1;
nodes = (
(440,120,l),
(440,580,l),
(360,580,l),
(360,120,l)
);
},
{
closed = 1;
nodes = (
(240,60,l),
(240,100,l),
(200,100,l),
(200,20,l)
);
},
{
closed = 1;
nodes = (
(200,380,l),
(120,340,l),
(120,100,l),
(200,20,l)
);
},
{
closed = 1;
nodes = (
(340,20,l),
(340,100,l),
(300,140,l),
(300,20,l)
);
},
{
alignment = -1;
pos = (40,-460);
ref = _dot;
},
{
closed = 1;
nodes = (
(240,340,l),
(240,400,l),
(200,420,l),
(180,420,l),
(120,340,l)
);
},
{
closed = 1;
nodes = (
(320,20,l),
(320,500,l),
(240,500,l),
(240,20,l)
);
},
{
alignment = -1;
pos = (-200,20);
ref = _dot;
},
{
closed = 1;
nodes = (
(320,500,l),
(320,580,l),
(260,580,l),
(220,580,l),
(220,500,l)
);
},
{
closed = 1;
nodes = (
(200,480,l),
(200,460,l),
(180,440,l),
(120,440,l),
(120,480,l)
);
}
);
width = 560;
},
{
associatedMasterId = m01;
background = {
shapes = (
{
pos = (80,-460);
ref = _dot;
},
{
pos = (80,20);
ref = _dot;
},
{
pos = (80,-220);
ref = _dot;
},
{
pos = (-160,-460);
ref = _dot;
},
{
pos = (-160,20);
ref = _dot;
},
{
pos = (-160,-220);
ref = _dot;
},
{
pos = (80,-460);
ref = _dot;
},
{
pos = (80,20);
ref = _dot;
},
{
pos = (80,-220);
ref = _dot;
},
{
pos = (-160,-460);
ref = _dot;
},
{
pos = (-160,20);
ref = _dot;
},
{
pos = (-160,-220);
ref = _dot;
}
);
};
layerId = "928D9513-DBB0-4959-A2DB-BA1CA2C0F40D";
name = "13. Dez. 24, 16:43";
shapes = (
{
closed = 1;
nodes = (
(580,20,l),
(580,580,l),
(500,580,l),
(500,20,l)
);
},
{
closed = 1;
nodes = (
(220,20,l),
(260,60,l),
(260,100,l),
(100,100,l),
(100,20,l)
);
},
{
closed = 1;
nodes = (
(100,380,l),
(20,340,l),
(20,100,l),
(100,20,l)
);
},
{
closed = 1;
nodes = (
(380,20,l),
(380,100,l),
(300,100,l),
(300,20,l)
);
},
{
alignment = -1;
pos = (80,-460);
ref = _dot;
},
{
closed = 1;
nodes = (
(260,340,l),
(260,400,l),
(220,420,l),
(80,420,l),
(20,340,l)
);
},
{
closed = 1;
nodes = (
(340,20,l),
(340,500,l),
(260,500,l),
(260,20,l)
);
},
{
closed = 1;
nodes = (
(100,460,l),
(100,500,l),
(140,500,l),
(140,580,l),
(100,580,l),
(20,500,l),
(20,460,l)
);
},
{
alignment = -1;
pos = (-160,20);
ref = _dot;
},
{
closed = 1;
nodes = (
(340,500,l),
(340,560,l),
(280,580,l),
(260,580,l),
(260,500,l)
);
}
);
width = 600;
}
);
unicode = 42807;
},
{
glyphname = b;
lastChange = "2024-12-18 08:47:04 +0000";
layers = (
{
background = {
shapes = (
{
pos = (40,-460);
ref = _dot;
},
{
pos = (-200,-460);
ref = _dot;
},
{
pos = (-200,20);
ref = _dot;
},
{
pos = (-200,-220);
ref = _dot;
},
{
pos = (40,20);
ref = _dot;
},
{
pos = (40,-220);
ref = _dot;
}
);
};
hints = (
{
name = _corner.leftSerif;
origin = (1,3);
type = Corner;
},
{
name = "_corner.leftSerif-TOP";
origin = (7,2);
type = Corner;
}
);
layerId = m01;
shapes = (
{
closed = 1;
nodes = (
(440,100,l),
(440,500,l),
(360,540,l),
(360,20,l)
);
},
{
closed = 1;
nodes = (
(200,20,l),
(200,240,l),
(120,240,l),
(120,20,l)
);
},
{
closed = 1;
nodes = (
(360,20,l),
(360,100,l),
(200,100,l),
(200,60,l),
(240,20,l)
);
},
{
alignment = -1;
pos = (-200,-220);
ref = _dot;
},
{
closed = 1;
nodes = (
(200,360,l),
(200,480,l),
(120,480,l),
(120,360,l)
);
},
{
alignment = -1;
pos = (-200,20);
ref = _dot;
},
{
closed = 1;
nodes = (
(440,500,l),
(380,580,l),
(260,580,l),
(220,560,l),
(220,500,l)
);
},
{
closed = 1;
nodes = (
(200,600,l),
(200,900,l),
(120,900,l),
(120,600,l)
);
}
);
width = 560;
}
);
unicode = 98;
},
{
glyphname = c;
lastChange = "2024-12-24 10:29:34 +0000";
layers = (
{
background = {
shapes = (
{
pos = (40,-460);
ref = _dot;
},
{
pos = (-200,-460);
ref = _dot;
},
{
pos = (-200,20);
ref = _dot;
},
{
pos = (-200,-220);
ref = _dot;
},
{
pos = (40,20);
ref = _dot;
},
{
pos = (40,-220);
ref = _dot;
}
);
};
layerId = m01;
shapes = (
{
alignment = -1;
pos = (40,20);
ref = _dot;
},
{
alignment = -1;
pos = (-200,20);
ref = _dot;
},
{
closed = 1;
nodes = (
(380,20,l),
(440,60,l),
(440,100,l),
(200,100,l),
(200,20,l)
);
},
{
closed = 1;
nodes = (
(200,480,l),
(120,480,l),
(120,100,l),
(200,20,l)
);
},
{
closed = 1;
nodes = (
(340,500,l),
(340,560,l),
(300,580,l),
(220,580,l),
(220,500,l)
);
},
{
closed = 1;
nodes = (
(440,100,l),
(440,140,l),
(400,140,l),
(360,120,l),
(360,100,l)
);
},
{
closed = 1;
nodes = (
(440,480,l),
(440,420,l),
(400,420,l),
(360,440,l),
(360,480,l)
);
}
);
width = 600;
}
);
unicode = 99;
},
{
glyphname = d;
lastChange = "2024-12-17 13:44:28 +0000";
layers = (
{
background = {
shapes = (
{
pos = (40,-460);
ref = _dot;
},
{
pos = (-200,-460);
ref = _dot;
},
{
pos = (-200,20);
ref = _dot;
},
{
pos = (-200,-220);
ref = _dot;
},
{
pos = (40,20);
ref = _dot;
},
{
pos = (40,-220);
ref = _dot;
}
);
};
hints = (
{
name = _corner.rightSerif;
origin = (2,0);
type = Corner;
},
{
name = "_corner.rightSerif-TOP";
origin = (8,1);
type = Corner;
}
);
layerId = m01;
shapes = (
{
closed = 1;
nodes = (
(200,480,l),
(120,480,l),
(120,100,l),
(200,20,l)
);
},
{
closed = 1;
nodes = (
(320,20,l),
(360,60,l),
(360,100,l),
(200,100,l),
(200,20,l)
);
},
{
closed = 1;
nodes = (
(440,20,l),
(440,240,l),
(360,240,l),
(360,20,l)
);
},
{
alignment = -1;
pos = (40,-220);
ref = _dot;
},
{
alignment = -1;
pos = (-200,20);
ref = _dot;
},
{
closed = 1;
nodes = (
(440,360,l),
(440,480,l),
(360,480,l),
(360,360,l)
);
},
{
closed = 1;
nodes = (
(340,500,l),
(340,560,l),
(300,580,l),
(220,580,l),
(220,500,l)
);
},
{
alignment = -1;
pos = (40,20);
ref = _dot;
},
{
closed = 1;
nodes = (
(440,600,l),
(440,900,l),
(360,900,l),
(360,600,l)
);
}
);
width = 560;
}
);
unicode = 100;
},
{
glyphname = e;
lastChange = "2024-12-12 19:21:01 +0000";
layers = (
{
background = {
shapes = (
{
pos = (40,-460);
ref = _dot;
},
{
pos = (-200,-460);
ref = _dot;
},
{
pos = (-200,20);
ref = _dot;
},
{
pos = (-200,-220);
ref = _dot;
},
{
pos = (40,20);
ref = _dot;
},
{
pos = (40,-220);
ref = _dot;
}
);
};
layerId = m01;
shapes = (
{
alignment = -1;
pos = (40,-220);
ref = _dot;
},
{
alignment = -1;
pos = (-200,20);
ref = _dot;
},
{
closed = 1;
nodes = (
(380,20,l),
(420,60,l),
(420,100,l),
(200,100,l),
(200,20,l)
);
},
{
closed = 1;
nodes = (
(200,480,l),
(120,480,l),
(120,100,l),
(200,20,l)
);
},
{
closed = 1;
nodes = (
(200,300,l),
(260,260,l),
(340,260,l),
(340,340,l),
(200,340,l)
);
},
{
closed = 1;
nodes = (
(440,360,l),
(440,500,l),
(360,580,l),
(360,360,l)
);
},
{
closed = 1;
nodes = (
(220,500,l),
(220,580,l),
(360,580,l),
(360,500,l)
);
}
);
width = 560;
}
);
unicode = 101;
},
{
glyphname = f;
lastChange = "2024-12-17 13:42:13 +0000";
layers = (
{
background = {
shapes = (
{
pos = (40,-460);
ref = _dot;
},
{
pos = (-200,-460);
ref = _dot;
},
{
pos = (-200,20);
ref = _dot;
},
{
pos = (-200,-220);
ref = _dot;
},
{
pos = (40,20);
ref = _dot;
},
{
pos = (40,-220);
ref = _dot;
}
);
};
hints = (
{
name = _corner.leftSerif;
origin = (5,3);
type = Corner;
},
{
name = _corner.rightSerif;
origin = (5,0);
type = Corner;
}
);
layerId = m01;
shapes = (
{
alignment = -1;
pos = (-200,-220);
ref = _dot;
},
{
alignment = -1;
pos = (40,20);
ref = _dot;
},
{
alignment = -1;
pos = (-200,20);
ref = _dot;
},
{
closed = 1;
nodes = (
(200,900,l),
(120,821,l),
(120,600,l),
(200,600,l)
);
},
{
closed = 1;
nodes = (
(200,480,l),
(200,360,l),
(120,360,l),
(120,480,l)
);
},
{
closed = 1;
nodes = (
(200,20,l),
(200,240,l),
(120,240,l),
(120,20,l)
);
},
{
closed = 1;
nodes = (
(340,580,l),
(340,500,l),
(220,500,l),
(220,580,l)
);
},
{
closed = 1;
nodes = (
(100,500,l),
(40,500,l),
(40,580,l),
(100,580,l)
);
},
{
closed = 1;
nodes = (
(340,900,l),
(200,900,l),
(160,820,l),
(340,820,l)
);
}
);
width = 560;
}
);
unicode = 102;
},
{
glyphname = g;
lastChange = "2024-12-25 10:30:58 +0000";
layers = (
{
background = {
shapes = (
{
pos = (40,-460);
ref = _dot;
},
{
pos = (-200,-460);
ref = _dot;
},
{
pos = (-200,20);
ref = _dot;
},
{
pos = (-200,-220);
ref = _dot;
},
{
pos = (40,20);
ref = _dot;
},
{
pos = (40,-220);
ref = _dot;
}
);
};
layerId = m01;
shapes = (
{
closed = 1;
nodes = (
(200,180,l),
(120,120,l),
(120,60,l),
(160,20,l),
(120,-20,l),
(120,-120,l),
(200,-200,l)
);
},
{
closed = 1;
nodes = (
(380,-200,l),
(460,-120,l),
(300,-120,l),
(200,-120,l),
(200,-200,l)
);
},
{
closed = 1;
nodes = (
(460,20,l),
(380,20,l),
(380,-120,l),
(460,-120,l)
);
},
{
closed = 1;
nodes = (
(200,240,l),
(120,240,l),
(120,220,l),
(200,140,l)
);
},
{
closed = 1;
nodes = (
(460,20,l),
(380,100,l),
(200,100,l),
(200,20,l)
);
},
{
closed = 1;
nodes = (
(320,140,l),
(360,140,l),
(360,220,l),
(200,220,l),
(200,140,l)
);
},
{
alignment = -1;
pos = (-200,-220);
ref = _dot;
},
{
closed = 1;
nodes = (
(440,220,l),
(440,240,l),
(360,240,l),
(360,140,l)
);
},
{
closed = 1;
nodes = (
(200,360,l),
(200,480,l),
(120,480,l),
(120,360,l)
);
},
{
alignment = -1;
pos = (40,-220);
ref = _dot;
},
{
alignment = -1;
pos = (-200,20);
ref = _dot;
},
{
closed = 1;
nodes = (
(340,500,l),
(340,580,l),
(220,580,l),
(220,500,l)
);
},
{
closed = 1;
nodes = (
(440,360,l),
(440,480,l),
(360,480,l),
(360,360,l)
);
},
{
alignment = -1;
pos = (40,20);
ref = _dot;
},
{
pos = (340,240);
ref = "_corner.Serif.right_wBraille-TOP";
}
);
width = 560;
},
{
associatedMasterId = m01;
background = {
shapes = (
{
pos = (40,-460);
ref = _dot;
},
{
pos = (-200,-460);
ref = _dot;
},
{
pos = (-200,20);
ref = _dot;
},
{
pos = (-200,-220);
ref = _dot;
},
{
pos = (40,20);
ref = _dot;
},
{
pos = (40,-220);
ref = _dot;
}
);
};
layerId = "046C482F-A674-4B10-B437-D694BEDFD394";
name = "25. Dez. 24, 11:23";
shapes = (
{
alignment = -1;
pos = (40,20);
ref = _dot;
},
{
alignment = -1;
pos = (-200,-220);
ref = _dot;
},
{
alignment = -1;
pos = (40,-220);
ref = _dot;
},
{
alignment = -1;
pos = (-200,20);
ref = _dot;
},
{
closed = 1;
nodes = (
(360,-140,l),
(140,-140,l),
(140,-180,l),
(180,-220,l),
(360,-220,l)
);
},
{
closed = 1;
nodes = (
(440,-140,l),
(440,240,l),
(360,240,l),
(360,-220,l)
);
},
{
closed = 1;
nodes = (
(320,20,l),
(360,60,l),
(360,100,l),
(200,100,l),
(200,20,l)
);
},
{
closed = 1;
nodes = (
(200,240,l),
(120,240,l),
(120,100,l),
(200,20,l)
);
},
{
closed = 1;
nodes = (
(340,580,l),
(340,500,l),
(220,500,l),
(220,580,l)
);
},
{
closed = 1;
nodes = (
(200,480,l),
(200,360,l),
(120,360,l),
(120,480,l)
);
},
{
closed = 1;
nodes = (
(440,480,l),
(440,360,l),
(360,360,l),
(360,480,l)
);
},
{
pos = (340,240);
ref = "_corner.Serif.right_wBraille-TOP";
}
);
width = 560;
}
);
unicode = 103;
},
{
glyphname = h;
lastChange = "2024-12-17 13:41:00 +0000";
layers = (
{
background = {
shapes = (
{
pos = (40,-460);
ref = _dot;
},
{
pos = (-200,-460);
ref = _dot;
},
{
pos = (-200,20);
ref = _dot;
},
{
pos = (-200,-220);
ref = _dot;
},
{
pos = (40,20);
ref = _dot;
},
{
pos = (40,-220);
ref = _dot;
}
);
};
hints = (
{
name = _corner.leftSerif;
origin = (4,3);
type = Corner;
},
{
name = _corner.leftSerif;
origin = (8,1);
type = Corner;
},
{
name = _corner.rightSerif;
origin = (4,0);
type = Corner;
},
{
name = _corner.rightSerif;
origin = (8,2);
type = Corner;
},
{
name = "_corner.leftSerif-TOP";
origin = (7,2);
type = Corner;
}
);
layerId = m01;
shapes = (
{
alignment = -1;
pos = (-200,-220);
ref = _dot;
},
{
alignment = -1;
pos = (40,-220);
ref = _dot;
},
{
alignment = -1;
pos = (-200,20);
ref = _dot;
},
{
closed = 1;
nodes = (
(200,480,l),
(200,360,l),
(120,360,l),
(120,480,l)
);
},
{
closed = 1;
nodes = (
(200,20,l),
(200,240,l),
(120,240,l),
(120,20,l)
);
},
{
closed = 1;
nodes = (
(440,360,l),
(440,500,l),
(360,540,l),
(360,360,l)
);
},
{
closed = 1;
nodes = (
(380,580,l),
(260,580,l),
(220,560,l),
(220,500,l),
(440,500,l)
);
},
{
closed = 1;
nodes = (
(200,600,l),
(200,900,l),
(120,900,l),
(120,600,l)
);
},
{
closed = 1;
nodes = (
(360,240,l),
(360,20,l),
(440,20,l),
(440,240,l)
);
}
);
width = 560;
}
);
unicode = 104;
},
{
glyphname = i;
lastChange = "2024-12-17 13:45:27 +0000";
layers = (
{
background = {
shapes = (
{
pos = (40,-460);
ref = _dot;
},
{
pos = (-200,-460);
ref = _dot;
},
{
pos = (-200,20);
ref = _dot;
},
{
pos = (-200,-220);
ref = _dot;
},
{
pos = (40,20);
ref = _dot;
},
{
pos = (40,-220);
ref = _dot;
}
);
};
hints = (
{
name = _corner.leftSerif;
origin = (2,3);
type = Corner;
},
{
name = _corner.rightSerif;
origin = (2,0);
type = Corner;
},
{
name = "_corner.leftSerif-TOP";
origin = (2,2);
type = Corner;
}
);
layerId = m01;
shapes = (
{
alignment = -1;
pos = (-200,-220);
ref = _dot;
},
{
alignment = -1;
pos = (40,20);
ref = _dot;
},
{
closed = 1;
nodes = (
(320,20,l),
(320,580,l),
(240,580,l),
(240,20,l)
);
},
{
closed = 1;
nodes = (
(320,740,l),
(320,840,l),
(240,840,l),
(240,740,l)
);
},
{
closed = 1;
nodes = (
(340,500,l),
(340,580,l),
(300,580,l),
(300,500,l)
);
}
);
width = 560;
}
);
unicode = 105;
},
{
glyphname = j;
lastChange = "2024-12-13 12:45:29 +0000";
layers = (
{
background = {
shapes = (
{
pos = (40,-460);
ref = _dot;
},
{
pos = (-200,-460);
ref = _dot;
},
{
pos = (-200,20);
ref = _dot;
},
{
pos = (-200,-220);
ref = _dot;
},
{
pos = (40,20);
ref = _dot;
},
{
pos = (40,-220);
ref = _dot;
}
);
};
layerId = m01;
shapes = (
{
alignment = -1;
pos = (-200,-220);
ref = _dot;
},
{
alignment = -1;
pos = (40,-220);
ref = _dot;
},
{
alignment = -1;
pos = (40,20);
ref = _dot;
},
{
closed = 1;
nodes = (
(340,580,l),
(340,500,l),
(260,500,l),
(260,580,l)
);
},
{
closed = 1;
nodes = (
(440,480,l),
(440,360,l),
(360,360,l),
(360,480,l)
);
},
{
closed = 1;
nodes = (
(400,-60,l),
(440,20,l),
(120,20,l),
(200,-60,l)
);
},
{
closed = 1;
nodes = (
(200,-20,l),
(200,240,l),
(120,240,l),
(120,20,l)
);
},
{
closed = 1;
nodes = (
(440,20,l),
(440,240,l),
(360,240,l),
(360,-20,l)
);
},
{
closed = 1;
nodes = (
(420,740,l),
(420,840,l),
(340,840,l),
(340,740,l)
);
},
{
closed = 1;
nodes = (
(520,580,l),
(520,500,l),
(460,500,l),
(460,580,l)
);
}
);
width = 560;
}
);
unicode = 106;
},
{
glyphname = k;
lastChange = "2024-12-24 12:12:03 +0000";
layers = (
{
background = {
shapes = (
{
pos = (40,-460);
ref = _dot;
},
{
pos = (-200,-460);
ref = _dot;
},
{
pos = (-200,20);
ref = _dot;
},
{
pos = (-200,-220);
ref = _dot;
},
{
pos = (40,20);
ref = _dot;
},
{
pos = (40,-220);
ref = _dot;
}
);
};
hints = (
{
name = "_corner.leftSerif-TOP";
origin = (4,2);
type = Corner;
},
{
name = "_corner.rightSerif-TOP";
origin = (2,2);
type = Corner;
},
{
name = _corner.rightSerif;
origin = (6,0);
type = Corner;
}
);
layerId = m01;
shapes = (
{
alignment = -1;
pos = (-200,-460);
ref = _dot;
},
{
alignment = -1;
pos = (-200,20);
ref = _dot;
},
{
closed = 1;
nodes = (
(360,300,l),
(440,340,l),
(440,580,l),
(360,580,l)
);
},
{
closed = 1;
nodes = (
(200,340,l),
(200,280,l),
(240,260,l),
(380,260,l),
(440,340,l)
);
},
{
closed = 1;
nodes = (
(200,600,l),
(200,900,l),
(120,900,l),
(120,600,l)
);
},
{
closed = 1;
nodes = (
(200,480,l),
(200,120,l),
(120,120,l),
(120,480,l)
);
},
{
closed = 1;
nodes = (
(440,20,l),
(440,240,l),
(360,280,l),
(360,20,l)
);
},
{
pos = (-40,-180);
ref = "_corner.Serif.left_wBraille-BOTTOM";
},
{
pos = (60,-180);
ref = "_corner.Serif.right_wBraille-BOTTOM";
}
);
width = 560;
}
);
unicode = 107;
},
{
glyphname = l;
lastChange = "2024-12-25 15:53:24 +0000";
layers = (
{
background = {
shapes = (
{
pos = (40,-460);
ref = _dot;
},
{
pos = (-200,-460);
ref = _dot;
},
{
pos = (-200,20);
ref = _dot;
},
{
pos = (-200,-220);
ref = _dot;
},
{
pos = (40,20);
ref = _dot;
},
{
pos = (40,-220);
ref = _dot;
}
);
};
hints = (
{
name = "_corner.leftSerif-TOP";
origin = (3,2);
type = Corner;
}
);
layerId = m01;
shapes = (
{
alignment = -1;
pos = (-200,-220);
ref = _dot;
},
{
alignment = -1;
pos = (-200,-460);
ref = _dot;
},
{
alignment = -1;
pos = (-200,20);
ref = _dot;
},
{
closed = 1;
nodes = (
(200,600,l),
(200,900,l),
(120,900,l),
(120,600,l)
);
},
{
closed = 1;
nodes = (
(200,480,l),
(200,360,l),
(120,360,l),
(120,480,l)
);
},
{
closed = 1;
nodes = (
(200,240,l),
(200,120,l),
(120,120,l),
(120,240,l)
);
},
{
closed = 1;
nodes = (
(320,100,l),
(320,20,l),
(220,20,l),
(220,100,l)
);
},
{
pos = (-40,-180);
ref = "_corner.Serif.left_wBraille-BOTTOM";
}
);
width = 560;
}
);
unicode = 108;
},
{
glyphname = m;
lastChange = "2024-12-17 17:41:42 +0000";
layers = (
{
background = {
shapes = (
{
pos = (40,-460);
ref = _dot;
},
{
pos = (-200,-460);
ref = _dot;
},
{
pos = (-200,20);
ref = _dot;
},
{
pos = (-200,-220);
ref = _dot;
},
{
pos = (40,20);
ref = _dot;
},
{
pos = (40,-220);
ref = _dot;
}
);
};
layerId = m01;
shapes = (
{
alignment = -1;
pos = (-200,-460);
ref = _dot;
},
{
alignment = -1;
pos = (40,20);
ref = _dot;
},
{
alignment = -1;
pos = (-200,20);
ref = _dot;
},
{
closed = 1;
nodes = (
(200,480,l),
(200,120,l),
(120,120,l),
(120,480,l)
);
},
{
closed = 1;
nodes = (
(220,580,l),
(280,500,l),
(340,580,l),
(340,460,l),
(280,400,l),
(220,460,l)
);
},
{
closed = 1;
nodes = (
(440,480,l),
(440,20,l),
(360,20,l),
(360,480,l)
);
},
{
pos = (-20,240);
ref = "_corner.Serif.left_wBraille-TOP";
}
);
width = 560;
},
{
associatedMasterId = m01;
background = {
shapes = (
{
pos = (40,-460);
ref = _dot;
},
{
pos = (-200,-460);
ref = _dot;
},
{
pos = (-200,20);
ref = _dot;
},
{
pos = (-200,-220);
ref = _dot;
},
{
pos = (40,20);
ref = _dot;
},
{
pos = (40,-220);
ref = _dot;
}
);
};
layerId = "4F6318A4-6EF2-4DD6-BADB-1A9AE8CB7EF3";
name = "13. Dez. 24, 13:31";
shapes = (
{
closed = 1;
nodes = (
(540,20,l),
(540,580,l),
(460,580,l),
(460,20,l)
);
},
{
alignment = -1;
pos = (-200,-460);
ref = _dot;
},
{
closed = 1;
nodes = (
(100,20,l),
(100,580,l),
(20,580,l),
(20,20,l)
);
},
{
closed = 1;
nodes = (
(500,20,l),
(500,100,l),
(400,100,l),
(400,20,l)
);
},
{
closed = 1;
nodes = (
(560,20,l),
(560,100,l),
(520,100,l),
(520,20,l)
);
},
{
alignment = -1;
pos = (-200,20);
ref = _dot;
},
{
closed = 1;
nodes = (
(340,460,l),
(340,580,l),
(280,500,l),
(220,580,l),
(220,460,l),
(280,400,l)
);
},
{
alignment = -1;
pos = (40,20);
ref = _dot;
},
{
closed = 1;
nodes = (
(560,500,l),
(560,580,l),
(520,580,l),
(520,500,l)
);
},
{
closed = 1;
nodes = (
(40,500,l),
(40,580,l),
(0,580,l),
(0,500,l)
);
},
{
closed = 1;
nodes = (
(40,20,l),
(40,100,l),
(0,100,l),
(0,20,l)
);
}
);
width = 560;
}
);
unicode = 109;
},
{
glyphname = n;
lastChange = "2024-12-25 16:08:32 +0000";
layers = (
{
background = {
shapes = (
{
pos = (40,-460);
ref = _dot;
},
{
pos = (-200,-460);
ref = _dot;
},
{
pos = (-200,20);
ref = _dot;
},
{
pos = (-200,-220);
ref = _dot;
},
{
pos = (40,20);
ref = _dot;
},
{
pos = (40,-220);
ref = _dot;
}
);
};
hints = (
{
name = _corner.leftSerif;
origin = (7,0);
type = Corner;
},
{
name = _corner.rightSerif;
origin = (7,1);
type = Corner;
}
);
layerId = m01;
shapes = (
{
alignment = -1;
pos = (40,20);
ref = _dot;
},
{
alignment = -1;
pos = (40,-220);
ref = _dot;
},
{
alignment = -1;
pos = (-200,-460);
ref = _dot;
},
{
alignment = -1;
pos = (-200,20);
ref = _dot;
},
{
closed = 1;
nodes = (
(200,480,l),
(200,120,l),
(120,120,l),
(120,480,l)
);
},
{
closed = 1;
nodes = (
(258,580,l),
(340,580,l),
(340,500,l),
(220,500,l),
(220,540,l)
);
},
{
closed = 1;
nodes = (
(440,480,l),
(440,360,l),
(360,360,l),
(360,480,l)
);
},
{
closed = 1;
nodes = (
(360,20,l),
(440,20,l),
(440,240,l),
(360,240,l)
);
},
{
pos = (-20,240);
ref = "_corner.Serif.left_wBraille-TOP";
},
{
pos = (-40,-180);
ref = "_corner.Serif.left_wBraille-BOTTOM";
},
{
pos = (60,-180);
ref = "_corner.Serif.right_wBraille-BOTTOM";
}
);
width = 560;
}
);
unicode = 110;
},
{
glyphname = o;
lastChange = "2024-12-25 11:04:20 +0000";
layers = (
{
background = {
shapes = (
{
pos = (40,-460);
ref = _dot;
},
{
pos = (-200,-460);
ref = _dot;
},
{
pos = (-200,20);
ref = _dot;
},
{
pos = (-200,-220);
ref = _dot;
},
{
pos = (40,20);
ref = _dot;
},
{
pos = (40,-220);
ref = _dot;
}
);
};
layerId = m01;
shapes = (
{
closed = 1;
nodes = (
(440,360,l),
(440,500,l),
(440,540,l),
(400,580,l),
(360,560,l),
(360,360,l)
);
},
{
alignment = -1;
pos = (-200,-460);
ref = _dot;
},
{
closed = 1;
nodes = (
(360,20,l),
(360,100,l),
(220,100,l),
(220,60,l),
(220,20,l)
);
},
{
alignment = -1;
pos = (-200,20);
ref = _dot;
},
{
alignment = -1;
pos = (40,-220);
ref = _dot;
},
{
closed = 1;
nodes = (
(400,500,l),
(400,580,l),
(220,580,l),
(220,500,l)
);
},
{
closed = 1;
nodes = (
(200,480,l),
(200,120,l),
(120,120,l),
(120,480,l)
);
},
{
closed = 1;
nodes = (
(360,240,l),
(360,20,l),
(400,20,l),
(440,60,l),
(440,240,l)
);
}
);
width = 560;
}
);
unicode = 111;
},
{
glyphname = odieresis;
lastChange = "2024-12-13 10:14:41 +0000";
layers = (
{
background = {
shapes = (
{
pos = (40,-460);
ref = _dot;
},
{
pos = (-200,-460);
ref = _dot;
},
{
pos = (-200,20);
ref = _dot;
},
{
pos = (-200,-220);
ref = _dot;
},
{
pos = (40,20);
ref = _dot;
},
{
pos = (40,-220);
ref = _dot;
}
);
};
layerId = m01;
shapes = (
{
alignment = -1;
pos = (-200,-220);
ref = _dot;
},
{
alignment = -1;
pos = (40,-460);
ref = _dot;
},
{
alignment = -1;
pos = (40,20);
ref = _dot;
},
{
closed = 1;
nodes = (
(440,120,l),
(440,480,l),
(360,480,l),
(360,120,l)
);
},
{
closed = 1;
nodes = (
(200,60,l),
(200,240,l),
(120,240,l),
(120,60,l),
(160,20,l)
);
},
{
closed = 1;
nodes = (
(340,20,l),
(340,100,l),
(160,100,l),
(160,20,l)
);
},
{
closed = 1;
nodes = (
(200,360,l),
(200,540,l),
(160,580,l),
(120,520,l),
(120,360,l)
);
},
{
closed = 1;
nodes = (
(340,500,l),
(340,580,l),
(160,580,l),
(160,500,l)
);
},
{
pos = (20,0);
ref = dieresis;
}
);
width = 560;
}
);
unicode = 246;
},
{
glyphname = p;
lastChange = "2024-12-17 17:41:59 +0000";
layers = (
{
background = {
shapes = (
{
pos = (40,-460);
ref = _dot;
},
{
pos = (-200,-460);
ref = _dot;
},
{
pos = (-200,20);
ref = _dot;
},
{
pos = (-200,-220);
ref = _dot;
},
{
pos = (40,20);
ref = _dot;
},
{
pos = (40,-220);
ref = _dot;
}
);
};
layerId = m01;
shapes = (
{
alignment = -1;
pos = (-200,-220);
ref = _dot;
},
{
alignment = -1;
pos = (-200,20);
ref = _dot;
},
{
alignment = -1;
pos = (-200,-460);
ref = _dot;
},
{
alignment = -1;
pos = (40,20);
ref = _dot;
},
{
closed = 1;
nodes = (
(360,100,l),
(220,100,l),
(220,60,l),
(260,20,l),
(360,20,l)
);
},
{
closed = 1;
nodes = (
(440,100,l),
(440,480,l),
(360,480,l),
(360,20,l)
);
},
{
closed = 1;
nodes = (
(340,580,l),
(340,500,l),
(220,500,l),
(220,580,l)
);
},
{
closed = 1;
nodes = (
(200,480,l),
(200,360,l),
(120,360,l),
(120,480,l)
);
},
{
closed = 1;
nodes = (
(200,240,l),
(200,120,l),
(120,120,l),
(120,240,l)
);
},
{
closed = 1;
nodes = (
(200,0,l),
(200,-180,l),
(160,-220,l),
(120,-220,l),
(120,0,l)
);
},
{
pos = (-20,240);
ref = "_corner.Serif.left_wBraille-TOP";
}
);
width = 560;
}
);
unicode = 112;
},
{
glyphname = q;
lastChange = "2024-12-17 13:50:56 +0000";
layers = (
{
background = {
shapes = (
{
pos = (40,-460);
ref = _dot;
},
{
pos = (-200,-460);
ref = _dot;
},
{
pos = (-200,20);
ref = _dot;
},
{
pos = (-200,-220);
ref = _dot;
},
{
pos = (40,20);
ref = _dot;
},
{
pos = (40,-220);
ref = _dot;
}
);
};
hints = (
{
name = _corner.rightSerif;
origin = (10,0);
type = Corner;
}
);
layerId = m01;
shapes = (
{
alignment = -1;
pos = (-200,20);
ref = _dot;
},
{
alignment = -1;
pos = (-200,-220);
ref = _dot;
},
{
alignment = -1;
pos = (40,-220);
ref = _dot;
},
{
alignment = -1;
pos = (-200,-460);
ref = _dot;
},
{
alignment = -1;
pos = (40,20);
ref = _dot;
},
{
closed = 1;
nodes = (
(300,20,l),
(360,60,l),
(360,100,l),
(220,100,l),
(220,20,l)
);
},
{
closed = 1;
nodes = (
(200,360,l),
(200,480,l),
(120,480,l),
(120,360,l)
);
},
{
closed = 1;
nodes = (
(340,500,l),
(220,500,l),
(220,580,l),
(340,580,l)
);
},
{
closed = 1;
nodes = (
(440,360,l),
(360,360,l),
(360,480,l),
(440,480,l)
);
},
{
closed = 1;
nodes = (
(360,240,l),
(360,-20,l),
(440,-20,l),
(440,240,l)
);
},
{
closed = 1;
nodes = (
(440,-220,l),
(440,0,l),
(360,0,l),
(360,-180,l),
(400,-220,l)
);
},
{
closed = 1;
nodes = (
(520,580,l),
(520,500,l),
(460,500,l),
(460,580,l)
);
},
{
closed = 1;
nodes = (
(120,240,l),
(120,120,l),
(200,120,l),
(200,240,l)
);
}
);
width = 560;
}
);
unicode = 113;
},
{
glyphname = r;
lastChange = "2024-12-24 12:12:25 +0000";
layers = (
{
background = {
shapes = (
{
pos = (40,-460);
ref = _dot;
},
{
pos = (-200,-460);
ref = _dot;
},
{
pos = (-200,20);
ref = _dot;
},
{
pos = (-200,-220);
ref = _dot;
},
{
pos = (40,20);
ref = _dot;
},
{
pos = (40,-220);
ref = _dot;
}
);
};
layerId = m01;
shapes = (
{
alignment = -1;
pos = (-200,20);
ref = _dot;
},
{
alignment = -1;
pos = (-200,-220);
ref = _dot;
},
{
alignment = -1;
pos = (-200,-460);
ref = _dot;
},
{
alignment = -1;
pos = (40,-220);
ref = _dot;
},
{
closed = 1;
nodes = (
(440,400,l),
(440,500,l),
(360,500,l),
(360,460,l),
(360,360,l),
(420,360,l)
);
},
{
closed = 1;
nodes = (
(440,500,l),
(360,580,l),
(259,580,l),
(220,560,l),
(220,500,l)
);
},
{
closed = 1;
nodes = (
(200,360,l),
(200,480,l),
(120,480,l),
(120,360,l)
);
},
{
closed = 1;
nodes = (
(200,120,l),
(200,240,l),
(120,240,l),
(120,120,l)
);
},
{
pos = (-20,240);
ref = "_corner.Serif.left_wBraille-TOP";
},
{
pos = (-40,-180);
ref = "_corner.Serif.left_wBraille-BOTTOM";
},
{
pos = (60,-180);
ref = "_corner.Serif.right_wBraille-BOTTOM";
}
);
width = 560;
}
);
unicode = 114;
},
{
glyphname = s;
lastChange = "2024-12-25 11:03:42 +0000";
layers = (
{
background = {
shapes = (
{
pos = (40,-460);
ref = _dot;
},
{
pos = (-200,-460);
ref = _dot;
},
{
pos = (-200,20);
ref = _dot;
},
{
pos = (-200,-220);
ref = _dot;
},
{
pos = (40,20);
ref = _dot;
},
{
pos = (40,-220);
ref = _dot;
}
);
};
layerId = m01;
shapes = (
{
alignment = -1;
pos = (-200,-220);
ref = _dot;
},
{
alignment = -1;
pos = (-200,-460);
ref = _dot;
},
{
alignment = -1;
pos = (40,20);
ref = _dot;
},
{
closed = 1;
nodes = (
(200,360,l),
(200,460,l),
(200,500,l),
(120,500,l),
(120,380,l),
(140,360,l)
);
},
{
closed = 1;
nodes = (
(340,580,l),
(200,580,l),
(120,500,l),
(340,500,l)
);
},
{
closed = 1;
nodes = (
(380,260,l),
(380,340,l),
(220,340,l),
(220,280,l),
(240,260,l)
);
},
{
closed = 1;
nodes = (
(460,100,l),
(460,280,l),
(400,340,l),
(380,340,l),
(380,260,l),
(380,220,l),
(380,100,l)
);
},
{
closed = 1;
nodes = (
(380,20,l),
(460,100,l),
(220,100,l),
(220,20,l)
);
},
{
closed = 1;
nodes = (
(440,480,l),
(440,400,l),
(380,400,l),
(360,420,l),
(360,480,l)
);
}
);
width = 600;
}
);
unicode = 115;
},
{
glyphname = germandbls;
lastChange = "2024-12-13 15:48:12 +0000";
layers = (
{
background = {
shapes = (
{
pos = (40,-460);
ref = _dot;
},
{
pos = (-200,-460);
ref = _dot;
},
{
pos = (-200,20);
ref = _dot;
},
{
pos = (-200,-220);
ref = _dot;
},
{
pos = (40,20);
ref = _dot;
},
{
pos = (40,-220);
ref = _dot;
}
);
};
layerId = m01;
shapes = (
{
alignment = -1;
pos = (40,-460);
ref = _dot;
},
{
alignment = -1;
pos = (-200,-220);
ref = _dot;
},
{
alignment = -1;
pos = (40,20);
ref = _dot;
},
{
alignment = -1;
pos = (-200,-460);
ref = _dot;
},
{
closed = 1;
nodes = (
(200,800,l),
(120,720,l),
(120,360,l),
(200,360,l)
);
},
{
closed = 1;
nodes = (
(360,800,l),
(200,800,l),
(160,720,l),
(360,720,l)
);
},
{
closed = 1;
nodes = (
(402,600,l),
(440,660,l),
(440,720,l),
(360,800,l),
(360,720,l),
(360,600,l)
);
},
{
closed = 1;
nodes = (
(280,500,l),
(340,500,l),
(340,580,l),
(240,580,l)
);
},
{
closed = 1;
nodes = (
(200,240,l),
(200,120,l),
(120,120,l),
(120,240,l)
);
},
{
closed = 1;
nodes = (
(200,0,l),
(200,-100,l),
(120,-100,l),
(120,0,l)
);
},
{
closed = 1;
nodes = (
(400,480,l),
(440,420,l),
(440,120,l),
(360,120,l),
(360,480,l)
);
},
{
closed = 1;
nodes = (
(340,20,l),
(280,20,l),
(220,100,l),
(340,100,l)
);
}
);
width = 600;
}
);
unicode = 223;
},
{
glyphname = t;
lastChange = "2024-12-17 17:32:40 +0000";
layers = (
{
background = {
shapes = (
{
pos = (40,-460);
ref = _dot;
},
{
pos = (-200,-460);
ref = _dot;
},
{
pos = (-200,20);
ref = _dot;
},
{
pos = (-200,-220);
ref = _dot;
},
{
pos = (40,20);
ref = _dot;
},
{
pos = (40,-220);
ref = _dot;
}
);
};
layerId = m01;
shapes = (
{
alignment = -1;
pos = (-200,-220);
ref = _dot;
},
{
alignment = -1;
pos = (40,-220);
ref = _dot;
},
{
alignment = -1;
pos = (-200,-460);
ref = _dot;
},
{
alignment = -1;
pos = (40,20);
ref = _dot;
},
{
closed = 1;
nodes = (
(220,20,l),
(360,20,l),
(440,100,l),
(440,240,l),
(360,240,l),
(360,100,l),
(220,100,l)
);
},
{
closed = 1;
nodes = (
(200,240,l),
(200,120,l),
(120,120,l),
(120,240,l)
);
},
{
closed = 1;
nodes = (
(200,360,l),
(200,800,l),
(140,800,l),
(120,780,l),
(120,360,l)
);
},
{
closed = 1;
nodes = (
(60,543,l),
(60,500,l),
(340,500,l),
(340,580,l),
(60,580,l)
);
}
);
width = 560;
}
);
unicode = 116;
},
{
glyphname = u;
lastChange = "2024-12-17 17:42:11 +0000";
layers = (
{
background = {
shapes = (
{
pos = (40,-460);
ref = _dot;
},
{
pos = (-200,-460);
ref = _dot;
},
{
pos = (-200,20);
ref = _dot;
},
{
pos = (-200,-220);
ref = _dot;
},
{
pos = (40,20);
ref = _dot;
},
{
pos = (40,-220);
ref = _dot;
}
);
};
hints = (
{
name = "_corner.rightSerif-TOP";
origin = (0,1);
type = Corner;
}
);
layerId = m01;
shapes = (
{
closed = 1;
nodes = (
(440,120,l),
(440,580,l),
(360,580,l),
(360,120,l)
);
},
{
alignment = -1;
pos = (-200,-460);
ref = _dot;
},
{
closed = 1;
nodes = (
(340,20,l),
(340,100,l),
(220,100,l),
(220,20,l)
);
},
{
alignment = -1;
pos = (40,-460);
ref = _dot;
},
{
closed = 1;
nodes = (
(200,120,l),
(200,480,l),
(120,480,l),
(120,120,l)
);
},
{
alignment = -1;
pos = (-200,20);
ref = _dot;
},
{
pos = (-20,240);
ref = "_corner.Serif.left_wBraille-TOP";
}
);
width = 560;
}
);
unicode = 117;
},
{
glyphname = udieresis;
lastChange = "2024-12-17 17:42:15 +0000";
layers = (
{
background = {
shapes = (
{
pos = (40,-460);
ref = _dot;
},
{
pos = (-200,-460);
ref = _dot;
},
{
pos = (-200,20);
ref = _dot;
},
{
pos = (-200,-220);
ref = _dot;
},
{
pos = (40,20);
ref = _dot;
},
{
pos = (40,-220);
ref = _dot;
}
);
};
hints = (
{
name = "_corner.rightSerif-TOP";
origin = (4,1);
type = Corner;
}
);
layerId = m01;
shapes = (
{
alignment = -1;
pos = (-200,20);
ref = _dot;
},
{
alignment = -1;
pos = (-200,-220);
ref = _dot;
},
{
alignment = -1;
pos = (40,-220);
ref = _dot;
},
{
alignment = -1;
pos = (40,-460);
ref = _dot;
},
{
closed = 1;
nodes = (
(440,360,l),
(440,580,l),
(360,580,l),
(360,360,l)
);
},
{
closed = 1;
nodes = (
(340,20,l),
(340,100,l),
(120,100,l),
(160,20,l)
);
},
{
closed = 1;
nodes = (
(200,240,l),
(120,240,l),
(120,100,l),
(200,60,l)
);
},
{
closed = 1;
nodes = (
(200,360,l),
(200,480,l),
(120,480,l),
(120,360,l)
);
},
{
closed = 1;
nodes = (
(440,120,l),
(440,240,l),
(360,240,l),
(360,120,l)
);
},
{
pos = (20,0);
ref = dieresis;
},
{
pos = (-20,240);
ref = "_corner.Serif.left_wBraille-TOP";
}
);
width = 560;
}
);
unicode = 252;
},
{
glyphname = v;
lastChange = "2024-12-13 12:49:45 +0000";
layers = (
{
background = {
shapes = (
{
pos = (40,-460);
ref = _dot;
},
{
pos = (-200,-460);
ref = _dot;
},
{
pos = (-200,20);
ref = _dot;
},
{
pos = (-200,-220);
ref = _dot;
},
{
pos = (40,20);
ref = _dot;
},
{
pos = (40,-220);
ref = _dot;
}
);
};
layerId = m01;
shapes = (
{
alignment = -1;
pos = (-200,20);
ref = _dot;
},
{
alignment = -1;
pos = (-200,-220);
ref = _dot;
},
{
alignment = -1;
pos = (-200,-460);
ref = _dot;
},
{
alignment = -1;
pos = (40,-460);
ref = _dot;
},
{
closed = 1;
nodes = (
(380,120,l),
(440,220,l),
(440,580,l),
(360,580,l),
(360,120,l)
);
},
{
closed = 1;
nodes = (
(200,120,l),
(200,240,l),
(120,240,l),
(120,220,l),
(180,120,l)
);
},
{
closed = 1;
nodes = (
(340,40,l),
(340,160,l),
(280,80,l),
(220,160,l),
(220,40,l),
(280,-40,l)
);
},
{
closed = 1;
nodes = (
(220,120,l),
(220,160,l),
(180,220,l),
(180,120,l)
);
},
{
closed = 1;
nodes = (
(380,120,l),
(380,220,l),
(340,160,l),
(340,120,l)
);
},
{
closed = 1;
nodes = (
(200,360,l),
(200,480,l),
(120,480,l),
(120,360,l)
);
}
);
width = 560;
}
);
unicode = 118;
},
{
glyphname = w;
lastChange = "2024-12-13 12:49:59 +0000";
layers = (
{
background = {
shapes = (
{
pos = (40,-460);
ref = _dot;
},
{
pos = (-200,-460);
ref = _dot;
},
{
pos = (-200,20);
ref = _dot;
},
{
pos = (-200,-220);
ref = _dot;
},
{
pos = (40,20);
ref = _dot;
},
{
pos = (40,-220);
ref = _dot;
}
);
};
layerId = m01;
shapes = (
{
alignment = -1;
pos = (-200,-220);
ref = _dot;
},
{
alignment = -1;
pos = (40,-220);
ref = _dot;
},
{
alignment = -1;
pos = (40,-460);
ref = _dot;
},
{
alignment = -1;
pos = (40,20);
ref = _dot;
},
{
closed = 1;
nodes = (
(240,20,l),
(280,80,l),
(320,20,l),
(320,120,l),
(280,240,l),
(240,120,l),
(200,200,l),
(200,240,l),
(120,240,l),
(120,180,l),
(220,20,l)
);
},
{
closed = 1;
nodes = (
(380,140,l),
(440,180,l),
(440,240,l),
(360,240,l),
(360,140,l)
);
},
{
closed = 1;
nodes = (
(200,360,l),
(200,580,l),
(120,580,l),
(120,360,l)
);
},
{
closed = 1;
nodes = (
(440,360,l),
(440,480,l),
(360,480,l),
(360,360,l)
);
}
);
width = 560;
}
);
unicode = 119;
},
{
glyphname = x;
lastChange = "2024-12-25 13:54:34 +0000";
layers = (
{
background = {
shapes = (
{
pos = (40,-460);
ref = _dot;
},
{
pos = (-200,-460);
ref = _dot;
},
{
pos = (-200,20);
ref = _dot;
},
{
pos = (-200,-220);
ref = _dot;
},
{
pos = (40,20);
ref = _dot;
},
{
pos = (40,-220);
ref = _dot;
}
);
};
layerId = m01;
shapes = (
{
alignment = -1;
pos = (-200,20);
ref = _dot;
},
{
alignment = -1;
pos = (-200,-460);
ref = _dot;
},
{
alignment = -1;
pos = (40,-460);
ref = _dot;
},
{
alignment = -1;
pos = (40,20);
ref = _dot;
},
{
closed = 1;
nodes = (
(240,80,l),
(220,80,l),
(220,120,l),
(160,120,l),
(320,520,l),
(340,520,l),
(340,480,l),
(400,480,l)
);
},
{
closed = 1;
nodes = (
(220,480,l),
(220,520,l),
(240,520,l),
(400,120,l),
(340,120,l),
(340,80,l),
(320,80,l),
(160,480,l)
);
}
);
width = 560;
}
);
unicode = 120;
},
{
glyphname = y;
lastChange = "2024-12-13 10:12:06 +0000";
layers = (
{
background = {
shapes = (
{
pos = (40,-460);
ref = _dot;
},
{
pos = (-200,-460);
ref = _dot;
},
{
pos = (-200,20);
ref = _dot;
},
{
pos = (-200,-220);
ref = _dot;
},
{
pos = (40,20);
ref = _dot;
},
{
pos = (40,-220);
ref = _dot;
}
);
};
layerId = m01;
shapes = (
{
alignment = -1;
pos = (-200,20);
ref = _dot;
},
{
alignment = -1;
pos = (40,-220);
ref = _dot;
},
{
alignment = -1;
pos = (-200,-460);
ref = _dot;
},
{
alignment = -1;
pos = (40,-460);
ref = _dot;
},
{
alignment = -1;
pos = (40,20);
ref = _dot;
},
{
closed = 1;
nodes = (
(340,260,l),
(340,340,l),
(120,340,l),
(180,260,l)
);
},
{
closed = 1;
nodes = (
(340,20,l),
(340,100,l),
(220,100,l),
(220,20,l)
);
},
{
closed = 1;
nodes = (
(200,480,l),
(120,480,l),
(120,340,l),
(200,300,l)
);
},
{
closed = 1;
nodes = (
(440,120,l),
(440,240,l),
(360,240,l),
(360,120,l)
);
},
{
closed = 1;
nodes = (
(440,360,l),
(440,480,l),
(360,480,l),
(360,360,l)
);
}
);
width = 560;
}
);
unicode = 121;
},
{
glyphname = z;
lastChange = "2024-12-13 10:13:59 +0000";
layers = (
{
background = {
shapes = (
{
pos = (40,-460);
ref = _dot;
},
{
pos = (-200,-460);
ref = _dot;
},
{
pos = (-200,20);
ref = _dot;
},
{
pos = (-200,-220);
ref = _dot;
},
{
pos = (40,20);
ref = _dot;
},
{
pos = (40,-220);
ref = _dot;
}
);
};
layerId = m01;
shapes = (
{
alignment = -1;
pos = (-200,20);
ref = _dot;
},
{
alignment = -1;
pos = (40,-220);
ref = _dot;
},
{
alignment = -1;
pos = (40,-460);
ref = _dot;
},
{
alignment = -1;
pos = (-200,-460);
ref = _dot;
},
{
closed = 1;
nodes = (
(200,120,l),
(240,160,l),
(440,480,l),
(440,580,l),
(360,580,l),
(360,500,l),
(120,120,l)
);
},
{
closed = 1;
nodes = (
(340,20,l),
(340,100,l),
(220,100,l),
(220,20,l)
);
},
{
closed = 1;
nodes = (
(440,120,l),
(440,240,l),
(360,240,l),
(360,120,l)
);
},
{
closed = 1;
nodes = (
(400,500,l),
(400,580,l),
(220,580,l),
(220,500,l)
);
},
{
closed = 1;
nodes = (
(200,480,l),
(200,400,l),
(120,400,l),
(120,480,l)
);
}
);
width = 560;
}
);
unicode = 122;
},
{
glyphname = adieresis_u;
lastChange = "2024-12-13 15:41:57 +0000";
layers = (
{
background = {
shapes = (
{
pos = (40,-460);
ref = _dot;
},
{
pos = (-200,-460);
ref = _dot;
},
{
pos = (-200,20);
ref = _dot;
},
{
pos = (-200,-220);
ref = _dot;
},
{
pos = (40,20);
ref = _dot;
},
{
pos = (40,-220);
ref = _dot;
}
);
};
layerId = m01;
shapes = (
{
closed = 1;
nodes = (
(320,20,l),
(320,500,l),
(240,500,l),
(240,20,l)
);
},
{
alignment = -1;
pos = (-200,-460);
ref = _dot;
},
{
closed = 1;
nodes = (
(240,20,l),
(260,100,l),
(220,100,l),
(220,20,l)
);
},
{
closed = 1;
nodes = (
(360,20,l),
(360,100,l),
(280,100,l),
(280,20,l)
);
},
{
closed = 1;
nodes = (
(200,120,l),
(200,380,l),
(120,340,l),
(120,120,l)
);
},
{
closed = 1;
nodes = (
(240,340,l),
(240,400,l),
(200,420,l),
(180,420,l),
(120,340,l)
);
},
{
closed = 1;
nodes = (
(380,20,l),
(440,100,l),
(440,480,l),
(360,480,l),
(360,20,l)
);
},
{
closed = 1;
nodes = (
(200,440,l),
(200,480,l),
(180,500,l),
(240,500,l),
(240,580,l),
(140,580,l),
(120,500,l),
(120,440,l)
);
},
{
closed = 1;
nodes = (
(320,500,l),
(320,560,l),
(260,580,l),
(240,580,l),
(240,500,l)
);
},
{
closed = 1;
nodes = (
(200,640,l),
(200,720,l),
(120,720,l),
(120,640,l)
);
},
{
alignment = -1;
pos = (40,20);
ref = _dot;
},
{
closed = 1;
nodes = (
(320,640,l),
(320,720,l),
(240,720,l),
(240,640,l)
);
}
);
width = 560;
}
);
},
{
glyphname = A.sc;
lastChange = "2024-12-18 08:37:27 +0000";
layers = (
{
anchors = (
{
name = top;
pos = (280,620);
}
);
background = {
shapes = (
{
pos = (40,-460);
ref = _dot;
},
{
pos = (40,20);
ref = _dot;
},
{
pos = (40,-220);
ref = _dot;
},
{
pos = (-200,-460);
ref = _dot;
},
{
pos = (-200,20);
ref = _dot;
},
{
pos = (-200,-220);
ref = _dot;
}
);
};
hints = (
{
name = _corner.leftSerif;
origin = (1,3);
type = Corner;
},
{
name = _corner.rightSerif;
origin = (1,0);
type = Corner;
},
{
name = _corner.leftSerif;
origin = (0,3);
type = Corner;
},
{
name = _corner.rightSerif;
origin = (0,0);
type = Corner;
}
);
layerId = m01;
shapes = (
{
closed = 1;
nodes = (
(460,20,l),
(460,500,l),
(380,500,l),
(380,20,l)
);
},
{
closed = 1;
nodes = (
(200,20,l),
(200,480,l),
(120,480,l),
(120,20,l)
);
},
{
closed = 0;
nodes = (
(420,20,l)
);
},
{
closed = 1;
nodes = (
(400,260,l),
(420,340,l),
(180,340,l),
(180,260,l)
);
},
{
pos = (-200,20);
ref = _dot;
},
{
closed = 1;
nodes = (
(460,500,l),
(380,580,l),
(220,580,l),
(220,500,l)
);
},
{
pos = (-20,240);
ref = "_corner.Serif.left_wBraille-TOP";
}
);
width = 560;
}
);
},
{
glyphname = Adieresis.sc;
lastChange = "2024-12-25 10:15:18 +0000";
layers = (
{
background = {
shapes = (
{
pos = (40,-460);
ref = _dot;
},
{
pos = (-200,-460);
ref = _dot;
},
{
pos = (40,-220);
ref = _dot;
},
{
pos = (-200,-460);
ref = _dot;
},
{
pos = (-200,20);
ref = _dot;
},
{
pos = (-200,-220);
ref = _dot;
},
{
pos = (40,20);
ref = _dot;
},
{
pos = (40,20);
ref = _dot;
},
{
pos = (40,-220);
ref = _dot;
}
);
};
hints = (
{
name = "_corner.leftSerif-TOP";
origin = (4,2);
type = Corner;
},
{
name = _corner.leftSerif;
origin = (8,3);
type = Corner;
},
{
name = _corner.rightSerif;
origin = (8,0);
type = Corner;
}
);
layerId = m01;
shapes = (
{
pos = (20,0);
ref = dieresis;
},
{
closed = 1;
nodes = (
(440,360,l),
(440,480,l),
(360,480,l),
(360,360,l)
);
},
{
closed = 1;
nodes = (
(200,120,l),
(200,520,l),
(120,520,l),
(120,120,l)
);
},
{
closed = 1;
nodes = (
(340,260,l),
(340,340,l),
(180,340,l),
(180,260,l)
);
},
{
closed = 1;
nodes = (
(340,500,l),
(340,580,l),
(120,580,l),
(120,500,l)
);
},
{
pos = (-200,-460);
ref = _dot;
},
{
pos = (40,20);
ref = _dot;
},
{
pos = (40,-220);
ref = _dot;
},
{
closed = 1;
nodes = (
(440,20,l),
(440,240,l),
(360,240,l),
(360,20,l)
);
},
{
pos = (-40,-180);
ref = "_corner.Serif.left_wBraille-BOTTOM";
},
{
pos = (60,-180);
ref = "_corner.Serif.right_wBraille-BOTTOM";
}
);
width = 560;
}
);
},
{
glyphname = B.sc;
lastChange = "2024-12-18 08:37:27 +0000";
layers = (
{
background = {
shapes = (
{
pos = (40,-460);
ref = _dot;
},
{
pos = (40,20);
ref = _dot;
},
{
pos = (40,-220);
ref = _dot;
},
{
pos = (-200,-460);
ref = _dot;
},
{
pos = (-200,20);
ref = _dot;
},
{
pos = (-200,-220);
ref = _dot;
}
);
};
hints = (
{
name = _corner.leftSerif;
origin = (7,3);
type = Corner;
}
);
layerId = m01;
shapes = (
{
closed = 1;
nodes = (
(460,340,l),
(460,500,l),
(380,500,l),
(380,380,l),
(380,300,l),
(400,300,l)
);
},
{
closed = 1;
nodes = (
(200,360,l),
(200,480,l),
(120,480,l),
(120,360,l)
);
},
{
closed = 0;
nodes = (
(420,80,l)
);
},
{
closed = 1;
nodes = (
(380,260,l),
(380,340,l),
(220,340,l),
(220,260,l)
);
},
{
closed = 1;
nodes = (
(460,500,l),
(380,580,l),
(220,580,l),
(220,500,l)
);
},
{
closed = 1;
nodes = (
(200,20,l),
(200,240,l),
(120,240,l),
(120,20,l)
);
},
{
closed = 1;
nodes = (
(460,100,l),
(460,260,l),
(400,300,l),
(380,300,l),
(380,220,l),
(380,100,l)
);
},
{
closed = 1;
nodes = (
(380,20,l),
(460,100,l),
(120,100,l),
(120,20,l)
);
},
{
pos = (-200,-220);
ref = _dot;
},
{
pos = (-200,20);
ref = _dot;
},
{
pos = (-20,240);
ref = "_corner.Serif.left_wBraille-TOP";
}
);
width = 560;
}
);
},
{
glyphname = C.sc;
lastChange = "2024-12-18 08:37:27 +0000";
layers = (
{
background = {
shapes = (
{
pos = (40,-460);
ref = _dot;
},
{
pos = (40,20);
ref = _dot;
},
{
pos = (40,-220);
ref = _dot;
},
{
pos = (-200,-460);
ref = _dot;
},
{
pos = (-200,20);
ref = _dot;
},
{
pos = (-200,-220);
ref = _dot;
}
);
};
layerId = m01;
shapes = (
{
closed = 1;
nodes = (
(200,480,l),
(120,480,l),
(120,100,l),
(200,60,l)
);
},
{
closed = 1;
nodes = (
(440,20,l),
(440,100,l),
(120,100,l),
(180,20,l)
);
},
{
closed = 1;
nodes = (
(440,100,l),
(440,160,l),
(360,160,l),
(360,120,l),
(360,80,l)
);
},
{
alignment = -1;
pos = (-200,20);
ref = _dot;
},
{
closed = 1;
nodes = (
(340,500,l),
(340,580,l),
(220,580,l),
(220,500,l)
);
},
{
alignment = -1;
pos = (40,20);
ref = _dot;
}
);
width = 560;
}
);
},
{
glyphname = D.sc;
lastChange = "2024-12-18 08:37:27 +0000";
layers = (
{
background = {
shapes = (
{
pos = (40,-460);
ref = _dot;
},
{
pos = (40,20);
ref = _dot;
},
{
pos = (40,-220);
ref = _dot;
},
{
pos = (-200,-460);
ref = _dot;
},
{
pos = (-200,20);
ref = _dot;
},
{
pos = (-200,-220);
ref = _dot;
}
);
};
hints = (
{
name = _corner.leftSerif;
origin = (0,3);
type = Corner;
}
);
layerId = m01;
shapes = (
{
closed = 1;
nodes = (
(360,20,l),
(360,100,l),
(120,100,l),
(120,20,l)
);
},
{
closed = 1;
nodes = (
(200,60,l),
(200,480,l),
(120,480,l),
(120,60,l)
);
},
{
alignment = -1;
pos = (40,-220);
ref = _dot;
},
{
alignment = -1;
pos = (-200,20);
ref = _dot;
},
{
closed = 1;
nodes = (
(340,500,l),
(340,580,l),
(220,580,l),
(220,500,l)
);
},
{
closed = 1;
nodes = (
(440,360,l),
(440,480,l),
(360,480,l),
(360,360,l)
);
},
{
alignment = -1;
pos = (40,20);
ref = _dot;
},
{
closed = 1;
nodes = (
(440,240,l),
(440,100,l),
(360,20,l),
(360,240,l)
);
},
{
pos = (-20,240);
ref = "_corner.Serif.left_wBraille-TOP";
}
);
width = 560;
},
{
associatedMasterId = m01;
background = {
shapes = (
{
pos = (40,-460);
ref = _dot;
},
{
pos = (40,20);
ref = _dot;
},
{
pos = (40,-220);
ref = _dot;
},
{
pos = (-200,-460);
ref = _dot;
},
{
pos = (-200,20);
ref = _dot;
},
{
pos = (-200,-220);
ref = _dot;
}
);
};
layerId = "8FE9AD80-5C08-4B1A-BF12-2B91FA4A190F";
name = "17. Dez. 24, 14:47";
shapes = (
{
closed = 1;
nodes = (
(320,20,l),
(440,220,l),
(440,240,l),
(360,240,l),
(240,20,l)
);
},
{
closed = 1;
nodes = (
(300,20,l),
(300,100,l),
(120,100,l),
(120,20,l)
);
},
{
closed = 1;
nodes = (
(200,60,l),
(200,480,l),
(120,480,l),
(120,60,l)
);
},
{
alignment = -1;
pos = (40,-220);
ref = _dot;
},
{
alignment = -1;
pos = (-200,20);
ref = _dot;
},
{
closed = 1;
nodes = (
(340,500,l),
(340,580,l),
(220,580,l),
(220,500,l)
);
},
{
closed = 1;
nodes = (
(440,360,l),
(440,480,l),
(360,480,l),
(360,360,l)
);
},
{
alignment = -1;
pos = (40,20);
ref = _dot;
}
);
width = 560;
}
);
},
{
glyphname = E.sc;
lastChange = "2024-12-18 08:37:27 +0000";
layers = (
{
background = {
shapes = (
{
pos = (40,-460);
ref = _dot;
},
{
pos = (40,20);
ref = _dot;
},
{
pos = (40,-220);
ref = _dot;
},
{
pos = (-200,-460);
ref = _dot;
},
{
pos = (-200,20);
ref = _dot;
},
{
pos = (-200,-220);
ref = _dot;
}
);
};
hints = (
{
name = _corner.leftSerif;
origin = (3,3);
type = Corner;
},
{
name = _corner.leftSerif;
origin = (2,1);
type = Corner;
},
{
name = _corner.rightSerif;
origin = (4,1);
type = Corner;
}
);
layerId = m01;
shapes = (
{
alignment = -1;
pos = (40,-220);
ref = _dot;
},
{
alignment = -1;
pos = (-200,20);
ref = _dot;
},
{
closed = 1;
nodes = (
(220,500,l),
(460,500,l),
(460,580,l),
(220,580,l)
);
},
{
closed = 1;
nodes = (
(200,20,l),
(200,480,l),
(120,480,l),
(120,20,l)
);
},
{
closed = 1;
nodes = (
(460,20,l),
(460,100,l),
(160,100,l),
(160,20,l)
);
},
{
closed = 1;
nodes = (
(340,260,l),
(340,340,l),
(140,340,l),
(140,260,l)
);
},
{
pos = (-20,240);
ref = "_corner.Serif.left_wBraille-TOP";
}
);
width = 560;
}
);
},
{
glyphname = F.sc;
lastChange = "2024-12-18 08:37:27 +0000";
layers = (
{
background = {
shapes = (
{
pos = (40,-460);
ref = _dot;
},
{
pos = (40,20);
ref = _dot;
},
{
pos = (40,-220);
ref = _dot;
},
{
pos = (-200,-460);
ref = _dot;
},
{
pos = (-200,20);
ref = _dot;
},
{
pos = (-200,-220);
ref = _dot;
}
);
};
hints = (
{
name = _corner.leftSerif;
origin = (3,3);
type = Corner;
},
{
name = _corner.rightSerif;
origin = (3,0);
type = Corner;
}
);
layerId = m01;
shapes = (
{
closed = 1;
nodes = (
(220,500,l),
(340,500,l),
(340,580,l),
(220,580,l)
);
},
{
closed = 1;
nodes = (
(200,480,l),
(200,360,l),
(120,360,l),
(120,480,l)
);
},
{
closed = 1;
nodes = (
(380,260,l),
(380,340,l),
(220,340,l),
(220,260,l)
);
},
{
closed = 1;
nodes = (
(200,20,l),
(200,240,l),
(120,240,l),
(120,20,l)
);
},
{
pos = (40,20);
ref = _dot;
},
{
pos = (-200,-220);
ref = _dot;
},
{
pos = (-200,20);
ref = _dot;
},
{
pos = (-20,240);
ref = "_corner.Serif.left_wBraille-TOP";
}
);
width = 560;
}
);
},
{
glyphname = G.sc;
lastChange = "2024-12-18 08:37:27 +0000";
layers = (
{
background = {
shapes = (
{
pos = (40,-460);
ref = _dot;
},
{
pos = (40,20);
ref = _dot;
},
{
pos = (40,-220);
ref = _dot;
},
{
pos = (-200,-460);
ref = _dot;
},
{
pos = (-200,20);
ref = _dot;
},
{
pos = (-200,-220);
ref = _dot;
}
);
};
layerId = m01;
shapes = (
{
alignment = -1;
pos = (40,-220);
ref = _dot;
},
{
alignment = -1;
pos = (-200,20);
ref = _dot;
},
{
alignment = -1;
pos = (40,20);
ref = _dot;
},
{
alignment = -1;
pos = (-200,-220);
ref = _dot;
},
{
closed = 1;
nodes = (
(220,500,l),
(340,500,l),
(340,580,l),
(220,580,l)
);
},
{
closed = 1;
nodes = (
(120,360,l),
(200,360,l),
(200,480,l),
(120,480,l)
);
},
{
closed = 1;
nodes = (
(120,100,l),
(180,20,l),
(200,20,l),
(200,240,l),
(120,240,l)
);
},
{
closed = 1;
nodes = (
(180,20,l),
(380,20,l),
(400,100,l),
(180,100,l)
);
},
{
closed = 1;
nodes = (
(360,20,l),
(380,20,l),
(440,100,l),
(440,240,l),
(360,240,l)
);
},
{
closed = 1;
nodes = (
(280,260,l),
(340,260,l),
(340,340,l),
(280,340,l)
);
}
);
width = 560;
}
);
},
{
glyphname = H.sc;
lastChange = "2024-12-18 08:37:27 +0000";
layers = (
{
background = {
shapes = (
{
pos = (40,-460);
ref = _dot;
},
{
pos = (40,20);
ref = _dot;
},
{
pos = (40,-220);
ref = _dot;
},
{
pos = (-200,-460);
ref = _dot;
},
{
pos = (-200,20);
ref = _dot;
},
{
pos = (-200,-220);
ref = _dot;
}
);
};
hints = (
{
name = _corner.leftSerif;
origin = (4,0);
type = Corner;
},
{
name = _corner.leftSerif;
origin = (5,0);
type = Corner;
},
{
name = _corner.rightSerif;
origin = (4,1);
type = Corner;
},
{
name = _corner.rightSerif;
origin = (5,1);
type = Corner;
},
{
name = "_corner.leftSerif-TOP";
origin = (6,2);
type = Corner;
},
{
name = "_corner.rightSerif-TOP";
origin = (6,1);
type = Corner;
}
);
layerId = m01;
shapes = (
{
closed = 1;
nodes = (
(120,360,l),
(200,360,l),
(200,480,l),
(120,480,l)
);
},
{
pos = (40,-220);
ref = _dot;
},
{
pos = (-200,20);
ref = _dot;
},
{
pos = (-200,-220);
ref = _dot;
},
{
closed = 1;
nodes = (
(120,20,l),
(200,20,l),
(200,240,l),
(120,240,l)
);
},
{
closed = 1;
nodes = (
(360,20,l),
(440,20,l),
(440,240,l),
(360,240,l)
);
},
{
closed = 1;
nodes = (
(440,360,l),
(440,580,l),
(360,580,l),
(360,360,l)
);
},
{
closed = 1;
nodes = (
(220,260,l),
(340,260,l),
(340,340,l),
(220,340,l)
);
},
{
pos = (-20,240);
ref = "_corner.Serif.left_wBraille-TOP";
}
);
width = 560;
}
);
},
{
glyphname = I.sc;
lastChange = "2024-12-18 08:37:27 +0000";
layers = (
{
background = {
shapes = (
{
pos = (40,-460);
ref = _dot;
},
{
pos = (40,20);
ref = _dot;
},
{
pos = (40,-220);
ref = _dot;
},
{
pos = (-200,-460);
ref = _dot;
},
{
pos = (-200,20);
ref = _dot;
},
{
pos = (-200,-220);
ref = _dot;
}
);
};
hints = (
{
name = _corner.leftSerif;
origin = (2,3);
type = Corner;
},
{
name = _corner.rightSerif;
origin = (2,0);
type = Corner;
},
{
name = "_corner.leftSerif-TOP";
origin = (2,2);
type = Corner;
}
);
layerId = m01;
shapes = (
{
alignment = -1;
pos = (40,20);
ref = _dot;
},
{
alignment = -1;
pos = (-200,-220);
ref = _dot;
},
{
closed = 1;
nodes = (
(320,20,l),
(320,580,l),
(240,580,l),
(240,20,l)
);
}
);
width = 560;
}
);
},
{
glyphname = J.sc;
lastChange = "2024-12-18 08:37:27 +0000";
layers = (
{
background = {
shapes = (
{
pos = (40,-460);
ref = _dot;
},
{
pos = (40,20);
ref = _dot;
},
{
pos = (40,-220);
ref = _dot;
},
{
pos = (-200,-460);
ref = _dot;
},
{
pos = (-200,20);
ref = _dot;
},
{
pos = (-200,-220);
ref = _dot;
}
);
};
layerId = m01;
shapes = (
{
closed = 1;
nodes = (
(400,20,l),
(440,100,l),
(120,100,l),
(200,20,l)
);
},
{
closed = 1;
nodes = (
(200,60,l),
(200,240,l),
(120,240,l),
(120,100,l)
);
},
{
alignment = -1;
pos = (-200,-220);
ref = _dot;
},
{
closed = 1;
nodes = (
(440,100,l),
(440,240,l),
(360,240,l),
(360,60,l)
);
},
{
alignment = -1;
pos = (40,-220);
ref = _dot;
},
{
closed = 1;
nodes = (
(440,360,l),
(440,480,l),
(360,480,l),
(360,360,l)
);
},
{
alignment = -1;
pos = (40,20);
ref = _dot;
},
{
closed = 1;
nodes = (
(340,500,l),
(340,580,l),
(140,580,l),
(140,500,l)
);
}
);
width = 560;
}
);
},
{
glyphname = K.sc;
lastChange = "2024-12-25 10:15:33 +0000";
layers = (
{
background = {
shapes = (
{
pos = (40,-460);
ref = _dot;
},
{
pos = (40,20);
ref = _dot;
},
{
pos = (40,-220);
ref = _dot;
},
{
pos = (-200,-460);
ref = _dot;
},
{
pos = (-200,20);
ref = _dot;
},
{
pos = (-200,-220);
ref = _dot;
}
);
};
hints = (
{
name = _corner.rightSerif;
origin = (6,0);
type = Corner;
},
{
name = "_corner.rightSerif-TOP";
origin = (2,1);
type = Corner;
}
);
layerId = m01;
shapes = (
{
alignment = -1;
pos = (-200,-460);
ref = _dot;
},
{
alignment = -1;
pos = (-200,20);
ref = _dot;
},
{
closed = 1;
nodes = (
(440,340,l),
(440,580,l),
(360,580,l),
(360,380,l),
(280,300,l),
(380,300,l)
);
},
{
closed = 0;
nodes = (
(400,80,l)
);
},
{
closed = 1;
nodes = (
(360,260,l),
(360,340,l),
(180,340,l),
(180,260,l)
);
},
{
closed = 1;
nodes = (
(200,120,l),
(200,480,l),
(120,480,l),
(120,120,l)
);
},
{
closed = 1;
nodes = (
(440,20,l),
(440,260,l),
(380,300,l),
(280,280,l),
(360,220,l),
(360,20,l)
);
},
{
pos = (-20,240);
ref = "_corner.Serif.left_wBraille-TOP";
},
{
pos = (-40,-180);
ref = "_corner.Serif.left_wBraille-BOTTOM";
}
);
width = 560;
},
{
associatedMasterId = m01;
background = {
shapes = (
{
pos = (80,-460);
ref = _dot;
},
{
pos = (80,20);
ref = _dot;
},
{
pos = (80,-220);
ref = _dot;
},
{
pos = (-160,-460);
ref = _dot;
},
{
pos = (-160,20);
ref = _dot;
},
{
pos = (-160,-220);
ref = _dot;
}
);
};
layerId = "4F36E665-CA84-4BBF-9D30-19AB6A6A668D";
name = "8. Dez. 24, 12:10";
shapes = (
{
alignment = -1;
pos = (-160,-460);
ref = _dot;
},
{
alignment = -1;
pos = (-160,20);
ref = _dot;
},
{
closed = 1;
nodes = (
(320,300,l),
(480,580,l),
(400,580,l),
(240,300,l)
);
},
{
closed = 1;
nodes = (
(240,140,l),
(240,460,l),
(160,460,l),
(160,140,l)
);
},
{
closed = 1;
nodes = (
(480,20,l),
(320,300,l),
(240,300,l),
(400,20,l)
);
},
{
closed = 1;
nodes = (
(220,260,l),
(220,340,l),
(200,340,l),
(200,260,l)
);
}
);
width = 600;
}
);
},
{
glyphname = L.sc;
lastChange = "2024-12-25 10:15:46 +0000";
layers = (
{
background = {
shapes = (
{
pos = (40,-460);
ref = _dot;
},
{
pos = (40,20);
ref = _dot;
},
{
pos = (40,-220);
ref = _dot;
},
{
pos = (-200,-460);
ref = _dot;
},
{
pos = (-200,20);
ref = _dot;
},
{
pos = (-200,-220);
ref = _dot;
}
);
};
hints = (
{
name = _corner.rightSerif;
origin = (5,1);
type = Corner;
}
);
layerId = m01;
shapes = (
{
alignment = -1;
pos = (-200,-460);
ref = _dot;
},
{
alignment = -1;
pos = (-200,20);
ref = _dot;
},
{
alignment = -1;
pos = (-200,-220);
ref = _dot;
},
{
closed = 1;
nodes = (
(200,480,l),
(200,360,l),
(120,360,l),
(120,480,l)
);
},
{
closed = 1;
nodes = (
(200,240,l),
(200,120,l),
(120,120,l),
(120,240,l)
);
},
{
closed = 1;
nodes = (
(460,20,l),
(460,100,l),
(220,100,l),
(220,20,l)
);
},
{
pos = (-20,240);
ref = "_corner.Serif.left_wBraille-TOP";
},
{
pos = (-40,-180);
ref = "_corner.Serif.left_wBraille-BOTTOM";
}
);
width = 560;
}
);
},
{
glyphname = M.sc;
lastChange = "2024-12-18 08:37:27 +0000";
layers = (
{
background = {
shapes = (
{
pos = (40,-460);
ref = _dot;
},
{
pos = (40,20);
ref = _dot;
},
{
pos = (40,-220);
ref = _dot;
},
{
pos = (-200,-460);
ref = _dot;
},
{
pos = (-200,20);
ref = _dot;
},
{
pos = (-200,-220);
ref = _dot;
}
);
};
layerId = m01;
shapes = (
{
alignment = -1;
pos = (-200,-460);
ref = _dot;
},
{
alignment = -1;
pos = (-200,20);
ref = _dot;
},
{
alignment = -1;
pos = (40,20);
ref = _dot;
},
{
closed = 1;
nodes = (
(200,480,l),
(200,120,l),
(120,120,l),
(120,480,l)
);
},
{
closed = 1;
nodes = (
(440,480,l),
(440,20,l),
(360,20,l),
(360,480,l)
);
},
{
closed = 1;
nodes = (
(280,520,l),
(280,420,l),
(220,480,l),
(220,580,l)
);
},
{
closed = 1;
nodes = (
(340,480,l),
(280,420,l),
(280,520,l),
(340,580,l)
);
},
{
pos = (-20,240);
ref = "_corner.Serif.left_wBraille-TOP";
}
);
width = 560;
},
{
associatedMasterId = m01;
background = {
shapes = (
{
pos = (80,-460);
ref = _dot;
},
{
pos = (80,20);
ref = _dot;
},
{
pos = (80,-220);
ref = _dot;
},
{
pos = (-160,-460);
ref = _dot;
},
{
pos = (-160,20);
ref = _dot;
},
{
pos = (-160,-220);
ref = _dot;
}
);
};
layerId = "86DB598B-9AD7-4577-9587-9881C681CB1F";
name = "8. Dez. 24, 12:18";
shapes = (
{
alignment = -1;
pos = (-160,-460);
ref = _dot;
},
{
alignment = -1;
pos = (-160,20);
ref = _dot;
},
{
alignment = -1;
pos = (80,20);
ref = _dot;
},
{
closed = 1;
nodes = (
(240,460,l),
(240,140,l),
(160,140,l),
(160,460,l)
);
},
{
closed = 1;
nodes = (
(480,460,l),
(480,20,l),
(400,20,l),
(400,460,l)
);
},
{
closed = 1;
nodes = (
(360,580,l),
(360,500,l),
(280,500,l),
(280,580,l)
);
}
);
width = 600;
}
);
},
{
glyphname = N.sc;
lastChange = "2024-12-18 08:37:27 +0000";
layers = (
{
background = {
shapes = (
{
pos = (40,-460);
ref = _dot;
},
{
pos = (40,20);
ref = _dot;
},
{
pos = (40,-220);
ref = _dot;
},
{
pos = (-200,-460);
ref = _dot;
},
{
pos = (-200,20);
ref = _dot;
},
{
pos = (-200,-220);
ref = _dot;
}
);
};
layerId = m01;
shapes = (
{
alignment = -1;
pos = (-200,-460);
ref = _dot;
},
{
alignment = -1;
pos = (-200,20);
ref = _dot;
},
{
alignment = -1;
pos = (40,20);
ref = _dot;
},
{
alignment = -1;
pos = (40,-220);
ref = _dot;
},
{
closed = 1;
nodes = (
(200,480,l),
(200,120,l),
(120,120,l),
(120,480,l)
);
},
{
closed = 1;
nodes = (
(440,480,l),
(440,360,l),
(360,360,l),
(360,480,l)
);
},
{
closed = 1;
nodes = (
(440,240,l),
(440,20,l),
(360,20,l),
(360,240,l)
);
},
{
closed = 1;
nodes = (
(240,580,l),
(360,160,l),
(360,20,l),
(340,20,l),
(220,400,l),
(220,580,l)
);
},
{
pos = (-20,240);
ref = "_corner.Serif.left_wBraille-TOP";
}
);
width = 560;
}
);
},
{
glyphname = O.sc;
lastChange = "2024-12-18 08:37:27 +0000";
layers = (
{
background = {
shapes = (
{
pos = (40,-460);
ref = _dot;
},
{
pos = (40,20);
ref = _dot;
},
{
pos = (40,-220);
ref = _dot;
},
{
pos = (-200,-460);
ref = _dot;
},
{
pos = (-200,20);
ref = _dot;
},
{
pos = (-200,-220);
ref = _dot;
}
);
};
layerId = m01;
shapes = (
{
alignment = -1;
pos = (40,-220);
ref = _dot;
},
{
alignment = -1;
pos = (-200,20);
ref = _dot;
},
{
alignment = -1;
pos = (-200,-460);
ref = _dot;
},
{
closed = 1;
nodes = (
(120,120,l),
(200,120,l),
(200,480,l),
(120,480,l)
);
},
{
closed = 1;
nodes = (
(220,20,l),
(380,20,l),
(400,100,l),
(220,100,l)
);
},
{
closed = 1;
nodes = (
(360,20,l),
(440,20,l),
(440,100,l),
(440,240,l),
(360,240,l)
);
},
{
closed = 1;
nodes = (
(360,360,l),
(440,360,l),
(440,580,l),
(360,580,l)
);
},
{
closed = 1;
nodes = (
(220,500,l),
(400,500,l),
(400,580,l),
(220,580,l)
);
}
);
width = 560;
}
);
},
{
glyphname = Odieresis.sc;
lastChange = "2024-12-18 08:37:27 +0000";
layers = (
{
background = {
shapes = (
{
pos = (40,-460);
ref = _dot;
},
{
pos = (-200,-460);
ref = _dot;
},
{
pos = (-200,20);
ref = _dot;
},
{
pos = (-200,-220);
ref = _dot;
},
{
pos = (40,20);
ref = _dot;
},
{
pos = (40,-220);
ref = _dot;
}
);
};
layerId = m01;
shapes = (
{
closed = 1;
nodes = (
(440,120,l),
(440,480,l),
(360,480,l),
(360,120,l)
);
},
{
closed = 1;
nodes = (
(200,60,l),
(200,240,l),
(120,240,l),
(120,60,l),
(160,20,l)
);
},
{
closed = 1;
nodes = (
(340,20,l),
(340,100,l),
(160,100,l),
(160,20,l)
);
},
{
alignment = -1;
pos = (40,-460);
ref = _dot;
},
{
alignment = -1;
pos = (-200,-220);
ref = _dot;
},
{
closed = 1;
nodes = (
(200,360,l),
(200,540,l),
(160,580,l),
(120,520,l),
(120,360,l)
);
},
{
closed = 1;
nodes = (
(340,500,l),
(340,580,l),
(160,580,l),
(160,500,l)
);
},
{
alignment = -1;
pos = (40,20);
ref = _dot;
},
{
pos = (20,0);
ref = dieresis;
}
);
width = 560;
}
);
},
{
glyphname = P.sc;
lastChange = "2024-12-25 10:15:58 +0000";
layers = (
{
background = {
shapes = (
{
pos = (40,-460);
ref = _dot;
},
{
pos = (40,20);
ref = _dot;
},
{
pos = (40,-220);
ref = _dot;
},
{
pos = (-200,-460);
ref = _dot;
},
{
pos = (-200,20);
ref = _dot;
},
{
pos = (-200,-220);
ref = _dot;
}
);
};
layerId = m01;
shapes = (
{
closed = 1;
nodes = (
(120,360,l),
(200,360,l),
(200,480,l),
(120,480,l)
);
},
{
closed = 1;
nodes = (
(220,260,l),
(380,260,l),
(440,340,l),
(220,340,l)
);
},
{
closed = 1;
nodes = (
(360,340,l),
(440,340,l),
(440,480,l),
(360,480,l)
);
},
{
closed = 1;
nodes = (
(220,500,l),
(340,500,l),
(340,580,l),
(220,580,l)
);
},
{
closed = 1;
nodes = (
(120,120,l),
(200,120,l),
(200,240,l),
(120,240,l)
);
},
{
pos = (-200,-460);
ref = _dot;
},
{
pos = (40,20);
ref = _dot;
},
{
pos = (-200,-220);
ref = _dot;
},
{
pos = (-200,20);
ref = _dot;
},
{
pos = (-20,240);
ref = "_corner.Serif.left_wBraille-TOP";
},
{
pos = (-40,-180);
ref = "_corner.Serif.left_wBraille-BOTTOM";
},
{
pos = (60,-180);
ref = "_corner.Serif.right_wBraille-BOTTOM";
}
);
width = 560;
}
);
},
{
glyphname = Q.sc;
lastChange = "2024-12-18 08:37:27 +0000";
layers = (
{
background = {
shapes = (
{
pos = (40,-460);
ref = _dot;
},
{
pos = (40,20);
ref = _dot;
},
{
pos = (40,-220);
ref = _dot;
},
{
pos = (-200,-460);
ref = _dot;
},
{
pos = (-200,20);
ref = _dot;
},
{
pos = (-200,-220);
ref = _dot;
}
);
};
layerId = m01;
shapes = (
{
closed = 1;
nodes = (
(120,360,l),
(200,360,l),
(200,480,l),
(120,480,l)
);
},
{
closed = 1;
nodes = (
(220,20,l),
(380,20,l),
(400,100,l),
(220,100,l)
);
},
{
closed = 1;
nodes = (
(360,20,l),
(380,20,l),
(440,100,l),
(440,240,l),
(360,240,l)
);
},
{
closed = 1;
nodes = (
(360,360,l),
(440,360,l),
(440,480,l),
(360,480,l)
);
},
{
closed = 1;
nodes = (
(220,500,l),
(340,500,l),
(340,580,l),
(220,580,l)
);
},
{
closed = 1;
nodes = (
(120,120,l),
(200,120,l),
(200,240,l),
(120,240,l)
);
},
{
pos = (-200,-460);
ref = _dot;
},
{
pos = (-200,20);
ref = _dot;
},
{
pos = (40,20);
ref = _dot;
},
{
pos = (-200,-220);
ref = _dot;
},
{
pos = (40,-220);
ref = _dot;
},
{
closed = 1;
nodes = (
(240,-40,l),
(320,-40,l),
(320,200,l),
(240,200,l)
);
}
);
width = 560;
}
);
},
{
glyphname = R.sc;
lastChange = "2024-12-25 10:16:08 +0000";
layers = (
{
background = {
shapes = (
{
pos = (40,-460);
ref = _dot;
},
{
pos = (40,20);
ref = _dot;
},
{
pos = (40,-220);
ref = _dot;
},
{
pos = (-200,-460);
ref = _dot;
},
{
pos = (-200,20);
ref = _dot;
},
{
pos = (-200,-220);
ref = _dot;
}
);
};
hints = (
{
name = _corner.rightSerif;
origin = (6,0);
type = Corner;
}
);
layerId = m01;
shapes = (
{
alignment = -1;
pos = (40,-220);
ref = _dot;
},
{
alignment = -1;
pos = (-200,20);
ref = _dot;
},
{
alignment = -1;
pos = (-200,-220);
ref = _dot;
},
{
alignment = -1;
pos = (-200,-460);
ref = _dot;
},
{
closed = 1;
nodes = (
(440,400,l),
(440,500,l),
(360,500,l),
(360,460,l),
(360,360,l),
(380,360,l)
);
},
{
closed = 1;
nodes = (
(440,500,l),
(360,580,l),
(220,580,l),
(220,500,l)
);
},
{
closed = 1;
nodes = (
(440,20,l),
(400,200,l),
(340,240,l),
(280,240,l),
(360,20,l)
);
},
{
closed = 1;
nodes = (
(340,260,l),
(340,340,l),
(220,340,l),
(220,260,l)
);
},
{
closed = 1;
nodes = (
(200,360,l),
(200,480,l),
(120,480,l),
(120,360,l)
);
},
{
closed = 1;
nodes = (
(200,120,l),
(200,240,l),
(120,240,l),
(120,120,l)
);
},
{
pos = (-20,240);
ref = "_corner.Serif.left_wBraille-TOP";
},
{
pos = (-40,-180);
ref = "_corner.Serif.left_wBraille-BOTTOM";
},
{
pos = (60,-180);
ref = "_corner.Serif.right_wBraille-BOTTOM";
}
);
width = 560;
}
);
},
{
glyphname = S.sc;
lastChange = "2024-12-18 08:37:27 +0000";
layers = (
{
background = {
shapes = (
{
pos = (40,-460);
ref = _dot;
},
{
pos = (40,20);
ref = _dot;
},
{
pos = (40,-220);
ref = _dot;
},
{
pos = (-200,-460);
ref = _dot;
},
{
pos = (-200,20);
ref = _dot;
},
{
pos = (-200,-220);
ref = _dot;
}
);
};
layerId = m01;
shapes = (
{
alignment = -1;
pos = (-200,-460);
ref = _dot;
},
{
alignment = -1;
pos = (-200,-220);
ref = _dot;
},
{
alignment = -1;
pos = (40,20);
ref = _dot;
},
{
closed = 1;
nodes = (
(200,360,l),
(200,460,l),
(200,500,l),
(120,500,l),
(120,380,l),
(140,360,l)
);
},
{
closed = 1;
nodes = (
(340,580,l),
(200,580,l),
(120,500,l),
(340,500,l)
);
},
{
closed = 1;
nodes = (
(380,260,l),
(380,340,l),
(220,340,l),
(220,280,l),
(240,260,l)
);
},
{
closed = 1;
nodes = (
(460,100,l),
(460,280,l),
(400,340,l),
(380,340,l),
(380,260,l),
(380,220,l),
(380,100,l)
);
},
{
closed = 1;
nodes = (
(380,20,l),
(460,100,l),
(220,100,l),
(220,20,l)
);
},
{
closed = 1;
nodes = (
(440,480,l),
(440,400,l),
(380,400,l),
(360,420,l),
(360,480,l)
);
}
);
width = 560;
}
);
},
{
glyphname = Germandbls.sc;
lastChange = "2024-12-22 20:00:57 +0000";
layers = (
{
background = {
shapes = (
{
pos = (40,-460);
ref = _dot;
},
{
pos = (40,20);
ref = _dot;
},
{
pos = (40,-220);
ref = _dot;
},
{
pos = (-200,-460);
ref = _dot;
},
{
pos = (-200,20);
ref = _dot;
},
{
pos = (-200,-220);
ref = _dot;
}
);
};
hints = (
{
name = "_corner.leftSerif-TOP";
origin = (4,2);
type = Corner;
}
);
layerId = m01;
shapes = (
{
alignment = -1;
pos = (-200,-460);
ref = _dot;
},
{
alignment = -1;
pos = (40,-460);
ref = _dot;
},
{
alignment = -1;
pos = (40,20);
ref = _dot;
},
{
alignment = -1;
pos = (-200,-220);
ref = _dot;
},
{
closed = 1;
nodes = (
(200,360,l),
(200,600,l),
(120,600,l),
(120,360,l)
);
},
{
closed = 1;
nodes = (
(340,520,l),
(340,600,l),
(200,600,l),
(180,520,l)
);
},
{
closed = 1;
nodes = (
(200,240,l),
(200,120,l),
(120,120,l),
(120,240,l)
);
},
{
closed = 1;
nodes = (
(440,480,l),
(440,340,l),
(360,260,l),
(360,480,l)
);
},
{
closed = 1;
nodes = (
(220,320,l),
(280,260,l),
(360,260,l),
(360,340,l),
(220,340,l)
);
},
{
closed = 1;
nodes = (
(440,200,l),
(440,120,l),
(360,120,l),
(360,260,l)
);
},
{
closed = 1;
nodes = (
(200,0,l),
(200,-80,l),
(120,-80,l),
(120,0,l)
);
},
{
closed = 1;
nodes = (
(340,20,l),
(280,20,l),
(220,100,l),
(340,100,l)
);
}
);
width = 600;
}
);
},
{
glyphname = T.sc;
lastChange = "2024-12-18 08:37:27 +0000";
layers = (
{
background = {
shapes = (
{
pos = (40,-460);
ref = _dot;
},
{
pos = (40,20);
ref = _dot;
},
{
pos = (40,-220);
ref = _dot;
},
{
pos = (-200,-460);
ref = _dot;
},
{
pos = (-200,20);
ref = _dot;
},
{
pos = (-200,-220);
ref = _dot;
}
);
};
hints = (
{
name = "_corner.leftSerif-TOP";
origin = (5,3);
type = Corner;
}
);
layerId = m01;
shapes = (
{
alignment = -1;
pos = (40,20);
ref = _dot;
},
{
alignment = -1;
pos = (-200,-460);
ref = _dot;
},
{
alignment = -1;
pos = (-200,-220);
ref = _dot;
},
{
alignment = -1;
pos = (40,-220);
ref = _dot;
},
{
closed = 1;
nodes = (
(320,20,l),
(320,580,l),
(240,580,l),
(240,20,l)
);
},
{
closed = 1;
nodes = (
(340,500,l),
(340,580,l),
(100,580,l),
(100,500,l)
);
}
);
width = 560;
}
);
},
{
glyphname = U.sc;
lastChange = "2024-12-18 08:37:27 +0000";
layers = (
{
background = {
shapes = (
{
pos = (40,-460);
ref = _dot;
},
{
pos = (40,20);
ref = _dot;
},
{
pos = (40,-220);
ref = _dot;
},
{
pos = (-200,-460);
ref = _dot;
},
{
pos = (-200,20);
ref = _dot;
},
{
pos = (-200,-220);
ref = _dot;
}
);
};
hints = (
{
name = "_corner.rightSerif-TOP";
origin = (4,1);
type = Corner;
}
);
layerId = m01;
shapes = (
{
alignment = -1;
pos = (40,-460);
ref = _dot;
},
{
alignment = -1;
pos = (-200,20);
ref = _dot;
},
{
alignment = -1;
pos = (-200,-460);
ref = _dot;
},
{
closed = 1;
nodes = (
(200,480,l),
(200,120,l),
(120,120,l),
(120,480,l)
);
},
{
closed = 1;
nodes = (
(440,120,l),
(440,580,l),
(360,580,l),
(360,120,l)
);
},
{
closed = 1;
nodes = (
(220,20,l),
(340,20,l),
(340,100,l),
(220,100,l)
);
},
{
pos = (-20,240);
ref = "_corner.Serif.left_wBraille-TOP";
}
);
width = 560;
}
);
},
{
glyphname = Udieresis.sc;
lastChange = "2024-12-18 08:37:27 +0000";
layers = (
{
background = {
shapes = (
{
pos = (40,-460);
ref = _dot;
},
{
pos = (40,20);
ref = _dot;
},
{
pos = (40,-220);
ref = _dot;
},
{
pos = (-200,-460);
ref = _dot;
},
{
pos = (-200,20);
ref = _dot;
},
{
pos = (-200,-220);
ref = _dot;
}
);
};
hints = (
{
name = "_corner.rightSerif-TOP";
origin = (0,1);
type = Corner;
}
);
layerId = m01;
shapes = (
{
closed = 1;
nodes = (
(440,360,l),
(440,580,l),
(360,580,l),
(360,360,l)
);
},
{
closed = 1;
nodes = (
(340,20,l),
(340,100,l),
(120,100,l),
(160,20,l)
);
},
{
closed = 1;
nodes = (
(200,240,l),
(120,240,l),
(120,100,l),
(200,60,l)
);
},
{
alignment = -1;
pos = (40,-460);
ref = _dot;
},
{
alignment = -1;
pos = (-200,-220);
ref = _dot;
},
{
closed = 1;
nodes = (
(200,360,l),
(200,480,l),
(120,480,l),
(120,360,l)
);
},
{
closed = 1;
nodes = (
(440,120,l),
(440,240,l),
(360,240,l),
(360,120,l)
);
},
{
alignment = -1;
pos = (-200,20);
ref = _dot;
},
{
alignment = -1;
pos = (40,-220);
ref = _dot;
},
{
pos = (20,0);
ref = dieresis;
},
{
pos = (-20,240);
ref = "_corner.Serif.left_wBraille-TOP";
}
);
width = 560;
}
);
},
{
glyphname = V.sc;
lastChange = "2024-12-18 08:37:27 +0000";
layers = (
{
background = {
shapes = (
{
pos = (40,-460);
ref = _dot;
},
{
pos = (40,20);
ref = _dot;
},
{
pos = (40,-220);
ref = _dot;
},
{
pos = (-200,-460);
ref = _dot;
},
{
pos = (-200,20);
ref = _dot;
},
{
pos = (-200,-220);
ref = _dot;
}
);
};
layerId = m01;
shapes = (
{
closed = 1;
nodes = (
(380,120,l),
(440,220,l),
(440,580,l),
(360,580,l),
(360,120,l)
);
},
{
alignment = -1;
pos = (-200,-460);
ref = _dot;
},
{
closed = 1;
nodes = (
(200,120,l),
(200,240,l),
(120,240,l),
(120,220,l),
(180,120,l)
);
},
{
closed = 1;
nodes = (
(340,40,l),
(340,160,l),
(280,80,l),
(220,160,l),
(220,40,l),
(280,-40,l)
);
},
{
closed = 1;
nodes = (
(220,120,l),
(220,160,l),
(180,220,l),
(180,120,l)
);
},
{
alignment = -1;
pos = (40,-460);
ref = _dot;
},
{
alignment = -1;
pos = (-200,-220);
ref = _dot;
},
{
closed = 1;
nodes = (
(380,120,l),
(380,220,l),
(340,160,l),
(340,120,l)
);
},
{
closed = 1;
nodes = (
(200,360,l),
(200,480,l),
(120,480,l),
(120,360,l)
);
},
{
alignment = -1;
pos = (-200,20);
ref = _dot;
}
);
width = 560;
}
);
},
{
glyphname = W.sc;
lastChange = "2024-12-18 08:37:27 +0000";
layers = (
{
background = {
shapes = (
{
pos = (40,-460);
ref = _dot;
},
{
pos = (40,20);
ref = _dot;
},
{
pos = (40,-220);
ref = _dot;
},
{
pos = (-200,-460);
ref = _dot;
},
{
pos = (-200,20);
ref = _dot;
},
{
pos = (-200,-220);
ref = _dot;
}
);
};
layerId = m01;
shapes = (
{
closed = 1;
nodes = (
(240,20,l),
(280,80,l),
(320,20,l),
(320,120,l),
(280,240,l),
(240,120,l),
(200,200,l),
(200,240,l),
(120,240,l),
(120,180,l),
(220,20,l)
);
},
{
alignment = -1;
pos = (40,-460);
ref = _dot;
},
{
alignment = -1;
pos = (-200,-220);
ref = _dot;
},
{
closed = 1;
nodes = (
(380,140,l),
(440,180,l),
(440,240,l),
(360,240,l),
(360,140,l)
);
},
{
closed = 1;
nodes = (
(200,360,l),
(200,580,l),
(120,580,l),
(120,360,l)
);
},
{
alignment = -1;
pos = (40,-220);
ref = _dot;
},
{
closed = 1;
nodes = (
(440,360,l),
(440,480,l),
(360,480,l),
(360,360,l)
);
},
{
alignment = -1;
pos = (40,20);
ref = _dot;
}
);
width = 560;
}
);
},
{
glyphname = X.sc;
lastChange = "2024-12-18 08:37:27 +0000";
layers = (
{
background = {
shapes = (
{
pos = (40,-460);
ref = _dot;
},
{
pos = (40,20);
ref = _dot;
},
{
pos = (40,-220);
ref = _dot;
},
{
pos = (-200,-460);
ref = _dot;
},
{
pos = (-200,20);
ref = _dot;
},
{
pos = (-200,-220);
ref = _dot;
}
);
};
layerId = m01;
shapes = (
{
alignment = -1;
pos = (40,-460);
ref = _dot;
},
{
alignment = -1;
pos = (-200,20);
ref = _dot;
},
{
alignment = -1;
pos = (40,20);
ref = _dot;
},
{
alignment = -1;
pos = (-200,-460);
ref = _dot;
},
{
closed = 1;
nodes = (
(240,80,l),
(220,80,l),
(220,120,l),
(160,120,l),
(320,520,l),
(340,520,l),
(340,480,l),
(400,480,l)
);
},
{
closed = 1;
nodes = (
(220,480,l),
(220,520,l),
(240,520,l),
(400,120,l),
(340,120,l),
(340,80,l),
(320,80,l),
(160,480,l)
);
}
);
width = 560;
}
);
},
{
glyphname = Y.sc;
lastChange = "2024-12-18 08:37:27 +0000";
layers = (
{
background = {
shapes = (
{
pos = (-200,-220);
ref = _dot;
}
);
};
layerId = m01;
shapes = (
{
closed = 1;
nodes = (
(320,300,l),
(220,500,l),
(200,480,l),
(160,480,l),
(160,460,l),
(240,300,l)
);
},
{
alignment = -1;
pos = (-200,-460);
ref = _dot;
},
{
closed = 1;
nodes = (
(320,20,l),
(320,300,l),
(240,300,l),
(240,20,l)
);
},
{
alignment = -1;
pos = (40,-460);
ref = _dot;
},
{
alignment = -1;
pos = (-200,20);
ref = _dot;
},
{
alignment = -1;
pos = (40,-220);
ref = _dot;
},
{
alignment = -1;
pos = (40,20);
ref = _dot;
},
{
closed = 1;
nodes = (
(400,460,l),
(400,480,l),
(360,480,l),
(340,500,l),
(240,300,l),
(320,300,l)
);
}
);
width = 560;
},
{
associatedMasterId = m01;
background = {
shapes = (
{
pos = (60,-460);
ref = _dot;
},
{
pos = (60,20);
ref = _dot;
},
{
pos = (60,-220);
ref = _dot;
},
{
pos = (-180,-460);
ref = _dot;
},
{
pos = (-180,20);
ref = _dot;
},
{
pos = (-180,-220);
ref = _dot;
}
);
};
layerId = "03EABA37-CCF9-4A5F-92DA-7CD52AD2B5A1";
name = "8. Dez. 24, 13:36";
shapes = (
{
closed = 1;
nodes = (
(340,260,l),
(340,340,l),
(140,340,l),
(200,260,l)
);
},
{
alignment = -1;
pos = (-160,-460);
ref = _dot;
},
{
closed = 1;
nodes = (
(340,20,l),
(340,100,l),
(260,100,l),
(260,20,l)
);
},
{
alignment = -1;
pos = (80,-460);
ref = _dot;
},
{
closed = 1;
nodes = (
(220,460,l),
(140,460,l),
(140,340,l),
(220,300,l)
);
},
{
closed = 1;
nodes = (
(460,140,l),
(460,220,l),
(380,220,l),
(380,140,l)
);
},
{
alignment = -1;
pos = (-160,20);
ref = _dot;
},
{
alignment = -1;
pos = (80,-220);
ref = _dot;
},
{
closed = 1;
nodes = (
(460,380,l),
(460,460,l),
(380,460,l),
(380,380,l)
);
},
{
alignment = -1;
pos = (80,20);
ref = _dot;
}
);
width = 600;
}
);
},
{
glyphname = Z.sc;
lastChange = "2024-12-18 08:37:27 +0000";
layers = (
{
background = {
shapes = (
{
pos = (40,-460);
ref = _dot;
},
{
pos = (40,20);
ref = _dot;
},
{
pos = (40,-220);
ref = _dot;
},
{
pos = (-200,-460);
ref = _dot;
},
{
pos = (-200,20);
ref = _dot;
},
{
pos = (-200,-220);
ref = _dot;
}
);
};
layerId = m01;
shapes = (
{
closed = 1;
nodes = (
(200,120,l),
(240,160,l),
(440,480,l),
(440,580,l),
(360,580,l),
(360,500,l),
(120,120,l)
);
},
{
alignment = -1;
pos = (-200,-460);
ref = _dot;
},
{
closed = 1;
nodes = (
(340,20,l),
(340,100,l),
(220,100,l),
(220,20,l)
);
},
{
alignment = -1;
pos = (40,-460);
ref = _dot;
},
{
closed = 1;
nodes = (
(440,120,l),
(440,240,l),
(360,240,l),
(360,120,l)
);
},
{
alignment = -1;
pos = (-200,20);
ref = _dot;
},
{
alignment = -1;
pos = (40,-220);
ref = _dot;
},
{
closed = 1;
nodes = (
(400,500,l),
(400,580,l),
(220,580,l),
(220,500,l)
);
},
{
closed = 1;
nodes = (
(200,480,l),
(200,400,l),
(120,400,l),
(120,480,l)
);
}
);
width = 560;
}
);
},
{
glyphname = R.sc.001;
lastChange = "2024-12-18 19:20:54 +0000";
layers = (
{
background = {
shapes = (
{
pos = (40,-460);
ref = _dot;
},
{
pos = (40,20);
ref = _dot;
},
{
pos = (40,-220);
ref = _dot;
},
{
pos = (-200,-460);
ref = _dot;
},
{
pos = (-200,20);
ref = _dot;
},
{
pos = (-200,-220);
ref = _dot;
}
);
};
layerId = m01;
shapes = (
{
closed = 1;
nodes = (
(390,280,o),
(380,290,o),
(380,300,cs),
(380,310,o),
(390,320,o),
(400,320,cs),
(410,320,o),
(420,310,o),
(420,300,cs),
(420,290,o),
(410,280,o),
(400,280,cs)
);
},
{
closed = 1;
nodes = (
(435,260,o),
(440,265,o),
(440,300,cs),
(440,335,o),
(435,340,o),
(400,340,cs),
(365,340,o),
(360,335,o),
(360,300,cs),
(360,265,o),
(365,260,o),
(400,260,cs)
);
},
{
closed = 1;
nodes = (
(150,520,o),
(140,530,o),
(140,540,cs),
(140,550,o),
(150,560,o),
(160,560,cs),
(170,560,o),
(180,550,o),
(180,540,cs),
(180,530,o),
(170,520,o),
(160,520,cs)
);
},
{
closed = 1;
nodes = (
(195,500,o),
(200,505,o),
(200,540,cs),
(200,575,o),
(195,580,o),
(160,580,cs),
(125,580,o),
(120,575,o),
(120,540,cs),
(120,505,o),
(125,500,o),
(160,500,cs)
);
},
{
closed = 1;
nodes = (
(150,280,o),
(140,290,o),
(140,300,cs),
(140,310,o),
(150,320,o),
(160,320,cs),
(170,320,o),
(180,310,o),
(180,300,cs),
(180,290,o),
(170,280,o),
(160,280,cs)
);
},
{
closed = 1;
nodes = (
(195,260,o),
(200,265,o),
(200,300,cs),
(200,335,o),
(195,340,o),
(160,340,cs),
(125,340,o),
(120,335,o),
(120,300,cs),
(120,265,o),
(125,260,o),
(160,260,cs)
);
},
{
closed = 1;
nodes = (
(150,40,o),
(140,50,o),
(140,60,cs),
(140,70,o),
(150,80,o),
(160,80,cs),
(170,80,o),
(180,70,o),
(180,60,cs),
(180,50,o),
(170,40,o),
(160,40,cs)
);
},
{
closed = 1;
nodes = (
(195,20,o),
(200,25,o),
(200,60,cs),
(200,95,o),
(195,100,o),
(160,100,cs),
(125,100,o),
(120,95,o),
(120,60,cs),
(120,25,o),
(125,20,o),
(160,20,cs)
);
},
{
closed = 1;
nodes = (
(440,400,l),
(440,500,l),
(360,500,l),
(360,460,l),
(360,360,l),
(380,360,l)
);
},
{
closed = 1;
nodes = (
(440,500,l),
(360,580,l),
(220,580,l),
(220,500,l)
);
},
{
closed = 1;
nodes = (
(440,20,l),
(480,20,l),
(460,80,l),
(420,100,l),
(400,200,l),
(340,240,l),
(280,240,l),
(360,20,l)
);
},
{
closed = 1;
nodes = (
(340,260,l),
(340,340,l),
(220,340,l),
(220,260,l)
);
},
{
closed = 1;
nodes = (
(200,360,l),
(200,480,l),
(120,480,l),
(120,360,l)
);
},
{
closed = 1;
nodes = (
(200,120,l),
(200,240,l),
(120,240,l),
(120,120,l)
);
},
{
closed = 1;
nodes = (
(100,500,l),
(60,520,l),
(80,580,l),
(100,580,l)
);
},
{
closed = 1;
nodes = (
(100,100,l),
(60,80,l),
(60,20,l),
(100,20,l)
);
},
{
closed = 1;
nodes = (
(220,100,l),
(260,80,l),
(260,20,l),
(220,20,l),
(220,100,l),
(220,80,l),
(220,40,l)
);
}
);
width = 560;
}
);
},
{
glyphname = Adieresis_U.sc;
lastChange = "2024-12-18 08:37:27 +0000";
layers = (
{
background = {
shapes = (
{
pos = (40,-460);
ref = _dot;
},
{
pos = (40,20);
ref = _dot;
},
{
pos = (40,-220);
ref = _dot;
},
{
pos = (-200,-460);
ref = _dot;
},
{
pos = (-200,20);
ref = _dot;
},
{
pos = (-200,-220);
ref = _dot;
},
{
pos = (40,-460);
ref = _dot;
},
{
pos = (40,20);
ref = _dot;
},
{
pos = (40,-220);
ref = _dot;
},
{
pos = (-200,-460);
ref = _dot;
},
{
pos = (-200,20);
ref = _dot;
},
{
pos = (-200,-220);
ref = _dot;
}
);
};
hints = (
{
name = "_corner.leftSerif-TOP";
origin = (4,2);
type = Corner;
}
);
layerId = m01;
shapes = (
{
alignment = -1;
pos = (-200,-460);
ref = _dot;
},
{
alignment = -1;
pos = (40,20);
ref = _dot;
},
{
closed = 1;
nodes = (
(200,120,l),
(200,500,l),
(120,500,l),
(120,120,l)
);
},
{
closed = 1;
nodes = (
(240,260,l),
(240,340,l),
(180,340,l),
(180,260,l)
);
},
{
closed = 1;
nodes = (
(240,500,l),
(240,580,l),
(120,580,l),
(120,500,l)
);
},
{
closed = 1;
nodes = (
(320,580,l),
(320,20,l),
(240,20,l),
(240,580,l)
);
},
{
closed = 1;
nodes = (
(440,480,l),
(440,100,l),
(360,20,l),
(360,480,l)
);
},
{
closed = 1;
nodes = (
(360,100,l),
(360,20,l),
(300,20,l),
(300,100,l)
);
},
{
closed = 1;
nodes = (
(200,720,l),
(200,640,l),
(120,640,l),
(120,720,l)
);
},
{
closed = 1;
nodes = (
(320,720,l),
(320,640,l),
(240,640,l),
(240,720,l)
);
}
);
width = 560;
}
);
},
{
glyphname = zero;
lastChange = "2024-12-12 14:50:10 +0000";
layers = (
{
background = {
shapes = (
{
pos = (40,-460);
ref = _dot;
},
{
pos = (40,20);
ref = _dot;
},
{
pos = (40,-220);
ref = _dot;
},
{
pos = (-200,-460);
ref = _dot;
},
{
pos = (-200,20);
ref = _dot;
},
{
pos = (-200,-220);
ref = _dot;
}
);
};
layerId = m01;
shapes = (
{
alignment = -1;
pos = (-200,-220);
ref = _dot;
},
{
alignment = -1;
pos = (40,20);
ref = _dot;
},
{
alignment = -1;
pos = (40,-220);
ref = _dot;
},
{
closed = 1;
nodes = (
(340,580,l),
(340,500,l),
(200,500,l),
(200,580,l)
);
},
{
closed = 1;
nodes = (
(200,580,l),
(200,360,l),
(120,360,l),
(120,500,l)
);
},
{
closed = 1;
nodes = (
(440,480,l),
(440,360,l),
(360,360,l),
(360,480,l)
);
},
{
closed = 1;
nodes = (
(440,240,l),
(440,100,l),
(360,20,l),
(360,240,l)
);
},
{
closed = 1;
nodes = (
(360,20,l),
(200,20,l),
(200,100,l),
(360,100,l)
);
},
{
closed = 1;
nodes = (
(120,100,l),
(120,240,l),
(200,240,l),
(200,20,l)
);
}
);
width = 600;
}
);
unicode = 48;
},
{
glyphname = one;
lastChange = "2024-12-12 14:48:09 +0000";
layers = (
{
background = {
shapes = (
{
pos = (40,-460);
ref = _dot;
},
{
pos = (40,20);
ref = _dot;
},
{
pos = (40,-220);
ref = _dot;
},
{
pos = (-200,-460);
ref = _dot;
},
{
pos = (-200,20);
ref = _dot;
},
{
pos = (-200,-220);
ref = _dot;
}
);
};
layerId = m01;
shapes = (
{
closed = 1;
nodes = (
(360,20,l),
(360,580,l),
(280,580,l),
(280,20,l)
);
},
{
alignment = -1;
pos = (-200,20);
ref = _dot;
},
{
closed = 1;
nodes = (
(320,500,l),
(320,580,l),
(220,580,l),
(220,500,l)
);
}
);
width = 560;
}
);
unicode = 49;
},
{
glyphname = two;
lastChange = "2024-12-12 14:46:48 +0000";
layers = (
{
background = {
shapes = (
{
pos = (40,-460);
ref = _dot;
},
{
pos = (40,20);
ref = _dot;
},
{
pos = (40,-220);
ref = _dot;
},
{
pos = (-200,-460);
ref = _dot;
},
{
pos = (-200,20);
ref = _dot;
},
{
pos = (-200,-220);
ref = _dot;
}
);
};
layerId = m01;
shapes = (
{
closed = 1;
nodes = (
(200,80,l),
(200,120,l),
(440,280,l),
(440,320,l),
(360,320,l),
(120,160,l),
(120,80,l)
);
},
{
closed = 1;
nodes = (
(440,20,l),
(440,100,l),
(120,100,l),
(120,20,l)
);
},
{
alignment = -1;
pos = (-200,-220);
ref = _dot;
},
{
closed = 1;
nodes = (
(440,60,l),
(440,140,l),
(360,140,l),
(360,60,l)
);
},
{
closed = 1;
nodes = (
(200,360,l),
(200,480,l),
(120,480,l),
(120,360,l)
);
},
{
alignment = -1;
pos = (-200,20);
ref = _dot;
},
{
closed = 1;
nodes = (
(440,320,l),
(440,500,l),
(360,500,l),
(360,320,l)
);
},
{
closed = 1;
nodes = (
(440,500,l),
(360,580,l),
(220,580,l),
(220,500,l)
);
}
);
width = 560;
}
);
unicode = 50;
},
{
glyphname = three;
lastChange = "2024-12-12 14:43:48 +0000";
layers = (
{
background = {
shapes = (
{
pos = (40,-460);
ref = _dot;
},
{
pos = (40,20);
ref = _dot;
},
{
pos = (40,-220);
ref = _dot;
},
{
pos = (-200,-460);
ref = _dot;
},
{
pos = (-200,20);
ref = _dot;
},
{
pos = (-200,-220);
ref = _dot;
}
);
};
layerId = m01;
shapes = (
{
closed = 1;
nodes = (
(360,380,l),
(440,440,l),
(440,480,l),
(360,480,l),
(360,460,l),
(260,380,l)
);
},
{
closed = 1;
nodes = (
(360,20,l),
(440,100,l),
(200,100,l),
(200,20,l)
);
},
{
closed = 1;
nodes = (
(440,100,l),
(440,300,l),
(360,340,l),
(360,60,l)
);
},
{
closed = 1;
nodes = (
(440,300,l),
(420,380,l),
(260,380,l),
(260,360,l),
(300,300,l)
);
},
{
alignment = -1;
pos = (-200,20);
ref = _dot;
},
{
closed = 1;
nodes = (
(340,500,l),
(340,580,l),
(220,580,l),
(220,500,l)
);
},
{
alignment = -1;
pos = (40,20);
ref = _dot;
},
{
closed = 1;
nodes = (
(120,140,l),
(120,80,l),
(200,20,l),
(200,140,l)
);
}
);
width = 560;
}
);
unicode = 51;
},
{
glyphname = four;
lastChange = "2024-12-12 14:39:14 +0000";
layers = (
{
background = {
shapes = (
{
pos = (40,-460);
ref = _dot;
},
{
pos = (40,20);
ref = _dot;
},
{
pos = (40,-220);
ref = _dot;
},
{
pos = (-200,-460);
ref = _dot;
},
{
pos = (-200,20);
ref = _dot;
},
{
pos = (-200,-220);
ref = _dot;
}
);
};
layerId = m01;
shapes = (
{
alignment = -1;
pos = (40,20);
ref = _dot;
},
{
alignment = -1;
pos = (40,-220);
ref = _dot;
},
{
alignment = -1;
pos = (-200,20);
ref = _dot;
},
{
closed = 1;
nodes = (
(200,480,l),
(200,260,l),
(120,340,l),
(120,480,l)
);
},
{
closed = 1;
nodes = (
(340,260,l),
(200,260,l),
(200,340,l),
(340,340,l)
);
},
{
closed = 1;
nodes = (
(440,480,l),
(440,360,l),
(360,360,l),
(360,480,l)
);
},
{
closed = 1;
nodes = (
(440,240,l),
(440,20,l),
(360,20,l),
(360,240,l)
);
}
);
width = 560;
}
);
unicode = 52;
},
{
glyphname = five;
lastChange = "2024-12-12 14:38:16 +0000";
layers = (
{
background = {
shapes = (
{
pos = (40,-460);
ref = _dot;
},
{
pos = (40,20);
ref = _dot;
},
{
pos = (40,-220);
ref = _dot;
},
{
pos = (-200,-460);
ref = _dot;
},
{
pos = (-200,20);
ref = _dot;
},
{
pos = (-200,-220);
ref = _dot;
}
);
};
layerId = m01;
shapes = (
{
alignment = -1;
pos = (40,-220);
ref = _dot;
},
{
alignment = -1;
pos = (-200,20);
ref = _dot;
},
{
closed = 1;
nodes = (
(440,580,l),
(440,500,l),
(220,500,l),
(220,580,l)
);
},
{
closed = 1;
nodes = (
(200,480,l),
(200,260,l),
(120,260,l),
(120,480,l)
);
},
{
closed = 1;
nodes = (
(340,260,l),
(200,260,l),
(200,300,l),
(240,340,l),
(340,340,l)
);
},
{
closed = 1;
nodes = (
(440,240,l),
(440,100,l),
(360,20,l),
(360,240,l)
);
},
{
closed = 1;
nodes = (
(360,20,l),
(140,20,l),
(140,100,l),
(360,100,l)
);
}
);
width = 560;
}
);
unicode = 53;
},
{
glyphname = six;
lastChange = "2024-12-12 14:36:18 +0000";
layers = (
{
background = {
shapes = (
{
pos = (40,-460);
ref = _dot;
},
{
pos = (40,20);
ref = _dot;
},
{
pos = (40,-220);
ref = _dot;
},
{
pos = (-200,-460);
ref = _dot;
},
{
pos = (-200,20);
ref = _dot;
},
{
pos = (-200,-220);
ref = _dot;
}
);
};
layerId = m01;
shapes = (
{
alignment = -1;
pos = (-200,-220);
ref = _dot;
},
{
alignment = -1;
pos = (40,20);
ref = _dot;
},
{
alignment = -1;
pos = (-200,20);
ref = _dot;
},
{
closed = 1;
nodes = (
(340,580,l),
(340,500,l),
(220,500,l),
(220,580,l)
);
},
{
closed = 1;
nodes = (
(200,480,l),
(200,360,l),
(120,360,l),
(120,480,l)
);
},
{
closed = 1;
nodes = (
(260,360,l),
(400,360,l),
(440,320,l),
(400,280,l),
(220,280,l),
(220,340,l)
);
},
{
closed = 1;
nodes = (
(440,320,l),
(440,100,l),
(360,100,l),
(360,320,l)
);
},
{
closed = 1;
nodes = (
(360,20,l),
(200,20,l),
(200,100,l),
(440,100,l)
);
},
{
closed = 1;
nodes = (
(120,100,l),
(120,240,l),
(200,240,l),
(200,20,l)
);
}
);
width = 560;
}
);
unicode = 54;
},
{
glyphname = seven;
lastChange = "2024-12-12 13:02:10 +0000";
layers = (
{
background = {
shapes = (
{
pos = (40,-460);
ref = _dot;
},
{
pos = (40,20);
ref = _dot;
},
{
pos = (40,-220);
ref = _dot;
},
{
pos = (-200,-460);
ref = _dot;
},
{
pos = (-200,20);
ref = _dot;
},
{
pos = (-200,-220);
ref = _dot;
}
);
};
layerId = m01;
shapes = (
{
alignment = -1;
pos = (-200,-220);
ref = _dot;
},
{
alignment = -1;
pos = (-200,20);
ref = _dot;
},
{
alignment = -1;
pos = (40,-220);
ref = _dot;
},
{
alignment = -1;
pos = (40,20);
ref = _dot;
},
{
closed = 1;
nodes = (
(340,580,l),
(340,500,l),
(220,500,l),
(220,580,l)
);
},
{
closed = 1;
nodes = (
(200,480,l),
(200,360,l),
(120,360,l),
(120,480,l)
);
},
{
closed = 1;
nodes = (
(440,480,l),
(440,360,l),
(360,360,l),
(360,480,l)
);
},
{
closed = 1;
nodes = (
(440,240,l),
(440,20,l),
(360,20,l),
(360,240,l)
);
}
);
width = 560;
}
);
unicode = 55;
},
{
glyphname = eight;
lastChange = "2024-12-12 14:51:27 +0000";
layers = (
{
background = {
shapes = (
{
pos = (40,-460);
ref = _dot;
},
{
pos = (40,20);
ref = _dot;
},
{
pos = (40,-220);
ref = _dot;
},
{
pos = (-200,-460);
ref = _dot;
},
{
pos = (-200,20);
ref = _dot;
},
{
pos = (-200,-220);
ref = _dot;
}
);
};
layerId = m01;
shapes = (
{
closed = 1;
nodes = (
(360,20,l),
(440,100,l),
(160,100,l),
(120,100,l),
(200,20,l)
);
},
{
closed = 1;
nodes = (
(200,240,l),
(140,240,l),
(120,200,l),
(120,100,l),
(200,60,l)
);
},
{
alignment = -1;
pos = (-200,-220);
ref = _dot;
},
{
closed = 1;
nodes = (
(440,100,l),
(440,200,l),
(416,240,l),
(360,240,l),
(360,100,l)
);
},
{
closed = 1;
nodes = (
(200,360,l),
(200,480,l),
(120,480,l),
(120,401,l),
(140,360,l)
);
},
{
closed = 1;
nodes = (
(280,260,l),
(340,260,l),
(340,340,l),
(280,340,l),
(220,340,l),
(220,260,l)
);
},
{
alignment = -1;
pos = (40,-220);
ref = _dot;
},
{
alignment = -1;
pos = (-200,20);
ref = _dot;
},
{
closed = 1;
nodes = (
(420,360,l),
(440,398,l),
(440,500,l),
(360,540,l),
(360,360,l)
);
},
{
closed = 1;
nodes = (
(400,500,l),
(440,500,l),
(360,580,l),
(220,580,l),
(220,500,l)
);
}
);
width = 560;
}
);
unicode = 56;
},
{
glyphname = nine;
lastChange = "2024-12-14 13:08:46 +0000";
layers = (
{
background = {
shapes = (
{
pos = (40,-460);
ref = _dot;
},
{
pos = (40,20);
ref = _dot;
},
{
pos = (40,-220);
ref = _dot;
},
{
pos = (-200,-460);
ref = _dot;
},
{
pos = (-200,20);
ref = _dot;
},
{
pos = (-200,-220);
ref = _dot;
}
);
};
layerId = m01;
shapes = (
{
closed = 1;
nodes = (
(360,20,l),
(440,100,l),
(440,480,l),
(360,480,l),
(360,60,l)
);
},
{
closed = 1;
nodes = (
(200,60,l),
(180,160,l),
(120,160,l),
(120,60,l)
);
},
{
closed = 1;
nodes = (
(360,20,l),
(400,100,l),
(160,100,l),
(120,60,l),
(160,20,l)
);
},
{
alignment = -1;
pos = (-200,-220);
ref = _dot;
},
{
closed = 1;
nodes = (
(200,360,l),
(200,560,l),
(200,580,l),
(120,520,l),
(120,360,l)
);
},
{
closed = 1;
nodes = (
(340,500,l),
(340,580,l),
(200,580,l),
(160,500,l)
);
},
{
alignment = -1;
pos = (40,20);
ref = _dot;
},
{
closed = 1;
nodes = (
(320,260,l),
(360,300,l),
(360,340,l),
(220,340,l),
(220,260,l)
);
}
);
width = 560;
}
);
unicode = 57;
},
{
glyphname = zero.osf;
lastChange = "2024-12-14 12:58:54 +0000";
layers = (
{
background = {
shapes = (
{
pos = (40,-460);
ref = _dot;
},
{
pos = (40,20);
ref = _dot;
},
{
pos = (40,-220);
ref = _dot;
},
{
pos = (-200,-460);
ref = _dot;
},
{
pos = (-200,20);
ref = _dot;
},
{
pos = (-200,-220);
ref = _dot;
}
);
};
layerId = m01;
shapes = (
{
alignment = -1;
pos = (-200,-220);
ref = _dot;
},
{
alignment = -1;
pos = (40,20);
ref = _dot;
},
{
alignment = -1;
pos = (40,-220);
ref = _dot;
},
{
closed = 1;
nodes = (
(340,580,l),
(340,500,l),
(200,500,l),
(200,580,l)
);
},
{
closed = 1;
nodes = (
(200,580,l),
(200,360,l),
(120,360,l),
(120,500,l)
);
},
{
closed = 1;
nodes = (
(440,480,l),
(440,360,l),
(360,360,l),
(360,480,l)
);
},
{
closed = 1;
nodes = (
(440,240,l),
(440,100,l),
(360,20,l),
(360,240,l)
);
},
{
closed = 1;
nodes = (
(360,20,l),
(200,20,l),
(200,100,l),
(360,100,l)
);
},
{
closed = 1;
nodes = (
(120,100,l),
(120,240,l),
(200,240,l),
(200,20,l)
);
}
);
width = 600;
}
);
},
{
glyphname = one.osf;
lastChange = "2024-12-17 22:49:36 +0000";
layers = (
{
background = {
shapes = (
{
pos = (40,-460);
ref = _dot;
},
{
pos = (40,20);
ref = _dot;
},
{
pos = (40,-220);
ref = _dot;
},
{
pos = (-200,-460);
ref = _dot;
},
{
pos = (-200,20);
ref = _dot;
},
{
pos = (-200,-220);
ref = _dot;
}
);
};
hints = (
{
name = _corner.leftSerif;
origin = (0,4);
type = Corner;
},
{
name = _corner.rightSerif;
origin = (0,0);
type = Corner;
}
);
layerId = m01;
shapes = (
{
closed = 1;
nodes = (
(360,20,l),
(360,640,l),
(338,640,l),
(280,640,l),
(280,20,l)
);
},
{
alignment = -1;
pos = (-200,20);
ref = _dot;
},
{
closed = 1;
nodes = (
(320,540,l),
(280,640,l),
(220,600,l),
(220,520,l)
);
}
);
width = 600;
}
);
},
{
glyphname = two.osf;
lastChange = "2024-12-14 13:00:17 +0000";
layers = (
{
background = {
shapes = (
{
pos = (40,-460);
ref = _dot;
},
{
pos = (40,20);
ref = _dot;
},
{
pos = (40,-220);
ref = _dot;
},
{
pos = (-200,-460);
ref = _dot;
},
{
pos = (-200,20);
ref = _dot;
},
{
pos = (-200,-220);
ref = _dot;
}
);
};
layerId = m01;
shapes = (
{
alignment = -1;
pos = (-200,-220);
ref = _dot;
},
{
alignment = -1;
pos = (-200,20);
ref = _dot;
},
{
closed = 1;
nodes = (
(200,80,l),
(200,120,l),
(440,280,l),
(440,320,l),
(360,320,l),
(120,160,l),
(120,80,l)
);
},
{
closed = 1;
nodes = (
(440,20,l),
(440,100,l),
(120,100,l),
(120,20,l)
);
},
{
closed = 1;
nodes = (
(440,60,l),
(440,140,l),
(360,140,l),
(360,60,l)
);
},
{
closed = 1;
nodes = (
(200,360,l),
(200,480,l),
(120,480,l),
(120,360,l)
);
},
{
closed = 1;
nodes = (
(440,320,l),
(440,500,l),
(360,500,l),
(360,320,l)
);
},
{
closed = 1;
nodes = (
(440,500,l),
(360,580,l),
(220,580,l),
(220,500,l)
);
}
);
width = 600;
}
);
},
{
glyphname = three.osf;
lastChange = "2024-12-14 13:01:05 +0000";
layers = (
{
background = {
shapes = (
{
pos = (40,-460);
ref = _dot;
},
{
pos = (40,20);
ref = _dot;
},
{
pos = (40,-220);
ref = _dot;
},
{
pos = (-200,-460);
ref = _dot;
},
{
pos = (-200,20);
ref = _dot;
},
{
pos = (-200,-220);
ref = _dot;
}
);
};
layerId = m01;
shapes = (
{
alignment = -1;
pos = (40,20);
ref = _dot;
},
{
alignment = -1;
pos = (-200,20);
ref = _dot;
},
{
closed = 1;
nodes = (
(360,300,l),
(440,440,l),
(440,480,l),
(360,480,l),
(360,460,l),
(260,300,l)
);
},
{
closed = 1;
nodes = (
(360,-120,l),
(440,-40,l),
(200,-40,l),
(200,-120,l)
);
},
{
closed = 1;
nodes = (
(440,-40,l),
(440,220,l),
(360,260,l),
(360,-80,l)
);
},
{
closed = 1;
nodes = (
(440,220,l),
(420,300,l),
(260,300,l),
(260,280,l),
(300,220,l)
);
},
{
closed = 1;
nodes = (
(340,500,l),
(340,580,l),
(220,580,l),
(220,500,l)
);
},
{
closed = 1;
nodes = (
(120,60,l),
(120,-60,l),
(200,-120,l),
(200,60,l)
);
}
);
width = 600;
}
);
},
{
glyphname = four.osf;
lastChange = "2024-12-25 11:11:52 +0000";
layers = (
{
background = {
shapes = (
{
pos = (40,-460);
ref = _dot;
},
{
pos = (40,20);
ref = _dot;
},
{
pos = (40,-220);
ref = _dot;
},
{
pos = (-200,-460);
ref = _dot;
},
{
pos = (-200,20);
ref = _dot;
},
{
pos = (-200,-220);
ref = _dot;
}
);
};
hints = (
{
name = _corner.leftSerif;
origin = (6,0);
type = Corner;
},
{
name = _corner.rightSerif;
origin = (6,1);
type = Corner;
}
);
layerId = m01;
name = Regular;
shapes = (
{
alignment = -1;
pos = (40,20);
ref = _dot;
},
{
alignment = -1;
pos = (40,-220);
ref = _dot;
},
{
alignment = -1;
pos = (-200,20);
ref = _dot;
},
{
closed = 1;
nodes = (
(200,480,l),
(200,260,l),
(120,340,l),
(120,480,l)
);
},
{
closed = 1;
nodes = (
(340,260,l),
(200,260,l),
(200,340,l),
(340,340,l)
);
},
{
closed = 1;
nodes = (
(440,480,l),
(440,360,l),
(360,360,l),
(360,480,l)
);
},
{
closed = 1;
nodes = (
(360,-120,l),
(440,-120,l),
(440,240,l),
(360,240,l)
);
}
);
width = 600;
}
);
},
{
glyphname = five.osf;
lastChange = "2024-12-22 19:04:30 +0000";
layers = (
{
background = {
shapes = (
{
pos = (40,-460);
ref = _dot;
},
{
pos = (40,20);
ref = _dot;
},
{
pos = (40,-220);
ref = _dot;
},
{
pos = (-200,-460);
ref = _dot;
},
{
pos = (-200,20);
ref = _dot;
},
{
pos = (-200,-220);
ref = _dot;
}
);
};
layerId = m01;
shapes = (
{
closed = 1;
nodes = (
(440,-40,l),
(440,240,l),
(360,240,l),
(360,-120,l)
);
},
{
closed = 1;
nodes = (
(360,-120,l),
(360,-40,l),
(140,-40,l),
(140,-120,l)
);
},
{
closed = 1;
nodes = (
(220,0,l),
(220,80,l),
(140,80,l),
(140,-80,l)
);
},
{
closed = 1;
nodes = (
(200,260,l),
(200,480,l),
(120,480,l),
(120,260,l)
);
},
{
closed = 1;
nodes = (
(340,260,l),
(340,340,l),
(240,340,l),
(200,300,l),
(200,260,l)
);
},
{
alignment = -1;
pos = (40,-220);
ref = _dot;
},
{
alignment = -1;
pos = (-200,20);
ref = _dot;
},
{
closed = 1;
nodes = (
(440,500,l),
(440,580,l),
(220,580,l),
(220,500,l)
);
},
{
closed = 1;
nodes = (
(440,440,l),
(440,540,l),
(360,520,l),
(360,440,l)
);
}
);
width = 600;
}
);
},
{
glyphname = six.osf;
lastChange = "2024-12-14 13:03:53 +0000";
layers = (
{
background = {
shapes = (
{
pos = (40,-460);
ref = _dot;
},
{
pos = (40,20);
ref = _dot;
},
{
pos = (40,-220);
ref = _dot;
},
{
pos = (-200,-460);
ref = _dot;
},
{
pos = (-200,20);
ref = _dot;
},
{
pos = (-200,-220);
ref = _dot;
}
);
};
layerId = m01;
shapes = (
{
alignment = -1;
pos = (40,20);
ref = _dot;
},
{
alignment = -1;
pos = (-200,-220);
ref = _dot;
},
{
alignment = -1;
pos = (-200,20);
ref = _dot;
},
{
closed = 1;
nodes = (
(340,580,l),
(340,500,l),
(220,500,l),
(220,580,l)
);
},
{
closed = 1;
nodes = (
(200,480,l),
(200,360,l),
(120,360,l),
(120,480,l)
);
},
{
closed = 1;
nodes = (
(260,360,l),
(400,360,l),
(440,320,l),
(400,280,l),
(220,280,l),
(220,340,l)
);
},
{
closed = 1;
nodes = (
(440,320,l),
(440,-40,l),
(360,-40,l),
(360,320,l)
);
},
{
closed = 1;
nodes = (
(360,-120,l),
(200,-120,l),
(200,-40,l),
(440,-40,l)
);
},
{
closed = 1;
nodes = (
(120,-40,l),
(120,240,l),
(200,240,l),
(200,-120,l)
);
}
);
width = 600;
}
);
},
{
glyphname = seven.osf;
lastChange = "2024-12-14 13:05:07 +0000";
layers = (
{
background = {
shapes = (
{
pos = (40,-460);
ref = _dot;
},
{
pos = (40,20);
ref = _dot;
},
{
pos = (40,-220);
ref = _dot;
},
{
pos = (-200,-460);
ref = _dot;
},
{
pos = (-200,20);
ref = _dot;
},
{
pos = (-200,-220);
ref = _dot;
}
);
};
layerId = m01;
shapes = (
{
alignment = -1;
pos = (-200,-220);
ref = _dot;
},
{
alignment = -1;
pos = (40,20);
ref = _dot;
},
{
alignment = -1;
pos = (40,-220);
ref = _dot;
},
{
alignment = -1;
pos = (-200,20);
ref = _dot;
},
{
closed = 1;
nodes = (
(340,580,l),
(340,500,l),
(220,500,l),
(220,580,l)
);
},
{
closed = 1;
nodes = (
(200,480,l),
(200,360,l),
(120,360,l),
(120,480,l)
);
},
{
closed = 1;
nodes = (
(440,480,l),
(440,360,l),
(360,360,l),
(360,480,l)
);
},
{
closed = 1;
nodes = (
(440,240,l),
(440,180,l),
(300,40,l),
(300,-100,l),
(220,-100,l),
(220,60,l),
(360,200,l),
(360,240,l)
);
}
);
width = 600;
}
);
},
{
glyphname = eight.osf;
lastChange = "2024-12-14 13:30:38 +0000";
layers = (
{
background = {
shapes = (
{
pos = (40,-460);
ref = _dot;
},
{
pos = (40,20);
ref = _dot;
},
{
pos = (40,-220);
ref = _dot;
},
{
pos = (-200,-460);
ref = _dot;
},
{
pos = (-200,20);
ref = _dot;
},
{
pos = (-200,-220);
ref = _dot;
}
);
};
layerId = m01;
shapes = (
{
alignment = -1;
pos = (-200,-220);
ref = _dot;
},
{
alignment = -1;
pos = (40,-220);
ref = _dot;
},
{
alignment = -1;
pos = (-200,20);
ref = _dot;
},
{
closed = 1;
nodes = (
(360,20,l),
(440,100,l),
(160,100,l),
(120,100,l),
(200,20,l)
);
},
{
closed = 1;
nodes = (
(200,360,l),
(200,420,l),
(140,420,l),
(120,360,l)
);
},
{
closed = 1;
nodes = (
(440,360,l),
(420,420,l),
(360,420,l),
(360,360,l)
);
},
{
closed = 1;
nodes = (
(200,420,l),
(200,480,l),
(120,480,l),
(120,460,l),
(140,420,l)
);
},
{
closed = 1;
nodes = (
(280,380,l),
(380,380,l),
(380,460,l),
(280,460,l),
(200,460,l),
(200,380,l)
);
},
{
closed = 1;
nodes = (
(420,420,l),
(440,460,l),
(440,600,l),
(360,640,l),
(360,420,l)
);
},
{
closed = 1;
nodes = (
(400,600,l),
(440,600,l),
(360,680,l),
(200,680,l),
(120,600,l)
);
},
{
closed = 1;
nodes = (
(120,240,l),
(120,100,l),
(200,60,l),
(200,240,l)
);
},
{
closed = 1;
nodes = (
(360,240,l),
(360,100,l),
(440,100,l),
(440,240,l)
);
}
);
width = 600;
}
);
},
{
glyphname = nine.osf;
lastChange = "2024-12-14 13:08:28 +0000";
layers = (
{
background = {
shapes = (
{
pos = (40,-460);
ref = _dot;
},
{
pos = (40,20);
ref = _dot;
},
{
pos = (40,-220);
ref = _dot;
},
{
pos = (-200,-460);
ref = _dot;
},
{
pos = (-200,20);
ref = _dot;
},
{
pos = (-200,-220);
ref = _dot;
}
);
};
layerId = m01;
shapes = (
{
alignment = -1;
pos = (40,20);
ref = _dot;
},
{
alignment = -1;
pos = (-200,-220);
ref = _dot;
},
{
closed = 1;
nodes = (
(360,-100,l),
(440,-20,l),
(440,480,l),
(360,480,l),
(360,-60,l)
);
},
{
closed = 1;
nodes = (
(200,-60,l),
(180,40,l),
(120,40,l),
(120,-60,l)
);
},
{
closed = 1;
nodes = (
(360,-100,l),
(400,-20,l),
(160,-20,l),
(120,-60,l),
(160,-100,l)
);
},
{
closed = 1;
nodes = (
(320,260,l),
(360,300,l),
(360,340,l),
(220,340,l),
(220,260,l)
);
},
{
closed = 1;
nodes = (
(200,360,l),
(200,560,l),
(200,580,l),
(120,520,l),
(120,360,l)
);
},
{
closed = 1;
nodes = (
(340,500,l),
(340,580,l),
(200,580,l),
(160,500,l)
);
}
);
width = 600;
}
);
},
{
glyphname = period;
lastChange = "2024-12-22 19:46:07 +0000";
layers = (
{
background = {
shapes = (
{
pos = (40,-460);
ref = _dot;
},
{
pos = (40,20);
ref = _dot;
},
{
pos = (40,-220);
ref = _dot;
},
{
pos = (-200,-460);
ref = _dot;
},
{
pos = (-200,20);
ref = _dot;
},
{
pos = (-200,-220);
ref = _dot;
}
);
};
layerId = m01;
shapes = (
{
alignment = -1;
pos = (-200,-460);
ref = _dot;
},
{
closed = 1;
nodes = (
(320,20,l),
(320,120,l),
(240,120,l),
(240,20,l)
);
}
);
width = 560;
}
);
unicode = 46;
},
{
glyphname = comma;
lastChange = "2024-12-22 19:46:16 +0000";
layers = (
{
background = {
shapes = (
{
pos = (40,-460);
ref = _dot;
},
{
pos = (40,20);
ref = _dot;
},
{
pos = (40,-220);
ref = _dot;
},
{
pos = (-200,-460);
ref = _dot;
},
{
pos = (-200,20);
ref = _dot;
},
{
pos = (-200,-220);
ref = _dot;
}
);
};
layerId = m01;
shapes = (
{
alignment = -1;
pos = (-200,-220);
ref = _dot;
},
{
closed = 1;
nodes = (
(280,0,l),
(240,-60,l),
(240,-80,l),
(280,-100,l),
(320,-40,l),
(320,80,l),
(320,140,l),
(240,140,l),
(240,60,l),
(240,20,l)
);
}
);
width = 560;
}
);
unicode = 44;
},
{
glyphname = colon;
lastChange = "2024-12-22 19:40:56 +0000";
layers = (
{
background = {
shapes = (
{
pos = (40,-460);
ref = _dot;
},
{
pos = (40,20);
ref = _dot;
},
{
pos = (40,-220);
ref = _dot;
},
{
pos = (-200,-460);
ref = _dot;
},
{
pos = (-200,20);
ref = _dot;
},
{
pos = (-200,-220);
ref = _dot;
}
);
};
layerId = m01;
shapes = (
{
alignment = -1;
pos = (40,-220);
ref = _dot;
},
{
alignment = -1;
pos = (-200,-220);
ref = _dot;
},
{
closed = 1;
nodes = (
(320,480,l),
(320,580,l),
(240,580,l),
(240,480,l)
);
},
{
closed = 1;
nodes = (
(320,20,l),
(320,120,l),
(240,120,l),
(240,20,l)
);
}
);
width = 560;
}
);
unicode = 58;
},
{
glyphname = semicolon;
lastChange = "2024-12-22 19:40:48 +0000";
layers = (
{
background = {
shapes = (
{
pos = (40,-460);
ref = _dot;
},
{
pos = (40,20);
ref = _dot;
},
{
pos = (40,-220);
ref = _dot;
},
{
pos = (-200,-460);
ref = _dot;
},
{
pos = (-200,20);
ref = _dot;
},
{
pos = (-200,-220);
ref = _dot;
}
);
};
layerId = m01;
shapes = (
{
alignment = -1;
pos = (-200,-460);
ref = _dot;
},
{
alignment = -1;
pos = (-200,-220);
ref = _dot;
},
{
closed = 1;
nodes = (
(280,0,l),
(240,-60,l),
(240,-80,l),
(280,-100,l),
(320,-40,l),
(320,80,l),
(320,140,l),
(240,140,l),
(240,60,l),
(240,20,l)
);
},
{
closed = 1;
nodes = (
(320,480,l),
(320,580,l),
(240,580,l),
(240,480,l)
);
}
);
width = 560;
}
);
unicode = 59;
},
{
glyphname = exclam;
lastChange = "2024-12-22 19:45:08 +0000";
layers = (
{
background = {
shapes = (
{
pos = (40,-460);
ref = _dot;
},
{
pos = (40,20);
ref = _dot;
},
{
pos = (40,-220);
ref = _dot;
},
{
pos = (-200,-460);
ref = _dot;
},
{
pos = (-200,20);
ref = _dot;
},
{
pos = (-200,-220);
ref = _dot;
}
);
};
layerId = m01;
shapes = (
{
alignment = -1;
pos = (-200,-460);
ref = _dot;
},
{
alignment = -1;
pos = (-200,-220);
ref = _dot;
},
{
alignment = -1;
pos = (40,-220);
ref = _dot;
},
{
closed = 1;
nodes = (
(320,20,l),
(320,120,l),
(240,120,l),
(240,20,l)
);
},
{
closed = 1;
nodes = (
(300,220,l),
(320,500,l),
(320,820,l),
(240,820,l),
(240,500,l),
(260,220,l)
);
}
);
width = 560;
}
);
unicode = 33;
},
{
glyphname = question;
lastChange = "2024-12-22 19:38:09 +0000";
layers = (
{
associatedMasterId = m01;
background = {
shapes = (
{
pos = (40,-460);
ref = _dot;
},
{
pos = (40,20);
ref = _dot;
},
{
pos = (40,-220);
ref = _dot;
},
{
pos = (-200,-460);
ref = _dot;
},
{
pos = (-200,20);
ref = _dot;
},
{
pos = (-200,-220);
ref = _dot;
}
);
};
layerId = "825745E9-F369-409E-B087-D1C67A504152";
name = "18. Dez. 24, 18:38";
shapes = (
{
alignment = -1;
pos = (40,-460);
ref = _dot;
},
{
alignment = -1;
pos = (-200,-220);
ref = _dot;
},
{
closed = 1;
nodes = (
(200,360,l),
(200,700,l),
(120,700,l),
(120,360,l)
);
},
{
closed = 1;
nodes = (
(200,780,l),
(360,780,l),
(440,700,l),
(360,700,l),
(200,700,l),
(120,700,l)
);
},
{
closed = 1;
nodes = (
(440,700,l),
(440,240,l),
(360,160,l),
(320,160,l),
(320,240,l),
(360,240,l),
(360,700,l)
);
},
{
closed = 1;
nodes = (
(880,280,l),
(880,380,l),
(800,380,l),
(800,280,l)
);
},
{
closed = 1;
nodes = (
(120,-120,l),
(120,160,l),
(200,240,l),
(240,240,l),
(240,160,l),
(200,160,l),
(200,-120,l)
);
},
{
closed = 1;
nodes = (
(320,160,l),
(320,240,l),
(240,240,l),
(240,160,l)
);
}
);
width = 600;
},
{
background = {
shapes = (
{
pos = (40,-460);
ref = _dot;
},
{
pos = (40,20);
ref = _dot;
},
{
pos = (40,-220);
ref = _dot;
},
{
pos = (-200,-460);
ref = _dot;
},
{
pos = (-200,20);
ref = _dot;
},
{
pos = (-200,-220);
ref = _dot;
}
);
};
layerId = m01;
name = Regular;
shapes = (
{
alignment = -1;
pos = (40,-460);
ref = _dot;
},
{
alignment = -1;
pos = (-200,-220);
ref = _dot;
},
{
closed = 1;
nodes = (
(200,640,l),
(200,740,l),
(120,740,l),
(120,640,l)
);
},
{
closed = 1;
nodes = (
(200,820,l),
(360,820,l),
(440,740,l),
(360,740,l),
(200,740,l),
(120,740,l)
);
},
{
closed = 1;
nodes = (
(440,740,l),
(440,500,l),
(360,420,l),
(360,740,l)
);
},
{
closed = 1;
nodes = (
(240,500,l),
(240,220,l),
(320,220,l),
(320,500,l)
);
},
{
closed = 1;
nodes = (
(320,20,l),
(320,120,l),
(240,120,l),
(240,20,l)
);
},
{
closed = 1;
nodes = (
(360,500,l),
(360,420,l),
(320,420,l),
(320,500,l)
);
}
);
width = 560;
}
);
unicode = 63;
},
{
glyphname = period.sc;
lastChange = "2024-12-22 19:50:23 +0000";
layers = (
{
background = {
shapes = (
{
pos = (40,-460);
ref = _dot;
},
{
pos = (40,20);
ref = _dot;
},
{
pos = (40,-220);
ref = _dot;
},
{
pos = (-200,-460);
ref = _dot;
},
{
pos = (-200,20);
ref = _dot;
},
{
pos = (-200,-220);
ref = _dot;
}
);
};
layerId = m01;
shapes = (
{
alignment = -1;
pos = (-200,-460);
ref = _dot;
},
{
closed = 1;
nodes = (
(320,20,l),
(320,120,l),
(240,120,l),
(240,20,l)
);
}
);
width = 560;
}
);
},
{
glyphname = comma.sc;
lastChange = "2024-12-22 19:50:12 +0000";
layers = (
{
background = {
shapes = (
{
pos = (40,-460);
ref = _dot;
},
{
pos = (40,20);
ref = _dot;
},
{
pos = (40,-220);
ref = _dot;
},
{
pos = (-200,-460);
ref = _dot;
},
{
pos = (-200,20);
ref = _dot;
},
{
pos = (-200,-220);
ref = _dot;
}
);
};
layerId = m01;
shapes = (
{
alignment = -1;
pos = (-200,-220);
ref = _dot;
},
{
closed = 1;
nodes = (
(280,0,l),
(240,-60,l),
(240,-80,l),
(280,-100,l),
(320,-40,l),
(320,80,l),
(320,140,l),
(240,140,l),
(240,60,l),
(240,20,l)
);
}
);
width = 560;
}
);
},
{
glyphname = colon.sc;
lastChange = "2024-12-22 19:49:53 +0000";
layers = (
{
background = {
shapes = (
{
pos = (40,-460);
ref = _dot;
},
{
pos = (40,20);
ref = _dot;
},
{
pos = (40,-220);
ref = _dot;
},
{
pos = (-200,-460);
ref = _dot;
},
{
pos = (-200,20);
ref = _dot;
},
{
pos = (-200,-220);
ref = _dot;
}
);
};
layerId = m01;
shapes = (
{
alignment = -1;
pos = (40,-220);
ref = _dot;
},
{
alignment = -1;
pos = (-200,-220);
ref = _dot;
},
{
closed = 1;
nodes = (
(320,240,l),
(320,340,l),
(240,340,l),
(240,240,l)
);
},
{
closed = 1;
nodes = (
(320,20,l),
(320,120,l),
(240,120,l),
(240,20,l)
);
}
);
width = 560;
}
);
},
{
glyphname = semicolon.sc;
lastChange = "2024-12-22 19:48:53 +0000";
layers = (
{
background = {
shapes = (
{
pos = (40,-460);
ref = _dot;
},
{
pos = (40,20);
ref = _dot;
},
{
pos = (40,-220);
ref = _dot;
},
{
pos = (-200,-460);
ref = _dot;
},
{
pos = (-200,20);
ref = _dot;
},
{
pos = (-200,-220);
ref = _dot;
}
);
};
layerId = m01;
shapes = (
{
alignment = -1;
pos = (-200,-460);
ref = _dot;
},
{
alignment = -1;
pos = (-200,-220);
ref = _dot;
},
{
closed = 1;
nodes = (
(280,0,l),
(240,-60,l),
(240,-80,l),
(280,-100,l),
(320,-40,l),
(320,80,l),
(320,140,l),
(240,140,l),
(240,60,l),
(240,20,l)
);
},
{
closed = 1;
nodes = (
(320,240,l),
(320,340,l),
(240,340,l),
(240,240,l)
);
}
);
width = 560;
}
);
},
{
glyphname = exclam.sc;
lastChange = "2024-12-22 19:48:19 +0000";
layers = (
{
background = {
shapes = (
{
pos = (40,-460);
ref = _dot;
},
{
pos = (40,20);
ref = _dot;
},
{
pos = (40,-220);
ref = _dot;
},
{
pos = (-200,-460);
ref = _dot;
},
{
pos = (-200,20);
ref = _dot;
},
{
pos = (-200,-220);
ref = _dot;
}
);
};
layerId = m01;
shapes = (
{
alignment = -1;
pos = (-200,-460);
ref = _dot;
},
{
alignment = -1;
pos = (-200,-220);
ref = _dot;
},
{
alignment = -1;
pos = (40,-220);
ref = _dot;
},
{
closed = 1;
nodes = (
(320,20,l),
(320,120,l),
(240,120,l),
(240,20,l)
);
},
{
closed = 1;
nodes = (
(300,220,l),
(320,300,l),
(320,600,l),
(240,600,l),
(240,300,l),
(260,220,l)
);
}
);
width = 560;
}
);
},
{
glyphname = question.sc;
lastChange = "2024-12-18 17:34:52 +0000";
layers = (
{
background = {
shapes = (
{
pos = (40,-460);
ref = _dot;
},
{
pos = (40,20);
ref = _dot;
},
{
pos = (40,-220);
ref = _dot;
},
{
pos = (-200,-460);
ref = _dot;
},
{
pos = (-200,20);
ref = _dot;
},
{
pos = (-200,-220);
ref = _dot;
}
);
};
layerId = m01;
shapes = (
{
alignment = -1;
pos = (40,-460);
ref = _dot;
},
{
alignment = -1;
pos = (-200,-220);
ref = _dot;
},
{
closed = 1;
nodes = (
(200,360,l),
(200,500,l),
(120,500,l),
(120,360,l)
);
},
{
closed = 1;
nodes = (
(200,580,l),
(360,580,l),
(440,500,l),
(360,500,l),
(200,500,l),
(120,500,l)
);
},
{
closed = 1;
nodes = (
(440,500,l),
(440,340,l),
(360,260,l),
(360,500,l)
);
},
{
closed = 1;
nodes = (
(240,260,l),
(240,140,l),
(320,140,l),
(320,340,l)
);
},
{
closed = 1;
nodes = (
(320,0,l),
(320,100,l),
(240,100,l),
(240,0,l)
);
},
{
closed = 1;
nodes = (
(360,340,l),
(360,260,l),
(320,260,l),
(320,340,l)
);
}
);
width = 600;
}
);
},
{
glyphname = parenleft;
lastChange = "2024-12-25 10:21:59 +0000";
layers = (
{
background = {
shapes = (
{
pos = (40,-460);
ref = _dot;
},
{
pos = (40,20);
ref = _dot;
},
{
pos = (40,-220);
ref = _dot;
},
{
pos = (-200,-460);
ref = _dot;
},
{
pos = (-200,20);
ref = _dot;
},
{
pos = (-200,-220);
ref = _dot;
}
);
};
layerId = m01;
shapes = (
{
alignment = -1;
pos = (40,-220);
ref = _dot;
},
{
alignment = -1;
pos = (-200,-460);
ref = _dot;
},
{
alignment = -1;
pos = (40,-460);
ref = _dot;
},
{
alignment = -1;
pos = (-200,-220);
ref = _dot;
},
{
closed = 1;
nodes = (
(320,-120,l),
(320,820,l),
(240,740,l),
(240,-20,l)
);
},
{
closed = 1;
nodes = (
(380,820,l),
(400,786,l),
(360,740,l),
(320,740,l),
(320,820,l)
);
},
{
closed = 1;
nodes = (
(360,-40,l),
(400,-80,l),
(380,-120,l),
(320,-120,l),
(320,-40,l)
);
}
);
width = 600;
}
);
unicode = 40;
},
{
glyphname = parenright;
lastChange = "2024-12-25 10:22:48 +0000";
layers = (
{
background = {
shapes = (
{
pos = (40,-460);
ref = _dot;
},
{
pos = (40,20);
ref = _dot;
},
{
pos = (40,-220);
ref = _dot;
},
{
pos = (-200,-460);
ref = _dot;
},
{
pos = (-200,20);
ref = _dot;
},
{
pos = (-200,-220);
ref = _dot;
}
);
};
layerId = m01;
shapes = (
{
alignment = -1;
pos = (40,-220);
ref = _dot;
},
{
alignment = -1;
pos = (-200,-460);
ref = _dot;
},
{
alignment = -1;
pos = (40,-460);
ref = _dot;
},
{
alignment = -1;
pos = (-200,-220);
ref = _dot;
},
{
closed = 1;
nodes = (
(320,740,l),
(240,820,l),
(240,-120,l),
(320,-20,l)
);
},
{
closed = 1;
nodes = (
(240,740,l),
(200,740,l),
(160,780,l),
(180,820,l),
(240,820,l)
);
},
{
closed = 1;
nodes = (
(240,-120,l),
(180,-120,l),
(160,-80,l),
(200,-40,l),
(240,-40,l)
);
}
);
width = 600;
}
);
unicode = 41;
},
{
glyphname = rightArrow;
lastChange = "2024-12-18 17:57:43 +0000";
layers = (
{
background = {
shapes = (
{
pos = (40,-460);
ref = _dot;
},
{
pos = (40,20);
ref = _dot;
},
{
pos = (40,-220);
ref = _dot;
},
{
pos = (-200,-460);
ref = _dot;
},
{
pos = (-200,20);
ref = _dot;
},
{
pos = (-200,-220);
ref = _dot;
},
{
pos = (600,20);
ref = _dot;
},
{
pos = (920,-220);
ref = _dot;
},
{
pos = (600,-220);
ref = _dot;
},
{
pos = (1160,-220);
ref = _dot;
},
{
pos = (360,-220);
ref = _dot;
},
{
pos = (1160,-460);
ref = _dot;
},
{
pos = (360,20);
ref = _dot;
},
{
pos = (360,-460);
ref = _dot;
},
{
pos = (600,-460);
ref = _dot;
},
{
pos = (1160,20);
ref = _dot;
},
{
pos = (920,-460);
ref = _dot;
},
{
pos = (920,20);
ref = _dot;
}
);
};
layerId = m01;
shapes = (
{
alignment = -1;
pos = (-200,-220);
ref = _dot;
},
{
alignment = -1;
pos = (920,20);
ref = _dot;
},
{
alignment = -1;
pos = (1160,-220);
ref = _dot;
},
{
alignment = -1;
pos = (920,-460);
ref = _dot;
},
{
alignment = -1;
pos = (600,-220);
ref = _dot;
},
{
alignment = -1;
pos = (360,-220);
ref = _dot;
},
{
alignment = -1;
pos = (40,-220);
ref = _dot;
},
{
closed = 1;
nodes = (
(340,340,l),
(340,260,l),
(220,260,l),
(220,340,l)
);
},
{
closed = 1;
nodes = (
(660,340,l),
(660,260,l),
(460,260,l),
(460,340,l)
);
},
{
closed = 1;
nodes = (
(900,340,l),
(900,260,l),
(780,260,l),
(780,340,l)
);
},
{
closed = 1;
nodes = (
(1460,340,l),
(1460,260,l),
(1020,260,l),
(1020,340,l)
);
},
{
closed = 1;
nodes = (
(1340,480,l),
(1340,520,l),
(1360,520,l),
(1520,360,l),
(1460,360,l),
(1460,320,l),
(1440,320,l),
(1280,480,l)
);
},
{
closed = 1;
nodes = (
(1360,80,l),
(1340,80,l),
(1340,120,l),
(1280,120,l),
(1440,280,l),
(1460,280,l),
(1460,240,l),
(1520,240,l)
);
}
);
width = 1680;
}
);
unicode = 8594;
},
{
glyphname = leftArrow;
lastChange = "2024-12-18 18:00:15 +0000";
layers = (
{
background = {
shapes = (
{
pos = (40,-460);
ref = _dot;
},
{
pos = (40,20);
ref = _dot;
},
{
pos = (40,-220);
ref = _dot;
},
{
pos = (-200,-460);
ref = _dot;
},
{
pos = (-200,20);
ref = _dot;
},
{
pos = (-200,-220);
ref = _dot;
},
{
pos = (600,20);
ref = _dot;
},
{
pos = (920,-220);
ref = _dot;
},
{
pos = (600,-220);
ref = _dot;
},
{
pos = (1160,-220);
ref = _dot;
},
{
pos = (360,-220);
ref = _dot;
},
{
pos = (1160,-460);
ref = _dot;
},
{
pos = (360,20);
ref = _dot;
},
{
pos = (360,-460);
ref = _dot;
},
{
pos = (600,-460);
ref = _dot;
},
{
pos = (1160,20);
ref = _dot;
},
{
pos = (920,-460);
ref = _dot;
},
{
pos = (920,20);
ref = _dot;
}
);
};
layerId = m01;
shapes = (
{
alignment = -1;
pos = (-200,-220);
ref = _dot;
},
{
alignment = -1;
pos = (40,20);
ref = _dot;
},
{
alignment = -1;
pos = (40,-460);
ref = _dot;
},
{
alignment = -1;
pos = (1160,-220);
ref = _dot;
},
{
alignment = -1;
pos = (600,-220);
ref = _dot;
},
{
alignment = -1;
pos = (360,-220);
ref = _dot;
},
{
alignment = -1;
pos = (920,-220);
ref = _dot;
},
{
closed = 1;
nodes = (
(1460,260,l),
(1340,260,l),
(1340,340,l),
(1460,340,l)
);
},
{
closed = 1;
nodes = (
(1220,260,l),
(1020,260,l),
(1020,340,l),
(1220,340,l)
);
},
{
closed = 1;
nodes = (
(900,260,l),
(780,260,l),
(780,340,l),
(900,340,l)
);
},
{
closed = 1;
nodes = (
(660,260,l),
(220,260,l),
(220,340,l),
(660,340,l)
);
},
{
closed = 1;
nodes = (
(240,320,l),
(220,320,l),
(220,360,l),
(160,360,l),
(320,520,l),
(340,520,l),
(340,480,l),
(400,480,l)
);
},
{
closed = 1;
nodes = (
(220,240,l),
(220,280,l),
(240,280,l),
(400,120,l),
(340,120,l),
(340,80,l),
(320,80,l),
(160,240,l)
);
}
);
width = 1680;
}
);
unicode = 8592;
},
{
glyphname = dieresis;
lastChange = "2024-12-08 14:07:26 +0000";
layers = (
{
anchors = (
{
name = _top;
pos = (260,620);
}
);
layerId = m01;
shapes = (
{
closed = 1;
nodes = (
(220,720,l),
(220,640,l),
(140,640,l),
(140,720,l)
);
},
{
closed = 1;
nodes = (
(380,720,l),
(380,640,l),
(300,640,l),
(300,720,l)
);
}
);
width = 600;
}
);
unicode = 168;
},
{
export = 0;
glyphname = _corner.leftSerif;
lastChange = "2024-12-17 13:32:47 +0000";
layers = (
{
anchors = (
{
name = left;
pos = (100,80);
},
{
name = origin;
pos = (80,0);
},
{
name = right;
pos = (100,0);
}
);
layerId = m01;
shapes = (
{
closed = 0;
nodes = (
(100,80,l),
(60,60,l),
(60,0,l),
(100,0,l)
);
}
);
width = 200;
}
);
},
{
export = 0;
glyphname = "_corner.leftSerif-TOP";
lastChange = "2024-12-17 13:31:41 +0000";
layers = (
{
anchors = (
{
name = left;
pos = (100,900);
},
{
name = origin;
pos = (100,900);
},
{
name = right;
pos = (100,820);
}
);
layerId = m01;
shapes = (
{
closed = 0;
nodes = (
(100,900,l),
(80,900,l),
(60,840,l),
(100,820,l)
);
}
);
width = 200;
}
);
},
{
export = 0;
glyphname = _corner.rightSerif;
lastChange = "2024-12-17 13:32:18 +0000";
layers = (
{
anchors = (
{
name = left;
pos = (60,0);
},
{
name = origin;
pos = (60,0);
},
{
name = right;
pos = (60,40);
}
);
layerId = m01;
shapes = (
{
closed = 0;
nodes = (
(60,0,l),
(100,0,l),
(100,60,l),
(60,80,l)
);
}
);
width = 200;
}
);
},
{
export = 0;
glyphname = "_corner.rightSerif-TOP";
lastChange = "2024-12-24 10:16:04 +0000";
layers = (
{
anchors = (
{
name = left;
pos = (100,820);
},
{
name = origin;
pos = (100,900);
},
{
name = right;
pos = (80,900);
}
);
layerId = m01;
shapes = (
{
closed = 0;
nodes = (
(100,820,l),
(140,840,l),
(120,900,l),
(100,900,l)
);
}
);
width = 200;
}
);
},
{
export = 0;
glyphname = "_corner.Serif.left_wBraille-BOTTOM";
lastChange = "2024-12-24 12:10:49 +0000";
layers = (
{
hints = (
{
name = _corner.leftSerif;
options = 1;
origin = (0,0);
scale = (-1,1);
type = Corner;
}
);
layerId = m01;
shapes = (
{
closed = 1;
nodes = (
(120,200,l),
(140,200,l)
);
}
);
width = 600;
}
);
},
{
export = 0;
glyphname = "_corner.Serif.left_wBraille-TOP";
lastChange = "2024-12-17 17:39:21 +0000";
layers = (
{
hints = (
{
name = "_corner.leftSerif-TOP";
options = 1;
origin = (0,1);
scale = (-1,1);
type = Corner;
}
);
layerId = m01;
shapes = (
{
closed = 1;
nodes = (
(120,260,l),
(120,340,l)
);
}
);
width = 600;
}
);
},
{
export = 0;
glyphname = "_corner.Serif.right_wBraille-BOTTOM";
lastChange = "2024-12-18 09:50:54 +0000";
layers = (
{
hints = (
{
name = _corner.rightSerif;
options = 1;
origin = (0,0);
scale = (-1,1);
type = Corner;
}
);
layerId = m01;
shapes = (
{
closed = 1;
nodes = (
(160,200,l),
(160,280,l),
(160,260,l),
(160,220,l)
);
}
);
width = 600;
}
);
},
{
export = 0;
glyphname = "_corner.Serif.right_wBraille-TOP";
lastChange = "2024-12-17 17:44:30 +0000";
layers = (
{
hints = (
{
name = "_corner.leftSerif-TOP";
origin = (0,1);
type = Corner;
}
);
layerId = m01;
shapes = (
{
closed = 1;
nodes = (
(120,260,l),
(120,340,l)
);
}
);
width = 200;
}
);
},
{
glyphname = AU;
lastChange = "2024-12-18 10:30:31 +0000";
layers = (
{
associatedMasterId = m01;
background = {
shapes = (
{
pos = (80,-460);
ref = _dot;
},
{
pos = (80,20);
ref = _dot;
},
{
pos = (80,-220);
ref = _dot;
},
{
pos = (-160,-460);
ref = _dot;
},
{
pos = (-160,20);
ref = _dot;
},
{
pos = (-160,-220);
ref = _dot;
},
{
pos = (80,-460);
ref = _dot;
},
{
pos = (80,20);
ref = _dot;
},
{
pos = (80,-220);
ref = _dot;
},
{
pos = (-160,-460);
ref = _dot;
},
{
pos = (-160,20);
ref = _dot;
},
{
pos = (-160,-220);
ref = _dot;
}
);
};
hints = (
{
name = "_corner.leftSerif-TOP";
origin = (1,3);
type = Corner;
}
);
layerId = "4934890B-FF06-4E17-8388-3AD696AEAA30";
name = "17. Dez. 24, 20:42";
shapes = (
{
closed = 1;
nodes = (
(440,120,l),
(480,120,l),
(480,580,l),
(400,580,l),
(400,120,l)
);
},
{
closed = 1;
nodes = (
(140,20,l),
(140,580,l),
(100,580,l),
(60,580,l),
(60,20,l)
);
},
{
alignment = -1;
pos = (80,-460);
ref = _dot;
},
{
closed = 1;
nodes = (
(320,260,l),
(320,340,l),
(100,340,l),
(100,260,l)
);
},
{
closed = 1;
nodes = (
(340,20,l),
(340,520,l),
(300,580,l),
(260,580,l),
(260,80,l),
(300,20,l)
);
},
{
alignment = -1;
pos = (-160,20);
ref = _dot;
},
{
closed = 1;
nodes = (
(320,20,l),
(380,20,l),
(380,100,l),
(300,100,l)
);
}
);
width = 600;
},
{
background = {
shapes = (
{
pos = (80,-460);
ref = _dot;
},
{
pos = (80,20);
ref = _dot;
},
{
pos = (80,-220);
ref = _dot;
},
{
pos = (-160,-460);
ref = _dot;
},
{
pos = (-160,20);
ref = _dot;
},
{
pos = (-160,-220);
ref = _dot;
},
{
pos = (80,-460);
ref = _dot;
},
{
pos = (80,20);
ref = _dot;
},
{
pos = (80,-220);
ref = _dot;
},
{
pos = (-160,-460);
ref = _dot;
},
{
pos = (-160,20);
ref = _dot;
},
{
pos = (-160,-220);
ref = _dot;
}
);
};
hints = (
{
name = "_corner.leftSerif-TOP";
origin = (1,3);
type = Corner;
}
);
layerId = m01;
name = Regular;
shapes = (
{
closed = 1;
nodes = (
(460,120,l),
(480,160,l),
(480,820,l),
(400,820,l),
(400,120,l)
);
},
{
closed = 1;
nodes = (
(140,20,l),
(140,820,l),
(100,820,l),
(60,820,l),
(60,20,l)
);
},
{
alignment = -1;
pos = (80,-460);
ref = _dot;
},
{
closed = 1;
nodes = (
(340,20,l),
(340,760,l),
(300,820,l),
(260,820,l),
(260,80,l),
(300,20,l)
);
},
{
alignment = -1;
pos = (-160,20);
ref = _dot;
},
{
closed = 1;
nodes = (
(280,740,l),
(280,820,l),
(120,820,l),
(120,740,l)
);
},
{
closed = 1;
nodes = (
(380,20,l),
(380,100,l),
(320,100,l),
(320,20,l)
);
}
);
visible = 1;
width = 600;
},
{
associatedMasterId = m01;
background = {
shapes = (
{
pos = (80,-460);
ref = _dot;
},
{
pos = (80,20);
ref = _dot;
},
{
pos = (80,-220);
ref = _dot;
},
{
pos = (-160,-460);
ref = _dot;
},
{
pos = (-160,20);
ref = _dot;
},
{
pos = (-160,-220);
ref = _dot;
},
{
pos = (80,-460);
ref = _dot;
},
{
pos = (80,20);
ref = _dot;
},
{
pos = (80,-220);
ref = _dot;
},
{
pos = (-160,-460);
ref = _dot;
},
{
pos = (-160,20);
ref = _dot;
},
{
pos = (-160,-220);
ref = _dot;
}
);
};
hints = (
{
name = "_corner.leftSerif-TOP";
origin = (1,3);
type = Corner;
}
);
layerId = "06F4BD09-0300-4D69-B48B-5D56BB0199E7";
name = "18. Dez. 24, 11:29";
shapes = (
{
closed = 1;
nodes = (
(560,20,l),
(600,60,l),
(600,820,l),
(520,820,l),
(520,20,l)
);
},
{
closed = 1;
nodes = (
(120,20,l),
(120,820,l),
(80,820,l),
(40,820,l),
(40,20,l)
);
},
{
alignment = -1;
pos = (80,-460);
ref = _dot;
},
{
closed = 1;
nodes = (
(140,500,l),
(140,580,l),
(100,580,l),
(100,500,l)
);
},
{
closed = 1;
nodes = (
(360,20,l),
(360,760,l),
(320,820,l),
(280,820,l),
(280,80,l),
(321,20,l)
);
},
{
alignment = -1;
pos = (-160,20);
ref = _dot;
},
{
closed = 1;
nodes = (
(300,740,l),
(300,820,l),
(100,820,l),
(100,740,l)
);
},
{
closed = 1;
nodes = (
(380,20,l),
(380,100,l),
(340,100,l),
(340,20,l)
);
},
{
closed = 1;
nodes = (
(540,20,l),
(540,100,l),
(500,100,l),
(500,20,l)
);
},
{
closed = 1;
nodes = (
(300,500,l),
(300,580,l),
(260,580,l),
(260,500,l)
);
}
);
width = 600;
}
);
},
{
glyphname = CH;
lastChange = "2024-12-18 10:32:12 +0000";
layers = (
{
background = {
shapes = (
{
pos = (80,-460);
ref = _dot;
},
{
pos = (80,20);
ref = _dot;
},
{
pos = (80,-220);
ref = _dot;
},
{
pos = (-160,-460);
ref = _dot;
},
{
pos = (-160,20);
ref = _dot;
},
{
pos = (-160,-220);
ref = _dot;
},
{
pos = (80,-460);
ref = _dot;
},
{
pos = (80,20);
ref = _dot;
},
{
pos = (80,-220);
ref = _dot;
},
{
pos = (-160,-460);
ref = _dot;
},
{
pos = (-160,20);
ref = _dot;
},
{
pos = (-160,-220);
ref = _dot;
}
);
};
layerId = m01;
shapes = (
{
alignment = -1;
pos = (80,-220);
ref = _dot;
},
{
alignment = -1;
pos = (80,20);
ref = _dot;
},
{
alignment = -1;
pos = (80,-460);
ref = _dot;
},
{
alignment = -1;
pos = (-160,20);
ref = _dot;
},
{
closed = 1;
nodes = (
(100,820,l),
(20,740,l),
(20,100,l),
(100,60,l)
);
},
{
closed = 1;
nodes = (
(240,20,l),
(240,100,l),
(20,100,l),
(80,20,l)
);
},
{
closed = 1;
nodes = (
(240,100,l),
(240,160,l),
(160,160,l),
(160,120,l),
(160,80,l)
);
},
{
closed = 1;
nodes = (
(480,480,l),
(480,360,l),
(400,360,l),
(400,480,l)
);
},
{
closed = 1;
nodes = (
(480,240,l),
(480,120,l),
(400,120,l),
(400,240,l)
);
},
{
closed = 1;
nodes = (
(340,820,l),
(340,20,l),
(260,20,l),
(260,820,l)
);
},
{
closed = 1;
nodes = (
(380,580,l),
(380,500,l),
(320,500,l),
(320,580,l)
);
},
{
closed = 1;
nodes = (
(160,740,l),
(160,820,l),
(100,820,l),
(100,740,l)
);
},
{
closed = 1;
nodes = (
(480,820,l),
(480,600,l),
(400,600,l),
(400,820,l)
);
},
{
closed = 1;
nodes = (
(160,680,l),
(160,600,l),
(240,600,l),
(240,800,l),
(160,820,l)
);
}
);
width = 600;
}
);
},
{
glyphname = EI;
lastChange = "2024-12-18 10:34:22 +0000";
layers = (
{
background = {
shapes = (
{
pos = (80,-460);
ref = _dot;
},
{
pos = (80,20);
ref = _dot;
},
{
pos = (80,-220);
ref = _dot;
},
{
pos = (-160,-460);
ref = _dot;
},
{
pos = (-160,20);
ref = _dot;
},
{
pos = (-160,-220);
ref = _dot;
},
{
pos = (80,-460);
ref = _dot;
},
{
pos = (80,20);
ref = _dot;
},
{
pos = (80,-220);
ref = _dot;
},
{
pos = (-160,-460);
ref = _dot;
},
{
pos = (-160,20);
ref = _dot;
},
{
pos = (-160,-220);
ref = _dot;
}
);
};
hints = (
{
name = "_corner.leftSerif-TOP";
origin = (7,3);
type = Corner;
},
{
name = _corner.leftSerif;
origin = (4,0);
type = Corner;
}
);
layerId = m01;
shapes = (
{
alignment = -1;
pos = (80,20);
ref = _dot;
},
{
alignment = -1;
pos = (80,-460);
ref = _dot;
},
{
alignment = -1;
pos = (-160,20);
ref = _dot;
},
{
closed = 1;
nodes = (
(260,500,l),
(340,500,l),
(340,580,l),
(260,580,l)
);
},
{
closed = 1;
nodes = (
(160,20,l),
(240,20,l),
(240,480,l),
(160,480,l)
);
},
{
closed = 1;
nodes = (
(360,20,l),
(360,100,l),
(200,100,l),
(200,20,l)
);
},
{
closed = 1;
nodes = (
(480,480,l),
(480,120,l),
(400,120,l),
(400,480,l)
);
},
{
closed = 1;
nodes = (
(160,600,l),
(240,600,l),
(240,820,l),
(160,820,l)
);
},
{
closed = 1;
nodes = (
(220,740,l),
(360,740,l),
(360,820,l),
(220,820,l)
);
},
{
closed = 1;
nodes = (
(480,820,l),
(480,600,l),
(400,600,l),
(400,820,l)
);
}
);
width = 600;
}
);
},
{
glyphname = EU;
lastChange = "2024-12-18 10:36:30 +0000";
layers = (
{
background = {
shapes = (
{
pos = (80,-460);
ref = _dot;
},
{
pos = (80,20);
ref = _dot;
},
{
pos = (80,-220);
ref = _dot;
},
{
pos = (-160,-460);
ref = _dot;
},
{
pos = (-160,20);
ref = _dot;
},
{
pos = (-160,-220);
ref = _dot;
},
{
pos = (80,-460);
ref = _dot;
},
{
pos = (80,20);
ref = _dot;
},
{
pos = (80,-220);
ref = _dot;
},
{
pos = (-160,-460);
ref = _dot;
},
{
pos = (-160,20);
ref = _dot;
},
{
pos = (-160,-220);
ref = _dot;
}
);
};
hints = (
{
name = "_corner.leftSerif-TOP";
origin = (2,2);
type = Corner;
},
{
name = _corner.leftSerif;
origin = (2,3);
type = Corner;
},
{
name = _corner.rightSerif;
origin = (1,1);
type = Corner;
},
{
name = _corner.leftSerif;
origin = (3,0);
type = Corner;
}
);
layerId = m01;
shapes = (
{
closed = 1;
nodes = (
(540,20,l),
(580,60,l),
(580,820,l),
(500,820,l),
(500,20,l)
);
},
{
closed = 1;
nodes = (
(240,20,l),
(240,100,l),
(80,100,l),
(80,20,l)
);
},
{
closed = 1;
nodes = (
(140,20,l),
(140,820,l),
(60,820,l),
(60,20,l)
);
},
{
closed = 1;
nodes = (
(240,740,l),
(240,820,l),
(100,820,l),
(100,740,l)
);
},
{
alignment = -1;
pos = (80,-460);
ref = _dot;
},
{
closed = 1;
nodes = (
(380,20,l),
(380,820,l),
(300,820,l),
(300,80,l),
(340,20,l)
);
},
{
alignment = -1;
pos = (-160,20);
ref = _dot;
}
);
width = 600;
}
);
},
{
glyphname = IE;
lastChange = "2024-12-18 10:37:12 +0000";
layers = (
{
background = {
shapes = (
{
pos = (80,-460);
ref = _dot;
},
{
pos = (80,20);
ref = _dot;
},
{
pos = (80,-220);
ref = _dot;
},
{
pos = (-160,-460);
ref = _dot;
},
{
pos = (-160,20);
ref = _dot;
},
{
pos = (-160,-220);
ref = _dot;
},
{
pos = (80,-460);
ref = _dot;
},
{
pos = (80,20);
ref = _dot;
},
{
pos = (80,-220);
ref = _dot;
},
{
pos = (-160,-460);
ref = _dot;
},
{
pos = (-160,20);
ref = _dot;
},
{
pos = (-160,-220);
ref = _dot;
}
);
};
layerId = m01;
shapes = (
{
alignment = -1;
pos = (-160,-460);
ref = _dot;
},
{
alignment = -1;
pos = (80,-460);
ref = _dot;
},
{
alignment = -1;
pos = (80,20);
ref = _dot;
},
{
closed = 1;
nodes = (
(240,120,l),
(240,820,l),
(160,820,l),
(160,120,l)
);
},
{
closed = 1;
nodes = (
(360,20,l),
(360,820,l),
(280,820,l),
(280,20,l)
);
},
{
closed = 1;
nodes = (
(480,740,l),
(480,820,l),
(320,820,l),
(320,740,l)
);
},
{
closed = 1;
nodes = (
(380,500,l),
(380,580,l),
(320,580,l),
(320,500,l)
);
},
{
closed = 1;
nodes = (
(380,20,l),
(380,100,l),
(320,100,l),
(320,20,l)
);
}
);
width = 600;
}
);
},
{
glyphname = SCH;
lastChange = "2024-12-18 10:39:43 +0000";
layers = (
{
background = {
shapes = (
{
pos = (80,-460);
ref = _dot;
},
{
pos = (80,20);
ref = _dot;
},
{
pos = (80,-220);
ref = _dot;
},
{
pos = (-160,-460);
ref = _dot;
},
{
pos = (-160,20);
ref = _dot;
},
{
pos = (-160,-220);
ref = _dot;
},
{
pos = (80,-460);
ref = _dot;
},
{
pos = (80,20);
ref = _dot;
},
{
pos = (80,-220);
ref = _dot;
},
{
pos = (-160,-460);
ref = _dot;
},
{
pos = (-160,20);
ref = _dot;
},
{
pos = (-160,-220);
ref = _dot;
}
);
};
layerId = m01;
shapes = (
{
closed = 1;
nodes = (
(140,500,l),
(140,700,l),
(140,820,l),
(60,740,l),
(60,540,l),
(100,500,l)
);
},
{
closed = 1;
nodes = (
(240,100,l),
(240,440,l),
(220,480,l),
(160,480,l),
(160,400,l),
(160,360,l),
(160,100,l)
);
},
{
closed = 1;
nodes = (
(160,20,l),
(240,100,l),
(60,100,l),
(60,20,l)
);
},
{
closed = 1;
nodes = (
(340,740,l),
(340,20,l),
(320,20,l),
(260,100,l),
(260,740,l)
);
},
{
closed = 1;
nodes = (
(480,240,l),
(480,120,l),
(400,120,l),
(400,240,l)
);
},
{
closed = 1;
nodes = (
(280,820,l),
(260,740,l),
(380,740,l),
(380,820,l)
);
},
{
closed = 1;
nodes = (
(60,140,l),
(80,160,l),
(140,160,l),
(140,100,l),
(60,100,l)
);
},
{
closed = 1;
nodes = (
(480,360,l),
(480,820,l),
(400,820,l),
(400,360,l)
);
},
{
closed = 1;
nodes = (
(600,20,l),
(600,820,l),
(520,820,l),
(520,20,l)
);
},
{
closed = 1;
nodes = (
(340,100,l),
(340,20,l),
(360,20,l),
(380,100,l)
);
},
{
pos = (80,-220);
ref = _dot;
},
{
pos = (80,-460);
ref = _dot;
},
{
pos = (-160,20);
ref = _dot;
},
{
closed = 1;
nodes = (
(460,500,l),
(560,500,l),
(560,580,l),
(460,580,l)
);
},
{
closed = 1;
nodes = (
(240,820,l),
(140,820,l),
(140,740,l),
(240,740,l)
);
},
{
closed = 1;
nodes = (
(240,740,l),
(240,680,l),
(180,680,l),
(160,700,l),
(160,740,l)
);
}
);
width = 600;
}
);
},
{
glyphname = ST;
lastChange = "2024-12-25 14:05:08 +0000";
layers = (
{
background = {
shapes = (
{
pos = (80,-460);
ref = _dot;
},
{
pos = (80,20);
ref = _dot;
},
{
pos = (80,-220);
ref = _dot;
},
{
pos = (-160,-460);
ref = _dot;
},
{
pos = (-160,20);
ref = _dot;
},
{
pos = (-160,-220);
ref = _dot;
},
{
pos = (80,-460);
ref = _dot;
},
{
pos = (80,20);
ref = _dot;
},
{
pos = (80,-220);
ref = _dot;
},
{
pos = (-160,-460);
ref = _dot;
},
{
pos = (-160,20);
ref = _dot;
},
{
pos = (-160,-220);
ref = _dot;
}
);
};
layerId = m01;
shapes = (
{
alignment = -1;
pos = (80,20);
ref = _dot;
},
{
alignment = -1;
pos = (-160,-220);
ref = _dot;
},
{
alignment = -1;
pos = (-160,-460);
ref = _dot;
},
{
alignment = -1;
pos = (80,-220);
ref = _dot;
},
{
alignment = -1;
pos = (80,-460);
ref = _dot;
},
{
closed = 1;
nodes = (
(480,820,l),
(480,600,l),
(400,600,l),
(400,820,l)
);
},
{
closed = 1;
nodes = (
(480,240,l),
(480,120,l),
(400,120,l),
(400,240,l)
);
},
{
closed = 1;
nodes = (
(300,820,l),
(300,780,l),
(280,740,l),
(240,740,l),
(240,820,l)
);
},
{
closed = 1;
nodes = (
(300,560,l),
(360,480,l),
(360,80,l),
(320,20,l),
(280,20,l),
(280,560,l)
);
},
{
closed = 1;
nodes = (
(240,480,l),
(200,480,l),
(160,540,l),
(160,780,l),
(200,820,l),
(240,820,l)
);
},
{
closed = 1;
nodes = (
(560,740,l),
(320,740,l),
(320,820,l),
(560,820,l)
);
},
{
closed = 1;
nodes = (
(300,100,l),
(300,20,l),
(260,20,l),
(260,100,l)
);
},
{
closed = 1;
nodes = (
(480,480,l),
(480,340,l),
(400,340,l),
(400,480,l)
);
},
{
closed = 1;
nodes = (
(280,560,l),
(300,480,l),
(240,480,l),
(240,560,l)
);
},
{
closed = 1;
nodes = (
(240,240,l),
(240,120,l),
(160,120,l),
(160,240,l)
);
}
);
width = 600;
},
{
associatedMasterId = m01;
background = {
shapes = (
{
pos = (80,-460);
ref = _dot;
},
{
pos = (80,20);
ref = _dot;
},
{
pos = (80,-220);
ref = _dot;
},
{
pos = (-160,-460);
ref = _dot;
},
{
pos = (-160,20);
ref = _dot;
},
{
pos = (-160,-220);
ref = _dot;
},
{
pos = (80,-460);
ref = _dot;
},
{
pos = (80,20);
ref = _dot;
},
{
pos = (80,-220);
ref = _dot;
},
{
pos = (-160,-460);
ref = _dot;
},
{
pos = (-160,20);
ref = _dot;
},
{
pos = (-160,-220);
ref = _dot;
}
);
};
layerId = "35E28357-D975-4FE5-B3A9-537378C5F7BE";
name = "18. Dez. 24, 11:44";
shapes = (
{
alignment = -1;
pos = (80,20);
ref = _dot;
},
{
alignment = -1;
pos = (-160,-220);
ref = _dot;
},
{
alignment = -1;
pos = (-160,-460);
ref = _dot;
},
{
alignment = -1;
pos = (80,-220);
ref = _dot;
},
{
alignment = -1;
pos = (80,-460);
ref = _dot;
},
{
closed = 1;
nodes = (
(480,820,l),
(480,600,l),
(400,600,l),
(400,820,l)
);
},
{
closed = 1;
nodes = (
(480,240,l),
(480,120,l),
(400,120,l),
(400,240,l)
);
},
{
closed = 1;
nodes = (
(240,820,l),
(260,780,l),
(260,740,l),
(220,740,l),
(120,740,l),
(120,820,l)
);
},
{
closed = 1;
nodes = (
(320,340,l),
(360,260,l),
(360,80,l),
(320,20,l),
(280,20,l),
(280,340,l)
);
},
{
closed = 1;
nodes = (
(120,100,l),
(120,20,l),
(80,20,l),
(40,60,l),
(40,100,l)
);
},
{
closed = 1;
nodes = (
(120,260,l),
(80,260,l),
(40,320,l),
(40,740,l),
(80,820,l),
(120,820,l)
);
},
{
closed = 1;
nodes = (
(580,740,l),
(300,740,l),
(300,820,l),
(580,820,l)
);
},
{
closed = 1;
nodes = (
(140,260,l),
(100,260,l),
(100,340,l),
(140,340,l)
);
},
{
closed = 1;
nodes = (
(300,340,l),
(300,260,l),
(260,260,l),
(260,340,l)
);
},
{
closed = 1;
nodes = (
(300,100,l),
(300,20,l),
(260,20,l),
(260,100,l)
);
},
{
closed = 1;
nodes = (
(140,100,l),
(140,20,l),
(100,20,l),
(100,100,l)
);
},
{
closed = 1;
nodes = (
(480,480,l),
(480,340,l),
(400,340,l),
(400,480,l)
);
}
);
width = 600;
}
);
},
{
glyphname = _dot;
lastChange = "2025-01-10 16:01:50 +0000";
layers = (
{
layerId = m01;
shapes = (
{
closed = 1;
nodes = (
(340,500,o),
(340,500,o),
(340,520,cs),
(340,530,o),
(340,540,o),
(360,540,cs),
(380,540,o),
(380,530,o),
(380,520,cs),
(380,500,o),
(380,500,o),
(360,500,cs)
);
},
{
closed = 1;
nodes = (
(395,480,o),
(400,485,o),
(400,520,cs),
(400,555,o),
(395,560,o),
(360,560,cs),
(325,560,o),
(320,555,o),
(320,520,cs),
(320,485,o),
(325,480,o),
(360,480,cs)
);
}
);
width = 600;
}
);
},
{
glyphname = ch;
lastChange = "2024-12-17 17:55:54 +0000";
layers = (
{
background = {
shapes = (
{
pos = (80,-460);
ref = _dot;
},
{
pos = (80,20);
ref = _dot;
},
{
pos = (80,-220);
ref = _dot;
},
{
pos = (-160,-460);
ref = _dot;
},
{
pos = (-160,20);
ref = _dot;
},
{
pos = (-160,-220);
ref = _dot;
},
{
pos = (80,-460);
ref = _dot;
},
{
pos = (80,20);
ref = _dot;
},
{
pos = (80,-220);
ref = _dot;
},
{
pos = (-160,-460);
ref = _dot;
},
{
pos = (-160,20);
ref = _dot;
},
{
pos = (-160,-220);
ref = _dot;
}
);
};
hints = (
{
name = "_corner.leftSerif-TOP";
origin = (5,2);
type = Corner;
}
);
layerId = m01;
shapes = (
{
alignment = -1;
pos = (80,-220);
ref = _dot;
},
{
alignment = -1;
pos = (80,20);
ref = _dot;
},
{
alignment = -1;
pos = (80,-460);
ref = _dot;
},
{
alignment = -1;
pos = (-160,20);
ref = _dot;
},
{
closed = 1;
nodes = (
(380,560,l),
(380,580,l),
(300,580,l),
(300,500,l),
(380,500,l)
);
},
{
closed = 1;
nodes = (
(340,20,l),
(340,900,l),
(260,900,l),
(260,20,l)
);
},
{
closed = 1;
nodes = (
(400,240,l),
(400,120,l),
(480,120,l),
(480,240,l)
);
},
{
closed = 1;
nodes = (
(480,480,l),
(480,360,l),
(400,360,l),
(400,480,l)
);
},
{
closed = 1;
nodes = (
(200,20,l),
(240,60,l),
(240,100,l),
(140,100,l),
(140,20,l)
);
},
{
closed = 1;
nodes = (
(140,580,l),
(60,500,l),
(60,100,l),
(140,20,l)
);
}
);
width = 600;
}
);
},
{
glyphname = ei;
lastChange = "2024-12-17 17:53:58 +0000";
layers = (
{
background = {
shapes = (
{
pos = (80,-460);
ref = _dot;
},
{
pos = (80,20);
ref = _dot;
},
{
pos = (80,-220);
ref = _dot;
},
{
pos = (-160,-460);
ref = _dot;
},
{
pos = (-160,20);
ref = _dot;
},
{
pos = (-160,-220);
ref = _dot;
},
{
pos = (80,-460);
ref = _dot;
},
{
pos = (80,20);
ref = _dot;
},
{
pos = (80,-220);
ref = _dot;
},
{
pos = (-160,-460);
ref = _dot;
},
{
pos = (-160,20);
ref = _dot;
},
{
pos = (-160,-220);
ref = _dot;
}
);
};
layerId = m01;
shapes = (
{
alignment = -1;
pos = (80,-460);
ref = _dot;
},
{
alignment = -1;
pos = (80,20);
ref = _dot;
},
{
alignment = -1;
pos = (-160,-460);
ref = _dot;
},
{
closed = 1;
nodes = (
(340,340,l),
(340,500,l),
(260,580,l),
(260,260,l)
);
},
{
closed = 1;
nodes = (
(140,580,l),
(60,500,l),
(60,100,l),
(140,20,l)
);
},
{
closed = 1;
nodes = (
(260,340,l),
(260,260,l),
(180,260,l),
(140,320,l),
(140,340,l)
);
},
{
closed = 1;
nodes = (
(300,20,l),
(340,60,l),
(340,100,l),
(260,100,l),
(260,20,l)
);
},
{
closed = 1;
nodes = (
(400,120,l),
(480,120,l),
(480,480,l),
(400,480,l)
);
},
{
closed = 1;
nodes = (
(480,740,l),
(480,840,l),
(400,840,l),
(400,740,l)
);
},
{
closed = 1;
nodes = (
(280,500,l),
(260,580,l),
(140,580,l),
(120,500,l)
);
}
);
width = 600;
}
);
},
{
glyphname = eu;
lastChange = "2024-12-17 17:55:04 +0000";
layers = (
{
background = {
shapes = (
{
pos = (80,-460);
ref = _dot;
},
{
pos = (80,20);
ref = _dot;
},
{
pos = (80,-220);
ref = _dot;
},
{
pos = (-160,-460);
ref = _dot;
},
{
pos = (-160,20);
ref = _dot;
},
{
pos = (-160,-220);
ref = _dot;
},
{
pos = (80,-460);
ref = _dot;
},
{
pos = (80,20);
ref = _dot;
},
{
pos = (80,-220);
ref = _dot;
},
{
pos = (-160,-460);
ref = _dot;
},
{
pos = (-160,20);
ref = _dot;
},
{
pos = (-160,-220);
ref = _dot;
}
);
};
layerId = m01;
shapes = (
{
alignment = -1;
pos = (80,-460);
ref = _dot;
},
{
alignment = -1;
pos = (-160,20);
ref = _dot;
},
{
closed = 1;
nodes = (
(340,340,l),
(340,500,l),
(260,580,l),
(260,260,l)
);
},
{
closed = 1;
nodes = (
(140,580,l),
(60,500,l),
(60,100,l),
(140,20,l)
);
},
{
closed = 1;
nodes = (
(260,340,l),
(260,260,l),
(180,260,l),
(140,320,l),
(140,340,l)
);
},
{
closed = 1;
nodes = (
(300,20,l),
(340,60,l),
(340,100,l),
(140,100,l),
(140,20,l)
);
},
{
closed = 1;
nodes = (
(440,580,l),
(440,120,l),
(380,120,l),
(380,80,l),
(360,120,l),
(360,580,l)
);
},
{
closed = 1;
nodes = (
(500,20,l),
(520,20,l),
(600,100,l),
(500,100,l)
);
},
{
closed = 1;
nodes = (
(520,100,l),
(520,580,l),
(600,580,l),
(600,100,l)
);
}
);
width = 600;
}
);
},
{
glyphname = ie;
lastChange = "2024-12-17 17:59:27 +0000";
layers = (
{
background = {
shapes = (
{
pos = (80,-460);
ref = _dot;
},
{
pos = (80,20);
ref = _dot;
},
{
pos = (80,-220);
ref = _dot;
},
{
pos = (-160,-460);
ref = _dot;
},
{
pos = (-160,20);
ref = _dot;
},
{
pos = (-160,-220);
ref = _dot;
},
{
pos = (80,-460);
ref = _dot;
},
{
pos = (80,20);
ref = _dot;
},
{
pos = (80,-220);
ref = _dot;
},
{
pos = (-160,-460);
ref = _dot;
},
{
pos = (-160,20);
ref = _dot;
},
{
pos = (-160,-220);
ref = _dot;
}
);
};
hints = (
{
name = "_corner.leftSerif-TOP";
origin = (7,2);
type = Corner;
},
{
name = "_corner.rightSerif-TOP";
origin = (7,1);
type = Corner;
}
);
layerId = m01;
shapes = (
{
alignment = -1;
pos = (-160,-460);
ref = _dot;
},
{
alignment = -1;
pos = (80,-460);
ref = _dot;
},
{
alignment = -1;
pos = (80,20);
ref = _dot;
},
{
closed = 1;
nodes = (
(520,20,l),
(560,60,l),
(560,120,l),
(500,120,l),
(500,20,l)
);
},
{
closed = 1;
nodes = (
(380,580,l),
(300,540,l),
(300,100,l),
(380,20,l)
);
},
{
closed = 1;
nodes = (
(340,300,l),
(400,260,l),
(500,260,l),
(580,340,l),
(340,340,l)
);
},
{
closed = 1;
nodes = (
(580,340,l),
(580,500,l),
(500,580,l),
(500,340,l)
);
},
{
closed = 1;
nodes = (
(240,120,l),
(240,580,l),
(160,580,l),
(160,120,l)
);
},
{
closed = 1;
nodes = (
(240,740,l),
(240,840,l),
(160,840,l),
(160,740,l)
);
},
{
closed = 1;
nodes = (
(280,20,l),
(280,100,l),
(260,100,l),
(260,20,l)
);
}
);
width = 600;
}
);
},
{
glyphname = sch;
lastChange = "2024-12-17 19:48:56 +0000";
layers = (
{
background = {
shapes = (
{
pos = (80,-460);
ref = _dot;
},
{
pos = (80,20);
ref = _dot;
},
{
pos = (80,-220);
ref = _dot;
},
{
pos = (-160,-460);
ref = _dot;
},
{
pos = (-160,20);
ref = _dot;
},
{
pos = (-160,-220);
ref = _dot;
},
{
pos = (80,-460);
ref = _dot;
},
{
pos = (80,20);
ref = _dot;
},
{
pos = (80,-220);
ref = _dot;
},
{
pos = (-160,-460);
ref = _dot;
},
{
pos = (-160,20);
ref = _dot;
},
{
pos = (-160,-220);
ref = _dot;
}
);
};
hints = (
{
name = "_corner.leftSerif-TOP";
origin = (7,2);
type = Corner;
}
);
layerId = m01;
shapes = (
{
closed = 1;
nodes = (
(140,260,l),
(140,460,l),
(140,580,l),
(60,500,l),
(60,300,l),
(100,260,l)
);
},
{
closed = 1;
nodes = (
(240,100,l),
(240,280,l),
(180,340,l),
(160,340,l),
(160,260,l),
(160,220,l),
(160,100,l)
);
},
{
closed = 1;
nodes = (
(160,20,l),
(240,100,l),
(60,100,l),
(60,20,l)
);
},
{
closed = 1;
nodes = (
(340,500,l),
(340,20,l),
(320,20,l),
(260,100,l),
(260,500,l)
);
},
{
closed = 1;
nodes = (
(480,240,l),
(480,120,l),
(400,120,l),
(400,240,l)
);
},
{
closed = 1;
nodes = (
(320,580,l),
(260,500,l),
(380,500,l),
(380,580,l)
);
},
{
closed = 1;
nodes = (
(60,140,l),
(80,160,l),
(140,160,l),
(140,100,l),
(60,100,l)
);
},
{
closed = 1;
nodes = (
(480,360,l),
(480,900,l),
(400,900,l),
(400,360,l)
);
},
{
closed = 1;
nodes = (
(520,500,l),
(520,20,l),
(600,20,l),
(600,540,l),
(520,580,l),
(460,580,l),
(460,500,l)
);
},
{
pos = (80,-220);
ref = _dot;
},
{
pos = (80,-460);
ref = _dot;
},
{
pos = (-160,20);
ref = _dot;
},
{
closed = 1;
nodes = (
(120,260,l),
(160,260,l),
(160,340,l),
(120,340,l)
);
},
{
closed = 1;
nodes = (
(340,100,l),
(340,20,l),
(360,20,l),
(380,100,l)
);
}
);
width = 600;
}
);
},
{
glyphname = st;
lastChange = "2024-12-17 17:57:51 +0000";
layers = (
{
background = {
shapes = (
{
pos = (40,-460);
ref = _dot;
},
{
pos = (40,20);
ref = _dot;
},
{
pos = (40,-220);
ref = _dot;
},
{
pos = (-200,-460);
ref = _dot;
},
{
pos = (-200,20);
ref = _dot;
},
{
pos = (-200,-220);
ref = _dot;
},
{
pos = (40,-460);
ref = _dot;
},
{
pos = (40,20);
ref = _dot;
},
{
pos = (40,-220);
ref = _dot;
},
{
pos = (-200,-460);
ref = _dot;
},
{
pos = (-200,20);
ref = _dot;
},
{
pos = (-200,-220);
ref = _dot;
}
);
};
layerId = m01;
shapes = (
{
closed = 1;
nodes = (
(100,260,l),
(100,460,l),
(100,500,l),
(20,500,l),
(20,300,l),
(60,260,l)
);
},
{
closed = 1;
nodes = (
(280,580,l),
(100,580,l),
(20,500,l),
(280,500,l)
);
},
{
closed = 1;
nodes = (
(300,100,l),
(300,280,l),
(240,340,l),
(220,340,l),
(220,260,l),
(220,220,l),
(220,100,l)
);
},
{
closed = 1;
nodes = (
(220,20,l),
(300,100,l),
(20,100,l),
(20,20,l)
);
},
{
closed = 1;
nodes = (
(300,500,l),
(300,420,l),
(240,420,l),
(220,440,l),
(220,500,l)
);
},
{
pos = (-200,-220);
ref = _dot;
},
{
pos = (40,-220);
ref = _dot;
},
{
pos = (40,20);
ref = _dot;
},
{
pos = (40,-460);
ref = _dot;
},
{
pos = (-200,-460);
ref = _dot;
},
{
closed = 1;
nodes = (
(440,480,l),
(440,360,l),
(360,360,l),
(360,480,l)
);
},
{
closed = 1;
nodes = (
(440,240,l),
(440,120,l),
(360,120,l),
(360,240,l)
);
},
{
closed = 1;
nodes = (
(540,580,l),
(540,500,l),
(460,500,l),
(460,580,l)
);
},
{
closed = 1;
nodes = (
(280,580,l),
(280,500,l),
(340,500,l),
(340,580,l)
);
},
{
closed = 1;
nodes = (
(20,140,l),
(40,160,l),
(100,160,l),
(100,100,l),
(20,100,l)
);
},
{
closed = 1;
nodes = (
(380,800,l),
(440,800,l),
(440,600,l),
(360,600,l),
(360,780,l)
);
},
{
closed = 1;
nodes = (
(460,20,l),
(480,20,l),
(560,100,l),
(560,160,l),
(480,160,l),
(480,100,l),
(460,100,l)
);
}
);
width = 560;
}
);
},
{
glyphname = AU.sc;
lastChange = "2024-12-18 08:37:27 +0000";
layers = (
{
associatedMasterId = m01;
background = {
shapes = (
{
pos = (80,-460);
ref = _dot;
},
{
pos = (80,20);
ref = _dot;
},
{
pos = (80,-220);
ref = _dot;
},
{
pos = (-160,-460);
ref = _dot;
},
{
pos = (-160,20);
ref = _dot;
},
{
pos = (-160,-220);
ref = _dot;
},
{
pos = (80,-460);
ref = _dot;
},
{
pos = (80,20);
ref = _dot;
},
{
pos = (80,-220);
ref = _dot;
},
{
pos = (-160,-460);
ref = _dot;
},
{
pos = (-160,20);
ref = _dot;
},
{
pos = (-160,-220);
ref = _dot;
}
);
};
hints = (
{
name = "_corner.leftSerif-TOP";
origin = (1,3);
type = Corner;
}
);
layerId = "4934890B-FF06-4E17-8388-3AD696AEAA30";
name = "17. Dez. 24, 20:42";
shapes = (
{
closed = 1;
nodes = (
(440,120,l),
(480,120,l),
(480,580,l),
(400,580,l),
(400,120,l)
);
},
{
closed = 1;
nodes = (
(140,20,l),
(140,580,l),
(100,580,l),
(60,580,l),
(60,20,l)
);
},
{
alignment = -1;
pos = (80,-460);
ref = _dot;
},
{
closed = 1;
nodes = (
(320,260,l),
(320,340,l),
(100,340,l),
(100,260,l)
);
},
{
closed = 1;
nodes = (
(340,20,l),
(340,520,l),
(300,580,l),
(260,580,l),
(260,80,l),
(300,20,l)
);
},
{
alignment = -1;
pos = (-160,20);
ref = _dot;
},
{
closed = 1;
nodes = (
(320,20,l),
(380,20,l),
(380,100,l),
(300,100,l)
);
}
);
width = 600;
},
{
background = {
shapes = (
{
pos = (80,-460);
ref = _dot;
},
{
pos = (80,20);
ref = _dot;
},
{
pos = (80,-220);
ref = _dot;
},
{
pos = (-160,-460);
ref = _dot;
},
{
pos = (-160,20);
ref = _dot;
},
{
pos = (-160,-220);
ref = _dot;
},
{
pos = (80,-460);
ref = _dot;
},
{
pos = (80,20);
ref = _dot;
},
{
pos = (80,-220);
ref = _dot;
},
{
pos = (-160,-460);
ref = _dot;
},
{
pos = (-160,20);
ref = _dot;
},
{
pos = (-160,-220);
ref = _dot;
}
);
};
hints = (
{
name = "_corner.leftSerif-TOP";
origin = (1,3);
type = Corner;
}
);
layerId = m01;
name = Regular;
shapes = (
{
closed = 1;
nodes = (
(560,20,l),
(600,60,l),
(600,580,l),
(520,580,l),
(520,20,l)
);
},
{
closed = 1;
nodes = (
(120,20,l),
(120,580,l),
(80,580,l),
(40,580,l),
(40,20,l)
);
},
{
alignment = -1;
pos = (80,-460);
ref = _dot;
},
{
closed = 1;
nodes = (
(320,260,l),
(320,340,l),
(100,340,l),
(100,260,l)
);
},
{
closed = 1;
nodes = (
(360,20,l),
(360,520,l),
(320,580,l),
(280,580,l),
(280,80,l),
(321,20,l)
);
},
{
closed = 1;
nodes = (
(140,500,l),
(140,580,l),
(100,580,l),
(100,500,l)
);
},
{
alignment = -1;
pos = (-160,20);
ref = _dot;
},
{
closed = 1;
nodes = (
(300,500,l),
(300,580,l),
(260,580,l),
(260,500,l)
);
},
{
closed = 1;
nodes = (
(380,20,l),
(380,100,l),
(340,100,l),
(340,20,l)
);
},
{
closed = 1;
nodes = (
(540,20,l),
(540,100,l),
(500,100,l),
(500,20,l)
);
}
);
width = 600;
}
);
},
{
glyphname = CH.sc;
lastChange = "2024-12-18 08:37:27 +0000";
layers = (
{
background = {
shapes = (
{
pos = (80,-460);
ref = _dot;
},
{
pos = (80,20);
ref = _dot;
},
{
pos = (80,-220);
ref = _dot;
},
{
pos = (-160,-460);
ref = _dot;
},
{
pos = (-160,20);
ref = _dot;
},
{
pos = (-160,-220);
ref = _dot;
},
{
pos = (80,-460);
ref = _dot;
},
{
pos = (80,20);
ref = _dot;
},
{
pos = (80,-220);
ref = _dot;
},
{
pos = (-160,-460);
ref = _dot;
},
{
pos = (-160,20);
ref = _dot;
},
{
pos = (-160,-220);
ref = _dot;
}
);
};
layerId = m01;
shapes = (
{
alignment = -1;
pos = (80,-220);
ref = _dot;
},
{
alignment = -1;
pos = (80,20);
ref = _dot;
},
{
alignment = -1;
pos = (80,-460);
ref = _dot;
},
{
alignment = -1;
pos = (-160,20);
ref = _dot;
},
{
closed = 1;
nodes = (
(100,580,l),
(20,500,l),
(20,100,l),
(100,60,l)
);
},
{
closed = 1;
nodes = (
(240,20,l),
(240,100,l),
(20,100,l),
(80,20,l)
);
},
{
closed = 1;
nodes = (
(240,100,l),
(240,160,l),
(160,160,l),
(160,120,l),
(160,80,l)
);
},
{
closed = 1;
nodes = (
(480,480,l),
(480,360,l),
(400,360,l),
(400,480,l)
);
},
{
closed = 1;
nodes = (
(480,240,l),
(480,120,l),
(400,120,l),
(400,240,l)
);
},
{
closed = 1;
nodes = (
(340,580,l),
(340,20,l),
(260,20,l),
(260,580,l)
);
},
{
closed = 1;
nodes = (
(380,340,l),
(380,260,l),
(320,260,l),
(320,340,l)
);
},
{
closed = 1;
nodes = (
(140,500,l),
(140,580,l),
(100,580,l),
(100,500,l)
);
}
);
width = 600;
}
);
},
{
glyphname = EI.sc;
lastChange = "2024-12-18 08:37:27 +0000";
layers = (
{
background = {
shapes = (
{
pos = (80,-460);
ref = _dot;
},
{
pos = (80,20);
ref = _dot;
},
{
pos = (80,-220);
ref = _dot;
},
{
pos = (-160,-460);
ref = _dot;
},
{
pos = (-160,20);
ref = _dot;
},
{
pos = (-160,-220);
ref = _dot;
},
{
pos = (80,-460);
ref = _dot;
},
{
pos = (80,20);
ref = _dot;
},
{
pos = (80,-220);
ref = _dot;
},
{
pos = (-160,-460);
ref = _dot;
},
{
pos = (-160,20);
ref = _dot;
},
{
pos = (-160,-220);
ref = _dot;
}
);
};
layerId = m01;
shapes = (
{
alignment = -1;
pos = (80,20);
ref = _dot;
},
{
alignment = -1;
pos = (80,-460);
ref = _dot;
},
{
alignment = -1;
pos = (-160,20);
ref = _dot;
},
{
closed = 1;
nodes = (
(260,500,l),
(340,500,l),
(340,580,l),
(260,580,l)
);
},
{
closed = 1;
nodes = (
(240,480,l),
(240,20,l),
(160,20,l),
(160,480,l)
);
},
{
closed = 1;
nodes = (
(200,100,l),
(340,100,l),
(340,20,l),
(200,20,l)
);
},
{
closed = 1;
nodes = (
(180,340,l),
(300,340,l),
(300,260,l),
(180,260,l)
);
},
{
closed = 1;
nodes = (
(480,480,l),
(480,120,l),
(400,120,l),
(400,480,l)
);
}
);
width = 600;
}
);
},
{
glyphname = EU.sc;
lastChange = "2024-12-18 08:37:27 +0000";
layers = (
{
background = {
shapes = (
{
pos = (80,-460);
ref = _dot;
},
{
pos = (80,20);
ref = _dot;
},
{
pos = (80,-220);
ref = _dot;
},
{
pos = (-160,-460);
ref = _dot;
},
{
pos = (-160,20);
ref = _dot;
},
{
pos = (-160,-220);
ref = _dot;
},
{
pos = (80,-460);
ref = _dot;
},
{
pos = (80,20);
ref = _dot;
},
{
pos = (80,-220);
ref = _dot;
},
{
pos = (-160,-460);
ref = _dot;
},
{
pos = (-160,20);
ref = _dot;
},
{
pos = (-160,-220);
ref = _dot;
}
);
};
layerId = m01;
shapes = (
{
closed = 1;
nodes = (
(540,20,l),
(580,60,l),
(580,580,l),
(500,580,l),
(500,20,l)
);
},
{
closed = 1;
nodes = (
(240,20,l),
(240,100,l),
(80,100,l),
(80,20,l)
);
},
{
closed = 1;
nodes = (
(140,20,l),
(140,580,l),
(60,580,l),
(60,20,l)
);
},
{
closed = 1;
nodes = (
(200,260,l),
(200,340,l),
(80,340,l),
(80,260,l)
);
},
{
alignment = -1;
pos = (80,-460);
ref = _dot;
},
{
closed = 1;
nodes = (
(380,20,l),
(380,580,l),
(300,580,l),
(300,80,l),
(340,20,l)
);
},
{
alignment = -1;
pos = (-160,20);
ref = _dot;
}
);
width = 600;
}
);
},
{
glyphname = IE.sc;
lastChange = "2024-12-18 08:37:27 +0000";
layers = (
{
background = {
shapes = (
{
pos = (80,-460);
ref = _dot;
},
{
pos = (80,20);
ref = _dot;
},
{
pos = (80,-220);
ref = _dot;
},
{
pos = (-160,-460);
ref = _dot;
},
{
pos = (-160,20);
ref = _dot;
},
{
pos = (-160,-220);
ref = _dot;
},
{
pos = (80,-460);
ref = _dot;
},
{
pos = (80,20);
ref = _dot;
},
{
pos = (80,-220);
ref = _dot;
},
{
pos = (-160,-460);
ref = _dot;
},
{
pos = (-160,20);
ref = _dot;
},
{
pos = (-160,-220);
ref = _dot;
}
);
};
layerId = m01;
shapes = (
{
alignment = -1;
pos = (-160,-460);
ref = _dot;
},
{
alignment = -1;
pos = (80,-460);
ref = _dot;
},
{
alignment = -1;
pos = (80,20);
ref = _dot;
},
{
closed = 1;
nodes = (
(240,120,l),
(240,580,l),
(160,580,l),
(160,120,l)
);
},
{
closed = 1;
nodes = (
(360,20,l),
(360,580,l),
(280,580,l),
(280,20,l)
);
},
{
closed = 1;
nodes = (
(380,500,l),
(380,580,l),
(320,580,l),
(320,500,l)
);
},
{
closed = 1;
nodes = (
(440,260,l),
(440,340,l),
(320,340,l),
(320,260,l)
);
},
{
closed = 1;
nodes = (
(380,20,l),
(380,100,l),
(320,100,l),
(320,20,l)
);
}
);
width = 600;
}
);
},
{
glyphname = SCH.sc;
lastChange = "2024-12-18 08:37:27 +0000";
layers = (
{
background = {
shapes = (
{
pos = (80,-460);
ref = _dot;
},
{
pos = (80,20);
ref = _dot;
},
{
pos = (80,-220);
ref = _dot;
},
{
pos = (-160,-460);
ref = _dot;
},
{
pos = (-160,20);
ref = _dot;
},
{
pos = (-160,-220);
ref = _dot;
},
{
pos = (80,-460);
ref = _dot;
},
{
pos = (80,20);
ref = _dot;
},
{
pos = (80,-220);
ref = _dot;
},
{
pos = (-160,-460);
ref = _dot;
},
{
pos = (-160,20);
ref = _dot;
},
{
pos = (-160,-220);
ref = _dot;
}
);
};
layerId = m01;
shapes = (
{
closed = 1;
nodes = (
(140,260,l),
(140,460,l),
(140,580,l),
(60,500,l),
(60,300,l),
(100,260,l)
);
},
{
closed = 1;
nodes = (
(240,100,l),
(240,280,l),
(180,340,l),
(160,340,l),
(160,260,l),
(160,220,l),
(160,100,l)
);
},
{
closed = 1;
nodes = (
(160,20,l),
(240,100,l),
(60,100,l),
(60,20,l)
);
},
{
closed = 1;
nodes = (
(340,500,l),
(340,20,l),
(320,20,l),
(260,100,l),
(260,500,l)
);
},
{
closed = 1;
nodes = (
(480,240,l),
(480,120,l),
(400,120,l),
(400,240,l)
);
},
{
closed = 1;
nodes = (
(280,580,l),
(260,500,l),
(380,500,l),
(380,580,l)
);
},
{
closed = 1;
nodes = (
(60,140,l),
(80,160,l),
(140,160,l),
(140,100,l),
(60,100,l)
);
},
{
closed = 1;
nodes = (
(480,360,l),
(480,580,l),
(400,580,l),
(400,360,l)
);
},
{
closed = 1;
nodes = (
(600,20,l),
(600,580,l),
(520,580,l),
(520,20,l)
);
},
{
closed = 1;
nodes = (
(120,260,l),
(160,260,l),
(160,340,l),
(120,340,l)
);
},
{
closed = 1;
nodes = (
(340,100,l),
(340,20,l),
(360,20,l),
(380,100,l)
);
},
{
pos = (80,-220);
ref = _dot;
},
{
pos = (80,-460);
ref = _dot;
},
{
pos = (-160,20);
ref = _dot;
},
{
closed = 1;
nodes = (
(500,260,l),
(560,260,l),
(560,340,l),
(500,340,l)
);
}
);
width = 600;
}
);
},
